<svg width="281" height="281" fill="none" xmlns="http://www.w3.org/2000/svg">
<g filter="url(#filter0_d)">
<path d="M140.5 193C182.75 193 217 158.75 217 116.5C217 74.2504 182.75 40.0002 140.5 40.0002C98.2502 40.0002 64 74.2504 64 116.5C64 158.75 98.2502 193 140.5 193Z" fill="#6ABE3D" stroke="#6AD035" stroke-width="8"/>
<path fill-rule="evenodd" clip-rule="evenodd" d="M126.835 155.409L161.752 142.871C163.96 142.078 165.107 139.645 164.314 137.438L131.772 46.8141C131.673 46.538 131.548 46.2786 131.402 46.0374C130.375 44.3494 128.271 43.5578 126.338 44.2516L91.4217 56.7896C91.4155 56.7918 91.4092 56.7941 91.403 56.7964L83.692 59.5653C81.4838 60.3582 80.3366 62.791 81.1296 64.9991L113.671 155.623C114.464 157.831 116.897 158.978 119.105 158.185L126.83 155.411C126.831 155.411 126.833 155.41 126.835 155.409Z" fill="#D7E8FF"/>
<path d="M153.816 136.693L121.298 148.37C120.562 148.634 119.751 148.252 119.486 147.516L90.7731 67.5539C90.5089 66.8179 90.8912 66.0071 91.6273 65.7426L124.145 54.0661C124.881 53.8019 125.692 54.1842 125.956 54.9202L154.67 134.882C154.934 135.618 154.552 136.429 153.816 136.693Z" fill="#C5DBF9"/>
<path d="M115.065 79.8948C112.857 80.6878 110.424 79.5406 109.631 77.3324C108.838 75.1243 109.985 72.6916 112.193 71.8986C114.402 71.1056 116.834 72.2529 117.627 74.461C118.42 76.6692 117.273 79.1019 115.065 79.8948Z" fill="#B0C7E6"/>
<path fill-rule="evenodd" clip-rule="evenodd" d="M149.951 177.745L175.379 152.317C177.038 150.658 177.038 147.968 175.379 146.309L107.293 78.2228C105.634 76.5638 102.944 76.5638 101.285 78.2228L75.827 103.681L75.0516 104.456C75.0489 104.459 75.0462 104.462 75.0434 104.464L69.2443 110.264C67.5852 111.923 67.5852 114.612 69.2443 116.271L137.331 184.358C138.99 186.017 141.68 186.017 143.339 184.358L149.921 177.775C149.931 177.765 149.941 177.755 149.951 177.745Z" fill="#FFF68E"/>
<path d="M165.567 150.114L141.136 174.545C140.583 175.098 139.686 175.098 139.133 174.545L79.0569 114.468C78.5038 113.915 78.5038 113.019 79.0569 112.466L103.488 88.0347C104.041 87.4816 104.937 87.4816 105.491 88.0347L165.567 148.111C166.12 148.664 166.12 149.561 165.567 150.114Z" fill="#FFCD71"/>
<path d="M131.323 140.302C126.346 145.279 118.277 145.279 113.3 140.302C108.323 135.325 108.323 127.256 113.3 122.279C118.277 117.302 126.346 117.302 131.323 122.279C136.3 127.256 136.3 135.325 131.323 140.302ZM100.284 109.262C98.6248 110.921 98.6248 113.611 100.284 115.27C101.943 116.929 104.632 116.929 106.291 115.27C107.95 113.611 107.95 110.921 106.291 109.262C104.632 107.603 101.943 107.603 100.284 109.262Z" fill="#FF9F22"/>
<path fill-rule="evenodd" clip-rule="evenodd" d="M149.7 140.652L151.76 141.017L192.66 148.279C194.97 148.689 197.175 147.149 197.586 144.839L212.934 58.3984C213.344 56.0886 211.804 53.8833 209.494 53.4732L168.65 46.2213C168.631 46.2177 168.612 46.2142 168.593 46.2108L156.514 44.0661C154.204 43.656 151.999 45.1961 151.589 47.5062L136.24 133.947C135.83 136.257 137.37 138.463 139.681 138.873L149.671 140.646C149.68 140.648 149.69 140.65 149.7 140.652Z" fill="#C1BDE0"/>
<path d="M199.683 100.629C197.222 114.489 183.991 123.73 170.131 121.269C156.271 118.808 147.031 105.577 149.492 91.7172C151.953 77.8573 165.183 68.6163 179.043 71.0774C192.903 73.5384 202.144 86.7691 199.683 100.629Z" fill="#958FCA"/>
<path d="M168.203 60.0617C167.076 60.9345 165.475 60.8269 164.476 59.8111L164.236 59.5672L164.42 60.8238C164.445 60.9886 164.545 61.1322 164.691 61.2118L167.474 62.723C167.921 62.9654 167.802 63.6371 167.299 63.7111L166.437 63.8377L158.528 62.4335L157.763 62.0181C157.316 61.7757 157.436 61.1039 157.939 61.03L161.072 60.5692C161.236 60.5451 161.38 60.4446 161.46 60.2982L162.066 59.1821L161.756 59.3285C160.468 59.9379 158.928 59.4877 158.171 58.2806C157.686 57.5078 157.606 56.5474 157.956 55.7052C159.568 51.5047 164.675 50.7908 164.675 50.7908C164.675 50.7908 169.223 53.2192 169.29 57.7174C169.33 58.629 168.924 59.5029 168.203 60.0617Z" fill="#51489A"/>
<path fill-rule="evenodd" clip-rule="evenodd" d="M177.673 106.35C180.593 109.317 185.271 109.631 188.562 107.082C188.795 106.901 189.018 106.708 189.228 106.506C191.169 104.869 192.25 102.421 192.14 99.8717C192.083 96.0751 190.934 92.7829 189.328 90.0211C189.043 89.8799 188.754 89.7463 188.463 89.6204C184.471 83.3184 178.255 80 178.255 80C178.255 80 163.338 82.0855 158.631 94.3556C157.607 96.8163 157.84 99.6209 159.256 101.879C161.468 105.406 165.968 106.721 169.731 104.94L172.401 103.677L166.989 107.457C166.311 107.556 166.15 108.463 166.753 108.79L167.785 109.351L178.461 111.246L179.624 111.075C180.303 110.975 180.463 110.069 179.86 109.741L176.104 107.702C175.907 107.594 175.771 107.4 175.738 107.178L175.255 103.893L177.673 106.35Z" fill="#5F55AF"/>
<path fill-rule="evenodd" clip-rule="evenodd" d="M140.206 168.532L182.431 156.926C184.693 156.304 186.023 153.967 185.401 151.704L162.134 67.0504C161.512 64.7882 159.175 63.4585 156.912 64.0802L115.752 75.393C115.747 75.3942 115.743 75.3954 115.739 75.3966L114.687 75.6856L105.028 78.3405C102.766 78.9624 101.436 81.3002 102.058 83.5625L125.325 168.216C125.946 170.478 128.284 171.808 130.547 171.186L140.158 168.545C140.174 168.54 140.19 168.536 140.206 168.532Z" fill="#E4FFD6"/>
<path d="M168.307 110.878C172.037 124.452 164.058 138.479 150.485 142.21C136.911 145.941 122.883 137.961 119.153 124.388C115.422 110.815 123.401 96.7869 136.975 93.0562C150.548 89.3256 164.576 97.3048 168.307 110.878Z" fill="#C9EDB7"/>
<path fill-rule="evenodd" clip-rule="evenodd" d="M158.667 121.277C155.359 128.41 149.001 132.601 149.001 132.601C149.001 132.601 133.955 131.902 128.135 120.12C126.887 117.764 126.86 114.95 128.062 112.571C129.939 108.855 134.298 107.13 138.21 108.555L142.858 110.249L145.988 106.417C147.602 104.442 149.965 103.397 152.361 103.398C153.875 103.399 155.402 103.818 156.762 104.683C159.011 106.113 160.425 108.546 160.558 111.208C160.558 111.208 160.558 111.208 160.558 111.209M160.227 116.576C159.885 118.257 159.339 119.828 158.667 121.277C158.667 121.277 158.667 121.277 158.667 121.277C159.339 119.828 159.886 118.257 160.227 116.576Z" fill="#A9D493"/>
<path d="M117.787 90.0062C117.787 90.0062 112.636 89.7669 110.644 85.7335C110.217 84.927 110.208 83.9635 110.619 83.1493C111.262 81.8775 112.754 81.2867 114.093 81.7746L115.684 82.3544L116.756 81.0429C117.657 79.9392 119.241 79.684 120.444 80.449C121.214 80.9386 121.698 81.7715 121.743 82.6829C122.092 87.168 117.787 90.0062 117.787 90.0062Z" fill="#A9D493"/>
<path d="M207.585 153.106C207.585 170.467 193.511 184.542 176.149 184.542C158.788 184.542 144.714 170.467 144.714 153.106C144.714 135.744 158.788 121.67 176.149 121.67C193.511 121.67 207.585 135.744 207.585 153.106Z" fill="#FFCD71"/>
<path d="M176.168 153.106L205.949 163.135C205.25 165.206 204.323 167.235 203.159 169.19C201.995 171.144 200.653 172.926 199.165 174.528L176.159 153.123L182.363 183.922C178.034 184.796 173.512 184.765 169.106 183.751L176.14 153.122L152.563 173.9C149.572 170.509 147.39 166.549 146.096 162.326L176.131 153.106L146.35 143.077C147.049 141.006 147.976 138.977 149.14 137.022C150.304 135.068 151.646 133.286 153.134 131.684L176.14 153.089L169.936 122.29C174.266 121.416 178.787 121.447 183.194 122.461L176.159 153.09L199.736 132.311C202.727 135.703 204.909 139.663 206.203 143.886L176.168 153.106Z" fill="#FFB655"/>
<path d="M196.257 153.106C196.257 164.211 187.254 173.213 176.149 173.213C165.044 173.213 156.042 164.211 156.042 153.106C156.042 142.001 165.044 132.999 176.149 132.999C187.254 132.999 196.257 142.001 196.257 153.106Z" fill="#FFA325"/>
<path d="M174.912 165.05L172.441 157.639C172.311 157.249 172.006 156.944 171.616 156.814L164.205 154.343C163.016 153.947 163.016 152.264 164.205 151.868L171.616 149.397C172.006 149.267 172.311 148.962 172.441 148.572L174.912 141.161C175.308 139.971 176.991 139.971 177.388 141.161L179.858 148.572C179.988 148.962 180.293 149.267 180.683 149.397L188.094 151.868C189.284 152.264 189.284 153.947 188.094 154.343L180.683 156.814C180.293 156.944 179.988 157.249 179.858 157.639L177.388 165.05C176.991 166.24 175.308 166.24 174.912 165.05Z" fill="#FFF5F5"/>
<path d="M176.149 121.67C158.788 121.67 144.714 135.744 144.714 153.106C144.714 170.467 158.788 184.542 176.149 184.542C193.511 184.542 207.585 170.467 207.585 153.106C207.585 135.744 193.511 121.67 176.149 121.67ZM176.149 180.293C161.158 180.293 148.962 168.097 148.962 153.106C148.962 138.115 161.158 125.918 176.149 125.918C191.141 125.918 203.337 138.115 203.337 153.106C203.337 168.097 191.141 180.293 176.149 180.293Z" fill="#FFA325"/>
</g>
<defs>
<filter id="filter0_d" x="0" y="0.000244141" width="281" height="281" filterUnits="userSpaceOnUse" color-interpolation-filters="sRGB">
<feFlood flood-opacity="0" result="BackgroundImageFix"/>
<feColorMatrix in="SourceAlpha" type="matrix" values="0 0 0 0 0 0 0 0 0 0 0 0 0 0 0 0 0 0 127 0" result="hardAlpha"/>
<feOffset dy="24"/>
<feGaussianBlur stdDeviation="30"/>
<feColorMatrix type="matrix" values="0 0 0 0 0.320207 0 0 0 0 0.65 0 0 0 0 0.14625 0 0 0 0.16 0"/>
<feBlend mode="normal" in2="BackgroundImageFix" result="effect1_dropShadow"/>
<feBlend mode="normal" in="SourceGraphic" in2="effect1_dropShadow" result="shape"/>
</filter>
</defs>
</svg>
