<svg width="1200" height="100" viewBox="0 0 1200 100" fill="none" xmlns="http://www.w3.org/2000/svg">
<mask id="mask0" mask-type="alpha" maskUnits="userSpaceOnUse" x="0" y="0" width="1200" height="100">
<rect width="1200" height="100" rx="8" fill="url(#paint0_linear)"/>
</mask>
<g mask="url(#mask0)">
<path d="M78.3267 54.3734L49.7269 112.948L59.9682 116.855L78.3267 54.3734Z" fill="#58B428"/>
<path d="M298.647 58.3239L309.803 122.546L320.391 119.709L298.647 58.3239Z" fill="#58B428"/>
<path d="M251.602 42.8319L217 -7.49996L224.794 -12L251.602 42.8319Z" fill="#58B428"/>
<path d="M124.157 45.9991L151.523 -11L159.317 -6.49998L124.157 45.9991Z" fill="#58B428"/>
<path d="M455.816 44.3187L432 -14.2525L440.57 -16.9998L455.816 44.3187Z" fill="#58B428"/>
<path d="M333.203 23.931L341.763 -15L355.268 -9.04601L333.203 23.931Z" fill="#58B428"/>
<path d="M170.866 76.2681L164.521 115.621L179.27 115.046L170.866 76.2681Z" fill="#58B428"/>
<path d="M407.866 67.2681L401.521 106.621L416.27 106.046L407.866 67.2681Z" fill="#58B428"/>
<path d="M702.441 71.3115L683.255 106.252L697.341 110.661L702.441 71.3115Z" fill="#58B428"/>
<path d="M24.5278 51.7369L-28.0002 -26.3647L-20.2857 -31L24.5278 51.7369Z" fill="#58B428"/>
<path d="M831.326 58.3733L802.726 116.948L812.968 120.855L831.326 58.3733Z" fill="#52AE21"/>
<path d="M1051.65 62.3239L1062.8 126.546L1073.39 123.709L1051.65 62.3239Z" fill="#52AE21"/>
<path d="M1004.6 46.8319L970 -3.49996L977.794 -7.99996L1004.6 46.8319Z" fill="#52AE21"/>
<path d="M877.157 49.9991L904.523 -6.99998L912.317 -2.49998L877.157 49.9991Z" fill="#52AE21"/>
<path d="M1208.82 48.3187L1185 -10.2525L1193.57 -12.9998L1208.82 48.3187Z" fill="#52AE21"/>
<path d="M1086.2 27.931L1094.76 -11L1108.27 -5.04601L1086.2 27.931Z" fill="#52AE21"/>
<path d="M923.866 80.2681L917.521 119.621L932.27 119.046L923.866 80.2681Z" fill="#52AE21"/>
<path d="M1160.87 71.2681L1154.52 110.621L1169.27 110.046L1160.87 71.2681Z" fill="#52AE21"/>
<path d="M777.528 55.7369L725 -22.3647L732.714 -27L777.528 55.7369Z" fill="#52AE21"/>
</g>
<defs>
<linearGradient id="paint0_linear" x1="1200" y1="-0.000241399" x2="-4.64419e-05" y2="100" gradientUnits="userSpaceOnUse">
<stop stop-color="#55B324"/>
<stop offset="1" stop-color="#63C231"/>
</linearGradient>
</defs>
</svg>
