<svg width="12" height="12" viewBox="0 0 12 12" fill="none" xmlns="http://www.w3.org/2000/svg">
<path d="M9.53761 3.21739L8.58506 0.83842C8.40049 0.377152 7.91306 0 7.49979 0H7.28007C6.98835 0 6.58108 0.210724 6.37481 0.468721C6.16854 0.726718 5.83109 0.726718 5.62482 0.468721C5.41855 0.210724 5.01151 0 4.71967 0H4.49995C4.08823 0 3.59923 0.377269 3.41469 0.83842L2.4637 3.21739C0.972715 3.42221 0 3.7515 0 4.12493C0 4.48049 0.88056 4.79619 2.24997 5.00235V5.99979H2.25154C2.25154 6.26822 2.25311 6.50821 2.25311 6.70178C2.25154 6.70705 2.25154 6.71378 2.25011 6.71978C2.25168 6.71978 2.25168 6.71905 2.25311 6.71905V7.12478C2.25311 9.02303 4.50309 11.2497 6.00307 11.2497C7.50305 11.2497 9.75303 9.02303 9.75303 7.12478C9.75303 6.80535 9.75903 5.89252 9.76346 5.0008C11.1254 4.79453 12 4.47881 12 4.12481C11.9999 3.7515 11.0271 3.42221 9.53761 3.21739ZM4.87494 6.7499H4.12495C3.91868 6.7499 3.74996 6.58117 3.74996 6.3749C3.74996 6.16863 3.91868 5.99991 4.12495 5.99991H4.87494C5.08121 5.99991 5.24994 6.16863 5.24994 6.3749C5.24994 6.58117 5.08121 6.7499 4.87494 6.7499ZM7.87491 6.7499H7.12492C6.91865 6.7499 6.74992 6.58117 6.74992 6.3749C6.74992 6.16863 6.91865 5.99991 7.12492 5.99991H7.87491C8.08118 5.99991 8.2499 6.16863 8.2499 6.3749C8.2499 6.58117 8.08118 6.7499 7.87491 6.7499Z" fill="#696E87"/>
</svg>
