<svg width="26" height="24" viewBox="0 0 26 24" fill="none" xmlns="http://www.w3.org/2000/svg">
<path d="M23.813 1L14.4374 7.93729L16.1809 3.84892L23.813 1Z" fill="#E17726" stroke="#E17726" stroke-width="0.25" stroke-linecap="round" stroke-linejoin="round"/>
<path d="M2.187 1L11.4791 8.00203L9.81918 3.84891L2.187 1Z" fill="#E27625" stroke="#E27625" stroke-width="0.25" stroke-linecap="round" stroke-linejoin="round"/>
<path d="M20.4372 17.0852L17.9426 20.8961L23.2842 22.3668L24.8144 17.1685L20.4372 17.0852Z" fill="#E27625" stroke="#E27625" stroke-width="0.25" stroke-linecap="round" stroke-linejoin="round"/>
<path d="M1.19467 17.1685L2.71553 22.3668L8.04786 20.8961L5.56252 17.0852L1.19467 17.1685Z" fill="#E27625" stroke="#E27625" stroke-width="0.25" stroke-linecap="round" stroke-linejoin="round"/>
<path d="M7.76033 10.6474L6.27658 12.8858L11.5625 13.1263L11.3863 7.43774L7.76033 10.6474Z" fill="#E27625" stroke="#E27625" stroke-width="0.25" stroke-linecap="round" stroke-linejoin="round"/>
<path d="M18.2394 10.6474L14.5578 7.37305L14.4373 13.1264L19.7232 12.8859L18.2394 10.6474Z" fill="#E27625" stroke="#E27625" stroke-width="0.25" stroke-linecap="round" stroke-linejoin="round"/>
<path d="M8.04793 20.8962L11.2473 19.3515L8.49308 17.2056L8.04793 20.8962Z" fill="#E27625" stroke="#E27625" stroke-width="0.25" stroke-linecap="round" stroke-linejoin="round"/>
<path d="M14.7527 19.3515L17.9428 20.8962L17.5069 17.2056L14.7527 19.3515Z" fill="#E27625" stroke="#E27625" stroke-width="0.25" stroke-linecap="round" stroke-linejoin="round"/>
<path d="M17.9428 20.8962L14.7527 19.3516L15.0123 21.4235L14.9845 22.3022L17.9428 20.8962Z" fill="#D5BFB2" stroke="#D5BFB2" stroke-width="0.25" stroke-linecap="round" stroke-linejoin="round"/>
<path d="M8.04793 20.8962L11.0155 22.3022L10.9969 21.4235L11.2473 19.3516L8.04793 20.8962Z" fill="#D5BFB2" stroke="#D5BFB2" stroke-width="0.25" stroke-linecap="round" stroke-linejoin="round"/>
<path d="M11.071 15.8366L8.41876 15.0597L10.292 14.1995L11.071 15.8366Z" fill="#233447" stroke="#233447" stroke-width="0.25" stroke-linecap="round" stroke-linejoin="round"/>
<path d="M14.9289 15.8366L15.7079 14.1995L17.5904 15.0597L14.9289 15.8366Z" fill="#233447" stroke="#233447" stroke-width="0.25" stroke-linecap="round" stroke-linejoin="round"/>
<path d="M8.04786 20.8961L8.51157 17.0852L5.56256 17.1685L8.04786 20.8961Z" fill="#CC6228" stroke="#CC6228" stroke-width="0.25" stroke-linecap="round" stroke-linejoin="round"/>
<path d="M17.4883 17.0852L17.9427 20.8961L20.4373 17.1685L17.4883 17.0852Z" fill="#CC6228" stroke="#CC6228" stroke-width="0.25" stroke-linecap="round" stroke-linejoin="round"/>
<path d="M19.7232 12.8857L14.4373 13.1262L14.9287 15.8365L15.7078 14.1992L17.5903 15.0594L19.7232 12.8857Z" fill="#CC6228" stroke="#CC6228" stroke-width="0.25" stroke-linecap="round" stroke-linejoin="round"/>
<path d="M8.41877 15.0594L10.292 14.1992L11.071 15.8365L11.5625 13.1262L6.27658 12.8857L8.41877 15.0594Z" fill="#CC6228" stroke="#CC6228" stroke-width="0.25" stroke-linecap="round" stroke-linejoin="round"/>
<path d="M6.27675 12.8857L8.49315 17.2054L8.41891 15.0594L6.27675 12.8857Z" fill="#E27525" stroke="#E27525" stroke-width="0.25" stroke-linecap="round" stroke-linejoin="round"/>
<path d="M17.5904 15.0594L17.507 17.2054L19.7234 12.8857L17.5904 15.0594Z" fill="#E27525" stroke="#E27525" stroke-width="0.25" stroke-linecap="round" stroke-linejoin="round"/>
<path d="M11.5628 13.1265L11.0712 15.8367L11.6926 19.037L11.8317 14.8192L11.5628 13.1265Z" fill="#E27525" stroke="#E27525" stroke-width="0.25" stroke-linecap="round" stroke-linejoin="round"/>
<path d="M14.4374 13.1265L14.1777 14.81L14.3076 19.037L14.9289 15.8367L14.4374 13.1265Z" fill="#E27525" stroke="#E27525" stroke-width="0.25" stroke-linecap="round" stroke-linejoin="round"/>
<path d="M14.9289 15.8366L14.3076 19.0369L14.7527 19.3514L17.507 17.2055L17.5904 15.0596L14.9289 15.8366Z" fill="#F5841F" stroke="#F5841F" stroke-width="0.25" stroke-linecap="round" stroke-linejoin="round"/>
<path d="M8.41876 15.0596L8.493 17.2055L11.2472 19.3514L11.6923 19.0369L11.071 15.8366L8.41876 15.0596Z" fill="#F5841F" stroke="#F5841F" stroke-width="0.25" stroke-linecap="round" stroke-linejoin="round"/>
<path d="M14.9846 22.3022L15.0123 21.4235L14.7713 21.22H11.2288L10.9969 21.4235L11.0155 22.3022L8.04793 20.8962L9.08656 21.7472L11.1917 23.1994H14.799L16.9134 21.7472L17.9428 20.8962L14.9846 22.3022Z" fill="#C0AC9D" stroke="#C0AC9D" stroke-width="0.25" stroke-linecap="round" stroke-linejoin="round"/>
<path d="M14.7527 19.3513L14.3075 19.0369H11.6924L11.2473 19.3513L10.9969 21.4233L11.2287 21.2198H14.7712L15.0124 21.4233L14.7527 19.3513Z" fill="#161616" stroke="#161616" stroke-width="0.25" stroke-linecap="round" stroke-linejoin="round"/>
<path d="M24.2117 8.3905L25 4.56114L23.813 1L14.7527 7.70607L18.2395 10.6474L23.1638 12.0812L24.2488 10.814L23.7759 10.4717L24.527 9.78727L23.9521 9.34326L24.7033 8.76976L24.2117 8.3905Z" fill="#763E1A" stroke="#763E1A" stroke-width="0.25" stroke-linecap="round" stroke-linejoin="round"/>
<path d="M1 4.56114L1.79753 8.3905L1.28748 8.76976L2.04791 9.34326L1.47295 9.78727L2.22411 10.4717L1.75116 10.814L2.83617 12.0812L7.76047 10.6474L11.2473 7.70607L2.18702 1L1 4.56114Z" fill="#763E1A" stroke="#763E1A" stroke-width="0.25" stroke-linecap="round" stroke-linejoin="round"/>
<path d="M23.1639 12.0811L18.2396 10.6475L19.7234 12.8859L17.507 17.2055L20.4374 17.1685H24.8145L23.1639 12.0811Z" fill="#F5841F" stroke="#F5841F" stroke-width="0.25" stroke-linecap="round" stroke-linejoin="round"/>
<path d="M7.76033 10.6475L2.83609 12.0811L1.19467 17.1685H5.56252L8.49294 17.2055L6.27659 12.8859L7.76033 10.6475Z" fill="#F5841F" stroke="#F5841F" stroke-width="0.25" stroke-linecap="round" stroke-linejoin="round"/>
<path d="M14.4373 13.1264L14.7527 7.70598L16.1808 3.84888H9.81911L11.2472 7.70598L11.5625 13.1264L11.6831 14.8283L11.6924 19.0369H14.3075L14.3168 14.8283L14.4373 13.1264Z" fill="#F5841F" stroke="#F5841F" stroke-width="0.25" stroke-linecap="round" stroke-linejoin="round"/>
</svg>
