<svg width="30" height="32" viewBox="0 0 30 32" fill="none" xmlns="http://www.w3.org/2000/svg">
<path d="M12.7539 13.5583C12.7539 13.5583 16.4308 11.8922 18.9586 10.6858C21.4864 9.47931 24.1866 7.46854 24.4164 4.76836C24.5313 2.87249 22.3482 1.26387 19.2458 0.51701C16.086 -0.229848 11.7198 -0.0574961 10.5708 1.09152C9.30687 2.35543 9.24942 3.9066 10.2835 6.83658C11.3176 9.65166 12.7539 13.5583 12.7539 13.5583Z" fill="#6AD035"/>
<path d="M13.5005 15.5116C13.5005 15.5116 15.9134 22.0035 16.7752 24.4165C17.6369 26.8294 19.0732 31.0233 23.0947 29.1274C27.1163 27.2315 31.1953 14.4775 29.1845 11.4326C26.829 8.10048 16.1432 14.5349 13.5005 15.5116Z" fill="#6AD035"/>
<path d="M11.6046 16.3734C11.6046 16.3734 12.9835 20.0503 13.9027 22.6355C14.8219 25.2783 15.5113 29.5296 14.1325 31.3106C13.1558 32.517 10.1109 31.8851 8.38741 30.851C6.26174 29.5871 2.87215 27.4614 2.3551 24.8187C1.78059 21.8887 3.96371 19.9928 6.72134 18.6714C9.53643 17.3501 11.6046 16.3734 11.6046 16.3734Z" fill="#6AD035"/>
<path d="M10.8579 14.4201C10.8579 14.4201 9.42165 10.6284 8.44499 7.87073C7.46833 5.1131 5.85971 3.27468 3.21698 5.51526C0.804059 7.52603 0.114651 11.7199 -0.000250012 13.903C-0.172602 16.8905 1.37857 18.8438 4.5958 17.3501C7.81304 15.8564 10.8579 14.4201 10.8579 14.4201Z" fill="#6AD035"/>
</svg>
