<svg width="23" height="24" viewBox="0 0 23 24" fill="none" xmlns="http://www.w3.org/2000/svg">
<path d="M10.9804 0.000699434L11.3413 0.230816C12.9094 1.23102 14.202 1.84933 15.2029 2.08784C15.9604 2.26899 17.0467 2.35153 18.4539 2.33264L19.0338 2.31935C19.2324 2.31376 19.4373 2.30537 19.6472 2.29557L20.704 2.23962V8.35975H19.3052V3.70915L19.0534 3.71894C17.3642 3.77 16.0353 3.69516 15.0574 3.48882L14.8784 3.44896C13.8397 3.20065 12.6087 2.6418 11.1734 1.77379L10.9496 1.636L10.7328 1.7584C9.39474 2.50331 8.24626 3.00201 7.27753 3.25311L7.07259 3.30347C6.6795 3.393 6.20178 3.46714 5.63803 3.5238L5.19878 3.56366C5.12254 3.57066 5.0449 3.57625 4.96657 3.58185L4.47905 3.61262L3.95867 3.63711L3.40611 3.65599L2.81997 3.66928L2.17229 3.67557L2.14431 3.93437C1.80298 7.07277 1.81837 9.69778 2.18628 11.8045L2.23804 12.0892L2.29399 12.3725L2.4052 12.9061C2.92419 15.3024 3.46976 16.3977 4.87144 18.1275L5.18479 18.5087C6.12834 19.6383 7.95599 20.9008 10.6572 22.2689L10.9258 22.4032L11.4581 22.0702L11.9981 21.7275L12.7556 21.2365L13.2263 20.9252L13.6697 20.6266L14.0845 20.3398L14.4727 20.0663L14.656 19.9341L15.0015 19.6795L15.3197 19.4375L15.61 19.2088L15.745 19.099L15.9926 18.8892L16.2129 18.6933L16.3129 18.5996C17.1558 17.7938 17.9419 16.5649 18.6596 14.9121L18.7939 14.5974L20.085 15.1346C19.2632 17.1119 18.3322 18.6038 17.2796 19.611L17.055 19.818L16.8032 20.0377L16.5235 20.2685L16.2171 20.5119C16.164 20.5538 16.1094 20.5958 16.0534 20.6378L15.7058 20.8994L15.3302 21.1721L14.9273 21.4575L14.4972 21.7548L14.039 22.0646L13.5536 22.3864L13.0402 22.7207L12.4989 23.0676L11.9295 23.4265L11.0049 24L10.6579 23.8314C10.4413 23.7255 10.2254 23.618 10.0103 23.509L9.39124 23.1893C6.87395 21.8639 5.11765 20.6105 4.11115 19.4054L3.93769 19.1955L3.61104 18.7919C2.04639 16.8167 1.46655 15.4612 0.86503 12.3543C0.399201 9.95028 0.380316 6.94897 0.80208 3.34404L0.934974 2.27599L2.1541 2.27669L2.72485 2.27109L3.26482 2.2599L3.52361 2.25291L4.01952 2.23402L4.48395 2.21024L4.9183 2.18226L5.12464 2.16548L5.51283 2.1305C5.63733 2.11721 5.75694 2.10393 5.87095 2.08924L6.19829 2.04447C6.40602 2.0123 6.59347 1.97733 6.75994 1.93956C7.686 1.72693 8.88205 1.20654 10.3362 0.375601L10.9804 0V0.000699434ZM12.9276 7.17139C13.8677 7.17139 14.6105 7.38332 15.1561 7.80789C15.7016 8.23105 15.9744 8.80389 15.9744 9.52572C15.9744 9.91181 15.8716 10.2671 15.666 10.5896C15.4578 10.9151 15.1695 11.1817 14.8287 11.3639C15.3239 11.5569 15.7142 11.8507 15.9996 12.2452C16.285 12.6396 16.4276 13.0887 16.4276 13.5923C16.4276 14.1127 16.285 14.5659 15.9996 14.952C15.7142 15.3381 15.3092 15.6361 14.7847 15.8459C14.2601 16.0557 13.6446 16.1606 12.9402 16.1606C12.2436 16.1606 11.6323 16.0578 11.1077 15.8529C10.5831 15.6465 10.1788 15.3528 9.89345 14.9716C9.60807 14.589 9.46539 14.142 9.46539 13.6301C9.46539 13.1265 9.61647 12.6718 9.91862 12.264C10.2208 11.857 10.6321 11.5576 11.1524 11.3639C10.7851 11.1709 10.4714 10.8897 10.2397 10.5455C10.021 10.2222 9.90479 9.8405 9.90604 9.45018C9.90604 8.75353 10.1788 8.19957 10.7244 7.7883C11.2699 7.37703 12.0044 7.17139 12.9276 7.17139ZM8.23576 7.25952V16.0725H6.24655V8.94658H4.47136V7.25952H8.23576ZM12.9402 12.1948C12.4282 12.1948 12.0309 12.2997 11.7505 12.5095C11.4693 12.7194 11.3287 13.0215 11.3287 13.416C11.3287 13.8105 11.4686 14.1169 11.7505 14.3351C12.0316 14.5533 12.4282 14.6624 12.9395 14.6624C13.4522 14.6624 13.8509 14.5554 14.1356 14.3414C14.4216 14.1274 14.5643 13.8238 14.5643 13.4286C14.5643 13.0341 14.4216 12.7299 14.1363 12.5158C13.8509 12.3018 13.4522 12.1948 12.9402 12.1948ZM20.5432 9.41171V11.0274H22.1148V12.1325H20.5439V13.7483H19.3045V12.1325H17.7342V11.0274H19.3052V9.41171H20.5446H20.5432ZM12.9402 8.5444C12.5038 8.5444 12.1659 8.63813 11.926 8.82697C11.6875 9.01582 11.5679 9.28231 11.5679 9.62644C11.5679 9.96217 11.6868 10.2245 11.9267 10.4133C12.1659 10.6022 12.5038 10.6966 12.9402 10.6966C13.3767 10.6966 13.7145 10.6043 13.9537 10.4196C14.1929 10.235 14.3125 9.97056 14.3125 9.62644C14.3125 9.28231 14.1929 9.01582 13.9537 8.82697C13.7145 8.63813 13.3767 8.5437 12.9395 8.5437L12.9402 8.5444Z" fill="#696E87"/>
</svg>
