<svg width="36" height="36" viewBox="0 0 36 36" fill="none" xmlns="http://www.w3.org/2000/svg">
<path d="M13.5 4.5C18.4706 4.5 22.5 3.99632 22.5 3.375C22.5 2.75368 18.4706 2.25 13.5 2.25C8.52944 2.25 4.5 2.75368 4.5 3.375C4.5 3.99632 8.52944 4.5 13.5 4.5Z" fill="#F7F3E1"/>
<path d="M4.5 3.375C4.5 3.99375 8.5275 4.5 13.5 4.5C18.4725 4.5 22.5 3.99375 22.5 3.375C22.5 2.75625 18.4725 2.25 13.5 2.25C8.5275 2.25 4.5 2.75625 4.5 3.375ZM13.5 0.5625C20.6437 0.5625 26.4375 1.8225 26.4375 3.375C26.4375 4.53938 23.1919 5.535 18.5625 5.96812C17.01 6.10875 15.2944 6.1875 13.5 6.1875C11.7056 6.1875 9.99 6.10875 8.4375 5.96812C3.80813 5.535 0.5625 4.53938 0.5625 3.375C0.5625 1.8225 6.35625 0.5625 13.5 0.5625Z" fill="#D1013E"/>
<path d="M18.5625 29.5931C23.1919 29.16 26.4375 28.1644 26.4375 27V30.375C26.4375 31.6294 22.6575 32.6925 17.4375 33.0581V29.6831C17.82 29.655 18.1969 29.6213 18.5625 29.5931Z" fill="#8F0029"/>
<path d="M8.4375 29.5931C8.80313 29.6213 9.18 29.655 9.5625 29.6831V33.0581C4.3425 32.6925 0.5625 31.6294 0.5625 30.375V27C0.5625 28.1644 3.80813 29.16 8.4375 29.5931Z" fill="#8F0029"/>
<path d="M17.4375 26.3081C17.82 26.28 18.1969 26.2463 18.5625 26.2181V29.5931C18.1969 29.6213 17.82 29.655 17.4375 29.6831C16.1944 29.7675 14.8725 29.8125 13.5 29.8125C12.1275 29.8125 10.8056 29.7675 9.5625 29.6831C9.18 29.655 8.80312 29.6213 8.4375 29.5931V26.2181C8.80312 26.2463 9.18 26.28 9.5625 26.3081C10.8056 26.3925 12.1275 26.4375 13.5 26.4375C14.8725 26.4375 16.1944 26.3925 17.4375 26.3081Z" fill="#8F0029"/>
<path d="M9.5625 22.9331V26.3081C9.18 26.28 8.80313 26.2462 8.4375 26.2181C3.80813 25.785 0.5625 24.7894 0.5625 23.625V20.25C0.5625 21.4144 3.80813 22.41 8.4375 22.8431C8.80313 22.8713 9.18 22.905 9.5625 22.9331Z" fill="#8F0029"/>
<path d="M18.5625 26.2181C18.1969 26.2462 17.82 26.28 17.4375 26.3081V22.9331C17.82 22.905 18.1969 22.8713 18.5625 22.8431C23.1919 22.41 26.4375 21.4144 26.4375 20.25V23.625C26.4375 24.7894 23.1919 25.785 18.5625 26.2181Z" fill="#8F0029"/>
<path d="M17.4375 19.5581C17.82 19.53 18.1969 19.4963 18.5625 19.4681V22.8431C18.1969 22.8713 17.82 22.905 17.4375 22.9331C16.1944 23.0175 14.8725 23.0625 13.5 23.0625C12.1275 23.0625 10.8056 23.0175 9.5625 22.9331C9.18 22.905 8.80312 22.8713 8.4375 22.8431V19.4681C8.80312 19.4963 9.18 19.53 9.5625 19.5581C10.8056 19.6425 12.1275 19.6875 13.5 19.6875C14.8725 19.6875 16.1944 19.6425 17.4375 19.5581Z" fill="#8F0029"/>
<path d="M18.5625 19.4681C18.1969 19.4962 17.82 19.53 17.4375 19.5581V16.1831C17.82 16.155 18.1969 16.1213 18.5625 16.0931C23.1919 15.66 26.4375 14.6644 26.4375 13.5V16.875C26.4375 18.0394 23.1919 19.035 18.5625 19.4681Z" fill="#A80132"/>
<path d="M9.5625 16.1831V19.5581C9.18 19.53 8.80313 19.4962 8.4375 19.4681C3.80813 19.035 0.5625 18.0394 0.5625 16.875V13.5C0.5625 14.6644 3.80813 15.66 8.4375 16.0931C8.80313 16.1213 9.18 16.155 9.5625 16.1831Z" fill="#A80132"/>
<path d="M17.4375 12.8081C17.82 12.78 18.1969 12.7463 18.5625 12.7181V16.0931C18.1969 16.1213 17.82 16.155 17.4375 16.1831C16.1944 16.2675 14.8725 16.3125 13.5 16.3125C12.1275 16.3125 10.8056 16.2675 9.5625 16.1831C9.18 16.155 8.80312 16.1213 8.4375 16.0931V12.7181C8.80312 12.7463 9.18 12.78 9.5625 12.8081C10.8056 12.8925 12.1275 12.9375 13.5 12.9375C14.8725 12.9375 16.1944 12.8925 17.4375 12.8081Z" fill="#A80132"/>
<path d="M9.5625 9.43313V12.8081C9.18 12.78 8.80313 12.7463 8.4375 12.7181C3.80813 12.285 0.5625 11.2894 0.5625 10.125V6.75C0.5625 7.91437 3.80813 8.91 8.4375 9.34313C8.80313 9.37125 9.18 9.405 9.5625 9.43313Z" fill="#A80132"/>
<path d="M18.5625 12.7181C18.1969 12.7463 17.82 12.78 17.4375 12.8081V9.43313C17.82 9.405 18.1969 9.37125 18.5625 9.34313C23.1919 8.91 26.4375 7.91437 26.4375 6.75V10.125C26.4375 11.2894 23.1919 12.285 18.5625 12.7181Z" fill="#A80132"/>
<path d="M17.4375 9.43315C16.1944 9.51752 14.8725 9.56252 13.5 9.56252C12.1275 9.56252 10.8056 9.51752 9.5625 9.43315C9.18 9.40502 8.80312 9.37127 8.4375 9.34315V5.96814C9.99 6.10876 11.7056 6.18752 13.5 6.18752C15.2944 6.18752 17.01 6.10876 18.5625 5.96814V9.34315C18.1969 9.37127 17.82 9.40502 17.4375 9.43315Z" fill="#A80132"/>
<path d="M17.4375 29.6831V33.0581C16.1944 33.1425 14.8725 33.1875 13.5 33.1875C12.1275 33.1875 10.8056 33.1425 9.5625 33.0581V29.6831C10.8056 29.7675 12.1275 29.8125 13.5 29.8125C14.8725 29.8125 16.1944 29.7675 17.4375 29.6831Z" fill="#E3DECB"/>
<path d="M26.4375 23.625V27C26.4375 28.1644 23.1919 29.16 18.5625 29.5931V26.2181C23.1919 25.785 26.4375 24.7894 26.4375 23.625Z" fill="#F7F3E1"/>
<path d="M8.4375 26.2181V29.5931C3.80813 29.16 0.5625 28.1644 0.5625 27V23.625C0.5625 24.7894 3.80813 25.785 8.4375 26.2181Z" fill="#F7F3E1"/>
<path d="M17.4375 22.9331V26.3081C16.1944 26.3925 14.8725 26.4375 13.5 26.4375C12.1275 26.4375 10.8056 26.3925 9.5625 26.3081V22.9331C10.8056 23.0175 12.1275 23.0625 13.5 23.0625C14.8725 23.0625 16.1944 23.0175 17.4375 22.9331Z" fill="#F7F3E1"/>
<path d="M26.4375 16.875V20.25C26.4375 21.4144 23.1919 22.41 18.5625 22.8431V19.4681C23.1919 19.035 26.4375 18.0394 26.4375 16.875Z" fill="#F7F3E1"/>
<path d="M8.4375 19.4681V22.8431C3.80813 22.41 0.5625 21.4144 0.5625 20.25V16.875C0.5625 18.0394 3.80813 19.035 8.4375 19.4681Z" fill="#F7F3E1"/>
<path d="M17.4375 16.1831V19.5581C16.1944 19.6425 14.8725 19.6875 13.5 19.6875C12.1275 19.6875 10.8056 19.6425 9.5625 19.5581V16.1831C10.8056 16.2675 12.1275 16.3125 13.5 16.3125C14.8725 16.3125 16.1944 16.2675 17.4375 16.1831Z" fill="#F7F3E1"/>
<path d="M26.4375 10.125V13.5C26.4375 14.6644 23.1919 15.66 18.5625 16.0931V12.7181C23.1919 12.285 26.4375 11.2894 26.4375 10.125Z" fill="#F7F3E1"/>
<path d="M8.4375 12.7181V16.0931C3.80813 15.66 0.5625 14.6644 0.5625 13.5V10.125C0.5625 11.2894 3.80813 12.285 8.4375 12.7181Z" fill="#F7F3E1"/>
<path d="M17.4375 9.43311V12.8081C16.1944 12.8925 14.8725 12.9375 13.5 12.9375C12.1275 12.9375 10.8056 12.8925 9.5625 12.8081V9.43311C10.8056 9.51748 12.1275 9.56248 13.5 9.56248C14.8725 9.56248 16.1944 9.51748 17.4375 9.43311Z" fill="#F7F3E1"/>
<path d="M18.5625 5.96812C23.1919 5.535 26.4375 4.53937 26.4375 3.375V6.75C26.4375 7.91437 23.1919 8.91 18.5625 9.34313V5.96812Z" fill="#F7F3E1"/>
<path d="M8.4375 5.96812V9.34313C3.80813 8.91 0.5625 7.91437 0.5625 6.75V3.375C0.5625 4.53937 3.80813 5.535 8.4375 5.96812Z" fill="#F7F3E1"/>
<path d="M22.5 3.375C22.5 3.47063 22.4044 3.56625 22.2188 3.65625C21.2175 3.1725 17.6962 2.8125 13.5 2.8125C9.30375 2.8125 5.7825 3.1725 4.78125 3.65625C4.59562 3.56625 4.5 3.47063 4.5 3.375C4.5 2.75625 8.5275 2.25 13.5 2.25C18.4725 2.25 22.5 2.75625 22.5 3.375Z" fill="#C7C3B2"/>
<path d="M17.4375 11.6831V12.8081C16.1944 12.8925 14.8725 12.9375 13.5 12.9375C12.1275 12.9375 10.8056 12.8925 9.5625 12.8081V11.6831C10.8056 11.7675 12.1275 11.8125 13.5 11.8125C14.8725 11.8125 16.1944 11.7675 17.4375 11.6831Z" fill="#E3DECB"/>
<path d="M26.4375 9V10.125C26.4375 11.2894 23.1919 12.285 18.5625 12.7181C18.1969 12.7463 17.82 12.78 17.4375 12.8081V11.6831C17.82 11.655 18.1969 11.6213 18.5625 11.5931C23.1919 11.16 26.4375 10.1644 26.4375 9Z" fill="#7D0126"/>
<path d="M17.4375 18.4331V19.5581C16.1944 19.6425 14.8725 19.6875 13.5 19.6875C12.1275 19.6875 10.8056 19.6425 9.5625 19.5581V18.4331C10.8056 18.5175 12.1275 18.5625 13.5 18.5625C14.8725 18.5625 16.1944 18.5175 17.4375 18.4331Z" fill="#E3DECB"/>
<path d="M26.4375 15.75V16.875C26.4375 18.0394 23.1919 19.035 18.5625 19.4681C18.1969 19.4962 17.82 19.53 17.4375 19.5581V18.4331C17.82 18.405 18.1969 18.3712 18.5625 18.3431C23.1919 17.91 26.4375 16.9144 26.4375 15.75Z" fill="#7D0126"/>
<path d="M17.4375 25.1831V26.3081C16.1944 26.3925 14.8725 26.4375 13.5 26.4375C12.1275 26.4375 10.8056 26.3925 9.5625 26.3081V25.1831C10.8056 25.2675 12.1275 25.3125 13.5 25.3125C14.8725 25.3125 16.1944 25.2675 17.4375 25.1831Z" fill="#E3DECB"/>
<path d="M26.4375 22.5V23.625C26.4375 24.7894 23.1919 25.785 18.5625 26.2181C18.1969 26.2462 17.82 26.28 17.4375 26.3081V25.1831C17.82 25.155 18.1969 25.1212 18.5625 25.0931C23.1919 24.66 26.4375 23.6644 26.4375 22.5Z" fill="#7D0126"/>
<path d="M18.5625 8.21814V9.34315C18.1969 9.37127 17.82 9.40502 17.4375 9.43315C16.1944 9.51752 14.8725 9.56252 13.5 9.56252C12.1275 9.56252 10.8056 9.51752 9.5625 9.43315C9.18 9.40502 8.80312 9.37127 8.4375 9.34315V8.21814C9.99 8.35877 11.7056 8.43752 13.5 8.43752C15.2944 8.43752 17.01 8.35877 18.5625 8.21814Z" fill="#7D0126"/>
<path d="M26.4375 5.625V6.75C26.4375 7.91438 23.1919 8.91 18.5625 9.34313V8.21812C23.1919 7.785 26.4375 6.78937 26.4375 5.625Z" fill="#E3DECB"/>
<path d="M18.5625 14.9681V16.0931C18.1969 16.1213 17.82 16.155 17.4375 16.1831C16.1944 16.2675 14.8725 16.3125 13.5 16.3125C12.1275 16.3125 10.8056 16.2675 9.5625 16.1831C9.18 16.155 8.80312 16.1213 8.4375 16.0931V14.9681C9.99 15.1088 11.7056 15.1875 13.5 15.1875C15.2944 15.1875 17.01 15.1088 18.5625 14.9681Z" fill="#7D0126"/>
<path d="M26.4375 12.375V13.5C26.4375 14.6644 23.1919 15.66 18.5625 16.0931V14.9681C23.1919 14.535 26.4375 13.5394 26.4375 12.375Z" fill="#E3DECB"/>
<path d="M18.5625 21.7181V22.8431C18.1969 22.8713 17.82 22.905 17.4375 22.9331C16.1944 23.0175 14.8725 23.0625 13.5 23.0625C12.1275 23.0625 10.8056 23.0175 9.5625 22.9331C9.18 22.905 8.80312 22.8713 8.4375 22.8431V21.7181C9.99 21.8588 11.7056 21.9375 13.5 21.9375C15.2944 21.9375 17.01 21.8588 18.5625 21.7181Z" fill="#7D0126"/>
<path d="M26.4375 19.125V20.25C26.4375 21.4144 23.1919 22.41 18.5625 22.8431V21.7181C23.1919 21.285 26.4375 20.2894 26.4375 19.125Z" fill="#E3DECB"/>
<path d="M26.4375 25.875V27C26.4375 28.1644 23.1919 29.16 18.5625 29.5931V28.4681C23.1919 28.035 26.4375 27.0394 26.4375 25.875Z" fill="#E3DECB"/>
<path d="M26.4375 27V30.375C26.4375 31.6294 22.6575 32.6925 17.4375 33.0581V29.6831C17.82 29.655 18.1969 29.6213 18.5625 29.5931C19.5356 29.5031 20.4412 29.385 21.2737 29.25H24.1875C24.7842 29.25 25.3565 29.0129 25.7785 28.591C26.2004 28.169 26.4375 27.5967 26.4375 27Z" fill="#7D0126"/>
<path d="M8.4375 29.5931C8.80313 29.6213 9.18 29.655 9.5625 29.6831V33.0581C4.3425 32.6925 0.5625 31.6294 0.5625 30.375V27C0.5625 28.1644 3.80813 29.16 8.4375 29.5931Z" fill="#7D0126"/>
<path d="M15.7714 28.642C14.0125 28.1619 12.3444 27.3963 10.8338 26.3756H10.8281C10.3969 26.3588 9.975 26.3363 9.5625 26.3081C9.18 26.28 8.80312 26.2463 8.4375 26.2181V29.5931C8.80312 29.6213 9.18 29.655 9.5625 29.6831C10.8056 29.7675 12.1275 29.8125 13.5 29.8125C14.8725 29.8125 16.1944 29.7675 17.4375 29.6831C17.82 29.655 18.1969 29.6213 18.5625 29.5931V28.4681C17.6811 28.548 16.7428 28.6054 15.7714 28.642Z" fill="#7D0126"/>
<path d="M9.24131 25.1572C8.37147 24.41 7.57989 23.5762 6.87881 22.6687C3.09938 22.1737 0.5625 21.2794 0.5625 20.25V23.625C0.5625 24.7894 3.80813 25.785 8.4375 26.2181C8.80313 26.2462 9.18 26.28 9.5625 26.3081V25.1831C9.45337 25.1752 9.34931 25.1662 9.24131 25.1572Z" fill="#7D0126"/>
<path d="M8.4375 18.3431C7.02862 18.2201 5.6287 18.0101 4.24575 17.7143C3.98214 16.9319 3.77941 16.1304 3.63937 15.3169C1.72125 14.8331 0.5625 14.1975 0.5625 13.5V16.875C0.5625 18.0394 3.80813 19.035 8.4375 19.4681C8.80313 19.4962 9.18 19.53 9.5625 19.5581V18.4331C9.18 18.405 8.80313 18.3712 8.4375 18.3431Z" fill="#7D0126"/>
<path d="M8.4375 11.5931C6.72944 11.4534 5.03604 11.1712 3.375 10.7494V8.49937C1.61437 8.02125 0.5625 7.41375 0.5625 6.75V10.125C0.5625 11.2894 3.80813 12.285 8.4375 12.7181C8.80313 12.7463 9.18 12.78 9.5625 12.8081V11.6831C9.18 11.655 8.80313 11.6213 8.4375 11.5931Z" fill="#7D0126"/>
<path d="M17.4375 29.6831V33.0581C16.1944 33.1425 14.8725 33.1875 13.5 33.1875C12.1275 33.1875 10.8056 33.1425 9.5625 33.0581V29.6831C10.8056 29.7675 12.1275 29.8125 13.5 29.8125C14.8725 29.8125 16.1944 29.7675 17.4375 29.6831Z" fill="#D9D4C2"/>
<path d="M8.4375 26.2181V29.5931C3.80813 29.16 0.5625 28.1644 0.5625 27V23.625C0.5625 24.7894 3.80813 25.785 8.4375 26.2181Z" fill="#E3DECB"/>
<path d="M8.4375 21.7181C7.578 21.6377 6.76631 21.5376 6.01425 21.4211C5.50958 20.6313 5.07085 19.8012 4.7025 18.9394V18.9337C2.15437 18.4219 0.5625 17.6906 0.5625 16.875V20.25C0.5625 21.2782 3.09712 22.1749 6.87825 22.6687C7.37737 22.7332 7.89675 22.7914 8.43638 22.8431L8.4375 21.7181Z" fill="#E3DECB"/>
<path d="M3.47456 14.1514C3.40931 13.5615 3.37607 12.9685 3.375 12.375V11.8744C1.61437 11.3963 0.5625 10.7887 0.5625 10.125V13.5C0.5625 14.6644 3.80813 15.66 8.4375 16.0931V14.9681C6.76384 14.8304 5.1041 14.5572 3.47456 14.1514Z" fill="#E3DECB"/>
<path d="M3.375 7.37606V5.12606C1.61437 4.64625 0.5625 4.03875 0.5625 3.375V6.75C0.5625 7.91437 3.80813 8.91 8.4375 9.34313V8.21812C6.72949 8.07898 5.03609 7.79731 3.375 7.37606Z" fill="#E3DECB"/>
<path d="M35.1563 19.8168C35.5313 21.5859 35.5313 23.414 35.1563 25.1831L34.3913 24.8512C33.9975 24.5981 33.4463 24.84 33.165 25.3856L31.1063 29.3568C30.9604 29.5824 30.9001 29.8527 30.9362 30.1189C30.9723 30.385 31.1025 30.6295 31.3031 30.8081L31.9219 31.3593C30.283 33.1076 28.1889 34.3641 25.875 34.9875V34.0875C25.8413 33.8206 25.705 33.5774 25.4949 33.4094C25.2849 33.2414 25.0177 33.1618 24.75 33.1875H20.25C19.9823 33.1618 19.7151 33.2414 19.5051 33.4094C19.2951 33.5774 19.1587 33.8206 19.125 34.0875V34.9875C16.8132 34.3661 14.7209 33.1115 13.0838 31.365L13.7081 30.8081C13.9071 30.6284 14.0361 30.3841 14.0721 30.1185C14.1081 29.8528 14.0489 29.583 13.905 29.3568L11.8463 25.3856C11.5594 24.84 11.0138 24.5981 10.62 24.8512L9.84376 25.1831C9.65552 24.3011 9.56124 23.4018 9.56251 22.5C9.56032 21.596 9.65651 20.6944 9.84938 19.8112L10.62 20.1431C11.0138 20.3962 11.5594 20.16 11.8463 19.6087L13.905 15.6431C14.0493 15.417 14.1087 15.1471 14.0726 14.8814C14.0366 14.6156 13.9074 14.3713 13.7081 14.1918L13.0894 13.635C14.7234 11.8874 16.8143 10.6325 19.125 10.0125V10.9125C19.1587 11.1793 19.2951 11.4225 19.5051 11.5905C19.7151 11.7585 19.9823 11.8381 20.25 11.8125H24.75C25.0177 11.8381 25.2849 11.7585 25.4949 11.5905C25.705 11.4225 25.8413 11.1793 25.875 10.9125V10.0125C28.1878 10.6345 30.2804 11.8912 31.9163 13.6406L31.3031 14.1918C31.1025 14.3704 30.9723 14.6149 30.9362 14.881C30.9001 15.1472 30.9604 15.4175 31.1063 15.6431L33.165 19.6087C33.4463 20.16 33.9975 20.3962 34.3913 20.1431L35.1563 19.8168ZM30.9375 22.5C30.9375 20.8312 30.4427 19.1999 29.5155 17.8123C28.5884 16.4248 27.2706 15.3433 25.7289 14.7047C24.1871 14.0661 22.4906 13.899 20.8539 14.2246C19.2172 14.5501 17.7138 15.3537 16.5338 16.5337C15.3538 17.7137 14.5502 19.2172 14.2246 20.8539C13.8991 22.4906 14.0662 24.1871 14.7048 25.7288C15.3434 27.2706 16.4248 28.5884 17.8124 29.5155C19.1999 30.4426 20.8312 30.9375 22.5 30.9375C24.7375 30.9367 26.8832 30.0475 28.4654 28.4653C30.0476 26.8832 30.9368 24.7375 30.9375 22.5Z" fill="#D1013E"/>
<path d="M22.5 14.0625C24.1688 14.0625 25.8001 14.5574 27.1876 15.4845C28.5752 16.4116 29.6566 17.7294 30.2952 19.2711C30.9338 20.8129 31.1009 22.5094 30.7754 24.1461C30.4498 25.7828 29.6462 27.2862 28.4662 28.4662C27.2862 29.6462 25.7828 30.4498 24.1461 30.7754C22.5094 31.1009 20.8129 30.9338 19.2711 30.2952C17.7294 29.6566 16.4116 28.5752 15.4845 27.1876C14.5574 25.8001 14.0625 24.1688 14.0625 22.5C14.0632 20.2625 14.9524 18.1168 16.5346 16.5346C18.1168 14.9524 20.2625 14.0632 22.5 14.0625ZM27 22.5C24.4294 21.7744 22.5 17.4375 22.5 17.4375C22.5 17.4375 20.5706 21.7744 18 22.5C20.5706 23.2256 22.5 27.5625 22.5 27.5625C22.5 27.5625 24.4294 23.2256 27 22.5Z" fill="#FFFCED"/>
<path d="M22.5 17.4375C22.5 17.4375 24.4294 21.7744 27 22.5C24.4294 23.2256 22.5 27.5625 22.5 27.5625C22.5 27.5625 20.5706 23.2256 18 22.5C20.5706 21.7744 22.5 17.4375 22.5 17.4375Z" fill="#D1013E"/>
<path d="M25.875 34.0875V34.9875C23.665 35.5875 21.335 35.5875 19.125 34.9875V34.0875C19.1587 33.8206 19.295 33.5774 19.5051 33.4094C19.7151 33.2414 19.9823 33.1618 20.25 33.1875H24.75C25.0177 33.1618 25.2849 33.2414 25.4949 33.4094C25.705 33.5774 25.8413 33.8206 25.875 34.0875Z" fill="#F7F3E1"/>
<path d="M10.62 24.8512C11.0137 24.5981 11.5594 24.84 11.8462 25.3856L13.905 29.3568C14.0489 29.583 14.1081 29.8528 14.0721 30.1185C14.036 30.3841 13.9071 30.6284 13.7081 30.8081L13.0837 31.365C11.4563 29.6411 10.3353 27.5022 9.84375 25.1831L10.62 24.8512Z" fill="#F7F3E1"/>
<path d="M11.8462 19.6087C11.5594 20.16 11.0137 20.3962 10.62 20.1431L9.84937 19.8112C10.3363 17.4921 11.458 15.3538 13.0894 13.635L13.7081 14.1919C13.9074 14.3713 14.0365 14.6157 14.0726 14.8814C14.1086 15.1472 14.0493 15.4171 13.905 15.6431L11.8462 19.6087Z" fill="#F7F3E1"/>
<path d="M25.875 10.0125V10.9125C25.8413 11.1793 25.705 11.4225 25.4949 11.5905C25.2849 11.7586 25.0177 11.8382 24.75 11.8125H20.25C19.9823 11.8382 19.7151 11.7586 19.5051 11.5905C19.295 11.4225 19.1587 11.1793 19.125 10.9125V10.0125C21.335 9.4125 23.665 9.4125 25.875 10.0125Z" fill="#F7F3E1"/>
<path d="M34.3913 20.1431C33.9975 20.3963 33.4463 20.16 33.165 19.6088L31.1063 15.6431C30.9604 15.4176 30.9001 15.1472 30.9362 14.8811C30.9723 14.6149 31.1025 14.3704 31.3031 14.1919L31.9163 13.6406C33.5456 15.3609 34.667 17.4986 35.1563 19.8169L34.3913 20.1431Z" fill="#F7F3E1"/>
<path d="M33.165 25.3856C33.4463 24.84 33.9975 24.5981 34.3913 24.8512L35.1563 25.1831C34.6666 27.5001 33.5475 29.6372 31.9219 31.3593L31.3031 30.8081C31.1025 30.6295 30.9723 30.385 30.9362 30.1189C30.9001 29.8527 30.9604 29.5824 31.1063 29.3568L33.165 25.3856Z" fill="#F7F3E1"/>
<path d="M22.5 13.5C20.72 13.5 18.9799 14.0278 17.4999 15.0168C16.0198 16.0057 14.8663 17.4113 14.1851 19.0558C13.5039 20.7004 13.3257 22.51 13.6729 24.2558C14.0202 26.0016 14.8774 27.6053 16.136 28.864C17.3947 30.1226 18.9984 30.9798 20.7442 31.3271C22.49 31.6743 24.2996 31.4961 25.9442 30.8149C27.5887 30.1337 28.9943 28.9802 29.9832 27.5001C30.9722 26.0201 31.5 24.28 31.5 22.5C31.5 20.1131 30.5518 17.8239 28.864 16.136C27.1761 14.4482 24.887 13.5 22.5 13.5ZM22.5 30.9375C20.8312 30.9375 19.1999 30.4426 17.8124 29.5155C16.4248 28.5884 15.3434 27.2706 14.7048 25.7289C14.0662 24.1871 13.8991 22.4906 14.2246 20.8539C14.5502 19.2172 15.3538 17.7138 16.5338 16.5338C17.7138 15.3538 19.2172 14.5502 20.8539 14.2246C22.4906 13.8991 24.1871 14.0662 25.7289 14.7048C27.2706 15.3434 28.5884 16.4248 29.5155 17.8124C30.4427 19.1999 30.9375 20.8312 30.9375 22.5C30.9368 24.7375 30.0476 26.8832 28.4654 28.4654C26.8832 30.0476 24.7375 30.9368 22.5 30.9375Z" fill="#A80132"/>
<path d="M22.5 14.0625C20.8312 14.0625 19.1999 14.5574 17.8124 15.4845C16.4248 16.4116 15.3434 17.7294 14.7048 19.2711C14.0662 20.8129 13.8991 22.5094 14.2246 24.1461C14.5502 25.7828 15.3538 27.2862 16.5338 28.4662C17.7138 29.6462 19.2172 30.4498 20.8539 30.7754C22.4906 31.1009 24.1871 30.9338 25.7289 30.2952C27.2706 29.6566 28.5884 28.5752 29.5155 27.1876C30.4426 25.8001 30.9375 24.1688 30.9375 22.5C30.9367 20.2625 30.0476 18.1168 28.4654 16.5346C26.8832 14.9524 24.7375 14.0632 22.5 14.0625ZM22.5 30.375C20.9425 30.375 19.4199 29.9131 18.1249 29.0478C16.8298 28.1825 15.8205 26.9526 15.2245 25.5136C14.6284 24.0747 14.4725 22.4913 14.7763 20.9637C15.0802 19.4361 15.8302 18.0329 16.9315 16.9315C18.0329 15.8302 19.4361 15.0802 20.9637 14.7763C22.4913 14.4725 24.0747 14.6284 25.5136 15.2244C26.9526 15.8205 28.1825 16.8298 29.0478 18.1249C29.9131 19.4199 30.375 20.9425 30.375 22.5C30.375 24.5886 29.5453 26.5916 28.0685 28.0685C26.5916 29.5453 24.5886 30.375 22.5 30.375Z" fill="#E3DECB"/>
<path d="M25.875 34.0875V34.9875C23.665 35.5875 21.335 35.5875 19.125 34.9875V34.0875C19.1587 33.8206 19.295 33.5774 19.5051 33.4094C19.7151 33.2414 19.9823 33.1618 20.25 33.1875H24.75C25.0177 33.1618 25.2849 33.2414 25.4949 33.4094C25.705 33.5774 25.8413 33.8206 25.875 34.0875Z" fill="#E3DECB"/>
<path d="M13.7081 30.8081L13.0837 31.365C11.4563 29.6411 10.3353 27.5022 9.84375 25.1831L10.62 24.8512C11.0137 24.5981 11.5594 24.84 11.8462 25.3856L13.905 29.3568C14.0489 29.583 14.1081 29.8528 14.0721 30.1185C14.036 30.3841 13.9071 30.6284 13.7081 30.8081Z" fill="#E3DECB"/>
<path d="M35.1563 25.1831C34.6666 27.5001 33.5475 29.6372 31.9219 31.3593L31.3031 30.8081C31.1025 30.6295 30.9723 30.385 30.9362 30.1189C30.9001 29.8527 30.9604 29.5824 31.1063 29.3568L33.165 25.3856C33.4463 24.84 33.9975 24.5981 34.3913 24.8512L35.1563 25.1831Z" fill="#E3DECB"/>
<path d="M10.125 22.5C10.1248 21.6724 10.2071 20.8469 10.3708 20.0357L9.84938 19.8107C9.65647 20.694 9.56028 21.5958 9.56251 22.5C9.56125 23.4018 9.65552 24.3012 9.84376 25.1831L10.3703 24.9581C10.207 24.1489 10.1249 23.3255 10.125 22.5Z" fill="#8F0029"/>
<path d="M19.125 10.5946V10.0125C16.8143 10.6325 14.7234 11.8874 13.0894 13.635L13.5034 14.0079C15.0349 12.3836 16.9774 11.2042 19.125 10.5946Z" fill="#8F0029"/>
<path d="M13.5028 30.9937L13.0837 31.3672C14.7211 33.1129 16.8134 34.3668 19.125 34.9875V34.4053C16.9774 33.7963 15.0346 32.6174 13.5028 30.9937Z" fill="#8F0029"/>
<path d="M31.5 14.013L31.9146 13.6406C30.2792 11.8915 28.1872 10.6348 25.875 10.0125V10.5946C28.0244 11.205 29.9682 12.3863 31.5 14.013Z" fill="#8F0029"/>
<path d="M35.1563 19.8169L34.6298 20.0419C34.9564 21.6636 34.9564 23.3342 34.6298 24.9559L35.1557 25.1837C35.5307 23.4146 35.5307 21.5865 35.1557 19.8175L35.1563 19.8169Z" fill="#8F0029"/>
<path d="M25.875 34.4053V34.9875C28.1889 34.3642 30.283 33.1077 31.9219 31.3594L31.5028 30.9859C29.9704 32.6134 28.0255 33.7951 25.875 34.4053Z" fill="#8F0029"/>
<path d="M22.5 34.875C21.3587 34.8748 20.223 34.7167 19.125 34.4053V34.9875C21.335 35.5875 23.665 35.5875 25.875 34.9875V34.4053C24.777 34.7167 23.6413 34.8748 22.5 34.875Z" fill="#C7C3B2"/>
<path d="M10.3703 24.9581L9.84375 25.1831C10.3353 27.5023 11.4563 29.6412 13.0838 31.365L13.5028 30.9915C11.9142 29.3135 10.8288 27.223 10.3703 24.9581Z" fill="#C7C3B2"/>
<path d="M13.5034 14.0062L13.0894 13.6333C11.458 15.3521 10.3363 17.4904 9.84937 19.8096L10.3708 20.0346C10.8303 17.7716 11.9157 15.683 13.5034 14.0062Z" fill="#E3DECB"/>
<path d="M22.5 10.125C23.6413 10.1252 24.777 10.2832 25.875 10.5947V10.0125C23.665 9.4125 21.335 9.4125 19.125 10.0125V10.5947C20.223 10.2832 21.3587 10.1252 22.5 10.125Z" fill="#E3DECB"/>
<path d="M34.6297 20.0413L35.1562 19.8163C34.667 17.498 33.5456 15.3603 31.9163 13.6401L31.5 14.013C33.0868 15.69 34.1711 17.7786 34.6297 20.0413Z" fill="#E3DECB"/>
<path d="M31.5028 30.9858L31.9219 31.3593C33.5475 29.6372 34.6666 27.5001 35.1562 25.1831L34.6303 24.9553C34.1726 27.2185 33.0891 29.3079 31.5028 30.9858Z" fill="#C7C3B2"/>
<path d="M33.1875 23.0625C33.4982 23.0625 33.75 22.8107 33.75 22.5C33.75 22.1893 33.4982 21.9375 33.1875 21.9375C32.8768 21.9375 32.625 22.1893 32.625 22.5C32.625 22.8107 32.8768 23.0625 33.1875 23.0625Z" fill="#FFFCED"/>
<path d="M11.8125 23.0625C12.1232 23.0625 12.375 22.8107 12.375 22.5C12.375 22.1893 12.1232 21.9375 11.8125 21.9375C11.5018 21.9375 11.25 22.1893 11.25 22.5C11.25 22.8107 11.5018 23.0625 11.8125 23.0625Z" fill="#FFFCED"/>
<path d="M16.875 32.0625C17.1857 32.0625 17.4375 31.8107 17.4375 31.5C17.4375 31.1893 17.1857 30.9375 16.875 30.9375C16.5643 30.9375 16.3125 31.1893 16.3125 31.5C16.3125 31.8107 16.5643 32.0625 16.875 32.0625Z" fill="#FFFCED"/>
<path d="M28.125 32.0625C28.4357 32.0625 28.6875 31.8107 28.6875 31.5C28.6875 31.1893 28.4357 30.9375 28.125 30.9375C27.8143 30.9375 27.5625 31.1893 27.5625 31.5C27.5625 31.8107 27.8143 32.0625 28.125 32.0625Z" fill="#FFFCED"/>
<path d="M16.875 14.0625C17.1857 14.0625 17.4375 13.8107 17.4375 13.5C17.4375 13.1893 17.1857 12.9375 16.875 12.9375C16.5643 12.9375 16.3125 13.1893 16.3125 13.5C16.3125 13.8107 16.5643 14.0625 16.875 14.0625Z" fill="#FFFCED"/>
<path d="M28.125 14.0625C28.4357 14.0625 28.6875 13.8107 28.6875 13.5C28.6875 13.1893 28.4357 12.9375 28.125 12.9375C27.8143 12.9375 27.5625 13.1893 27.5625 13.5C27.5625 13.8107 27.8143 14.0625 28.125 14.0625Z" fill="#FFFCED"/>
</svg>
