<svg width="36" height="32" viewBox="0 0 36 32" fill="none" xmlns="http://www.w3.org/2000/svg">
<path d="M32.4484 7.17737H34.0938V20.0716H32.4484V7.17737Z" fill="url(#paint0_linear)"/>
<path d="M32.4484 8.86732L34.0938 10.5127V7.17737H32.4484V8.86732Z" fill="url(#paint1_linear)"/>
<path d="M33.2711 8.98749C34.7782 8.98749 36 7.7657 36 6.25854C36 4.75139 34.7782 3.5296 33.2711 3.5296C31.7639 3.5296 30.5421 4.75139 30.5421 6.25854C30.5421 7.7657 31.7639 8.98749 33.2711 8.98749Z" fill="url(#paint2_linear)"/>
<path d="M33.2711 8.53608C34.5289 8.53608 35.5486 7.5164 35.5486 6.25855C35.5486 5.0007 34.5289 3.98102 33.2711 3.98102C32.0132 3.98102 30.9935 5.0007 30.9935 6.25855C30.9935 7.5164 32.0132 8.53608 33.2711 8.53608Z" fill="url(#paint3_linear)"/>
<path d="M34.4918 3.81738C34.6758 4.18472 34.7796 4.59929 34.7796 5.03813C34.7796 6.54526 33.5578 7.76707 32.0506 7.76707C31.6118 7.76707 31.1972 7.66331 30.8299 7.47928C31.278 8.37356 32.2028 8.98747 33.271 8.98747C34.7782 8.98747 36 7.76566 36 6.25853C36 5.19025 35.386 4.26541 34.4918 3.81738Z" fill="url(#paint4_linear)"/>
<path d="M32.9693 22.4207H31.7391V18.0034H32.9693C33.728 18.0034 34.3431 18.6185 34.3431 19.3773V21.0469C34.3431 21.8056 33.728 22.4207 32.9693 22.4207Z" fill="url(#paint5_linear)"/>
<path d="M32.2265 18.0034H31.7391V22.4207H32.9693C33.728 22.4207 34.3431 21.8056 34.3431 21.0469V20.1201L32.2265 18.0034Z" fill="url(#paint6_linear)"/>
<path d="M30.9512 23.5575H28.2908V16.8667H30.9512C31.6602 16.8667 32.2351 17.4415 32.2351 18.1506V22.2736C32.2351 22.9827 31.6603 23.5575 30.9512 23.5575Z" fill="url(#paint7_linear)"/>
<path d="M29.6384 16.8876L29.6692 16.8667H28.2908V23.5575H30.9512C31.6603 23.5575 32.2352 22.9827 32.2352 22.2736V19.4843L29.6384 16.8876Z" fill="url(#paint8_linear)"/>
<path d="M18.3876 9.50074H11.253V7.09692C11.253 5.12673 12.8501 3.5296 14.8203 3.5296C16.7905 3.5296 18.3877 5.12673 18.3877 7.09692V9.50074H18.3876Z" fill="url(#paint9_linear)"/>
<path d="M16.4533 3.92516C15.7904 3.5833 15.0131 3.5833 14.3502 3.92516C13.2015 4.51753 12.4159 5.71527 12.4159 7.0969V9.50071H18.3877V7.0969C18.3876 5.71527 17.6021 4.5176 16.4533 3.92516Z" fill="url(#paint10_linear)"/>
<path d="M14.8203 3.5296C14.572 3.5296 14.3296 3.55508 14.0956 3.60344C15.7182 3.93831 16.9382 5.37513 16.9382 7.09699V9.5008H18.3876V7.09699C18.3876 5.12673 16.7905 3.5296 14.8203 3.5296Z" fill="url(#paint11_linear)"/>
<path d="M14.8203 7.39404C16.1962 7.39404 17.3117 6.5879 17.3117 5.59347C17.3117 4.59905 16.1962 3.79291 14.8203 3.79291C13.4443 3.79291 12.3289 4.59905 12.3289 5.59347C12.3289 6.5879 13.4443 7.39404 14.8203 7.39404Z" fill="url(#paint12_linear)"/>
<path d="M19.5505 10.2137H10.09V8.27053C10.09 7.66544 10.5805 7.17493 11.1856 7.17493H18.4549C19.06 7.17493 19.5505 7.66544 19.5505 8.27053V10.2137Z" fill="url(#paint13_linear)"/>
<path d="M19.5506 10.2137V8.27052C19.5506 8.04315 19.4813 7.83202 19.3628 7.65696C19.2187 7.58722 19.0577 7.54706 18.8868 7.54706H11.6175C11.0124 7.54706 10.5219 8.03758 10.5219 8.64266V10.2137H19.5506Z" fill="url(#paint14_linear)"/>
<path d="M26.4466 31.5588H3.19396C2.17537 31.5588 1.3497 30.7332 1.3497 29.7146V10.7096C1.3497 9.69103 2.17537 8.86536 3.19396 8.86536H26.4466C27.4651 8.86536 28.2908 9.69103 28.2908 10.7096V29.7146C28.2908 30.7331 27.4651 31.5588 26.4466 31.5588Z" fill="url(#paint15_linear)"/>
<path d="M20.0332 11.8965H9.60732C9.12803 11.8965 8.73944 11.5079 8.73944 11.0286C8.73944 10.5494 9.12803 10.1608 9.60732 10.1608H20.0332C20.5125 10.1608 20.9011 10.5494 20.9011 11.0286C20.9011 11.508 20.5125 11.8965 20.0332 11.8965Z" fill="url(#paint16_linear)"/>
<path d="M3.97616 9.64758C2.95764 9.64758 2.1319 10.4733 2.1319 11.4918V30.4968C2.1319 30.8046 2.20771 31.0946 2.34105 31.3497C2.59616 31.4831 2.88613 31.5589 3.19397 31.5589H26.4466C27.4651 31.5589 28.2908 30.7332 28.2908 29.7146V10.7097C28.2908 10.4018 28.215 10.1119 28.0817 9.85674C27.8266 9.72339 27.5366 9.64758 27.2288 9.64758H3.97616Z" fill="url(#paint17_linear)"/>
<path d="M1.35007 26.2073V27.1635L5.74567 31.5591H26.4469C27.4648 31.5591 28.2904 30.7335 28.2904 29.7148V26.2073H1.35007Z" fill="url(#paint18_linear)"/>
<path d="M0 14.6571V25.7672C0 26.4584 0.508729 27.0454 1.19329 27.1415C10.2582 28.4139 19.3824 28.4139 28.4473 27.1415C29.1318 27.0454 29.6406 26.4584 29.6406 25.7672C29.6406 22.0638 29.6406 18.3605 29.6406 14.6571C29.6406 13.9659 29.1319 13.3789 28.4473 13.2828C19.3825 12.0104 10.2582 12.0104 1.19329 13.2828C0.508729 13.3789 0 13.9659 0 14.6571H0Z" fill="url(#paint19_linear)"/>
<path d="M1.82617 13.8102C1.14167 13.9063 0.632874 14.4934 0.632874 15.1846V26.2946C0.632874 26.5714 0.715462 26.8307 0.857203 27.0492C0.963015 27.093 1.07525 27.125 1.1932 27.1415C10.2581 28.4139 19.3823 28.4139 28.4473 27.1415C29.1317 27.0455 29.6405 26.4584 29.6405 25.7672C29.6405 22.0638 29.6405 18.3605 29.6405 14.6571C29.6405 14.3804 29.558 14.1211 29.4162 13.9025C29.3104 13.8588 29.1982 13.8267 29.0802 13.8102C20.0153 12.5378 10.891 12.5378 1.82617 13.8102Z" fill="url(#paint20_linear)"/>
<path d="M9.17317 15.3185V25.1056C9.17317 25.3538 8.93119 25.5513 8.64496 25.5354C6.6267 25.4229 4.60893 25.2553 2.60338 25.0343C2.35526 25.007 2.16962 24.8236 2.16962 24.6072V15.817C2.16962 15.6006 2.35526 15.4172 2.60338 15.3899C4.60893 15.1689 6.6267 15.0014 8.64496 14.8888C8.93119 14.8729 9.17317 15.0704 9.17317 15.3185Z" fill="url(#paint21_linear)"/>
<path d="M18.3221 15.1884V25.2358C18.3221 25.4677 18.1095 25.6587 17.8416 25.6661C16.8327 25.6942 15.8252 25.708 14.8211 25.708C14.8203 25.708 14.8203 25.708 14.8203 25.708C13.8156 25.708 12.808 25.6942 11.7991 25.6661C11.5311 25.6586 11.3186 25.4677 11.3186 25.2358V15.1884C11.3186 14.9565 11.5312 14.7655 11.7991 14.758C12.8081 14.73 13.8157 14.7162 14.8203 14.7162C15.8251 14.7162 16.8327 14.73 17.8416 14.758C18.1095 14.7655 18.3221 14.9565 18.3221 15.1884Z" fill="url(#paint22_linear)"/>
<path d="M27.471 15.8171V24.6072C27.471 24.8236 27.2853 25.007 27.0372 25.0343C25.0316 25.2553 23.0139 25.4229 20.9956 25.5354C20.7095 25.5513 20.4674 25.3538 20.4674 25.1056V15.3186C20.4674 15.0705 20.7094 14.8729 20.9956 14.8888C23.0139 15.0014 25.0316 15.1689 27.0372 15.3899C27.2853 15.4173 27.471 15.6007 27.471 15.8171Z" fill="url(#paint23_linear)"/>
<path d="M9.17317 15.3187V17.6103C6.83635 17.7452 4.50108 17.965 2.16962 18.269V15.8173C2.16962 15.6006 2.35498 15.4175 2.6031 15.3899C4.60901 15.1693 6.62649 15.0016 8.64468 14.889C8.93119 14.8729 9.17317 15.0705 9.17317 15.3187Z" fill="url(#paint24_linear)"/>
<path d="M18.3221 15.1884V17.5099C15.9883 17.4256 13.6523 17.4256 11.3185 17.5099V15.1884C11.3185 14.9563 11.5314 14.7657 11.7988 14.758C12.8082 14.7296 13.8154 14.7158 14.8203 14.7158C15.8252 14.7158 16.8323 14.7296 17.8418 14.758C18.1091 14.7657 18.3221 14.9563 18.3221 15.1884Z" fill="url(#paint25_linear)"/>
<path d="M27.471 15.8173V18.2689C25.1395 17.9649 22.8042 17.745 20.4674 17.6103V15.3186C20.4674 15.0705 20.7095 14.8729 20.9959 14.889C23.0141 15.0016 25.0315 15.1693 27.0375 15.3899C27.2856 15.4175 27.471 15.6006 27.471 15.8173Z" fill="url(#paint26_linear)"/>
<path d="M9.17317 25.1057V17.5217L8.23343 16.5819C8.19341 16.527 8.13637 16.4743 8.06099 16.424C7.90026 16.3169 7.73769 16.2633 7.57343 16.2633H3.76936C3.5835 16.2633 3.41572 16.3169 3.26572 16.424C3.11572 16.5312 3.04068 16.6491 3.04068 16.7776V18.4386C3.04068 18.5648 3.10343 18.674 3.22852 18.7667L5.27649 20.8155L3.99433 23.0357C3.94428 23.1287 3.91936 23.2216 3.91936 23.3144C3.91936 23.533 4.01423 23.7206 4.20179 23.8778L5.65209 25.3281C6.64866 25.4105 7.64677 25.4797 8.64496 25.5353C8.9312 25.5514 9.17317 25.3538 9.17317 25.1057Z" fill="url(#paint27_linear)"/>
<path d="M3.04068 18.4386V16.7776C3.04068 16.6491 3.11564 16.5311 3.26572 16.424C3.41579 16.3169 3.5835 16.2633 3.76936 16.2633H7.5735C7.73776 16.2633 7.90033 16.3169 8.06106 16.424C8.22186 16.5312 8.30219 16.6491 8.30219 16.7776V18.1171C8.30219 18.3673 8.18783 18.7065 7.95927 19.1351L5.45169 23.9358C5.37299 24.0858 5.21593 24.1609 4.98016 24.1609C4.70861 24.1609 4.46402 24.0788 4.24619 23.9144C4.02814 23.7501 3.91936 23.5501 3.91936 23.3143C3.91936 23.2215 3.94428 23.1286 3.99433 23.0357L6.63045 18.4707V17.7206H4.71235V18.4386C4.71235 18.5816 4.62659 18.703 4.45513 18.8029C4.28367 18.903 4.08708 18.9529 3.86579 18.9529C3.63708 18.9529 3.44254 18.903 3.28174 18.8029C3.12101 18.703 3.04068 18.5816 3.04068 18.4386Z" fill="url(#paint28_linear)"/>
<path d="M4.98022 23.9145C4.76154 23.9145 4.57003 23.8502 4.39462 23.7178C4.18942 23.5632 4.16577 23.4136 4.16577 23.3144C4.16577 23.2633 4.18017 23.2113 4.20975 23.1554L6.87685 18.5368V17.4743H4.46591V18.4386C4.46591 18.487 4.42052 18.5379 4.33102 18.5901C4.19669 18.6685 4.04457 18.7066 3.8657 18.7066C3.68217 18.7066 3.53379 18.6697 3.41196 18.5938C3.28702 18.5161 3.28702 18.4599 3.28702 18.4386V16.7776C3.28702 16.7201 3.36332 16.657 3.40885 16.6245C3.51706 16.5472 3.63502 16.5096 3.76935 16.5096H7.57349C7.68911 16.5096 7.80389 16.5487 7.92438 16.629C8.00669 16.6839 8.05582 16.7394 8.05582 16.7776V18.1171C8.05582 18.26 8.00132 18.5325 7.74191 19.0192L5.23342 23.8218C5.22142 23.8445 5.18471 23.9145 4.98022 23.9145Z" fill="url(#paint29_linear)"/>
<path d="M18.3221 17.5215V25.2358C18.3221 25.4679 18.1091 25.6585 17.8419 25.6662C16.9527 25.6915 16.065 25.7046 15.1803 25.7076L13.359 23.8862L13.3506 23.8778C13.1629 23.7208 13.0679 23.5331 13.0679 23.3141C13.0679 23.2214 13.0932 23.1287 13.143 23.036L14.4251 20.8156L12.3771 18.7668C12.2522 18.6741 12.1895 18.5645 12.1895 18.4382V16.7777C12.1895 16.649 12.2645 16.531 12.4146 16.4238C12.5648 16.3166 12.7325 16.2629 12.9186 16.2629H16.7222C16.8869 16.2629 17.0492 16.3166 17.2101 16.4238C17.2852 16.4744 17.3426 16.5272 17.3824 16.5816L18.3221 17.5215Z" fill="url(#paint30_linear)"/>
<path d="M18.3221 17.5214V25.2357C18.3221 25.4678 18.1091 25.6584 17.8419 25.6661C16.9527 25.6914 16.065 25.7045 15.1804 25.7075L13.359 23.8861C13.3705 23.8953 13.3827 23.9052 13.395 23.9145C13.6132 24.0792 13.8576 24.1611 14.1295 24.1611C14.3647 24.1611 14.5216 24.0861 14.6006 23.9359L17.1082 19.1352C17.3365 18.7063 17.4513 18.367 17.4513 18.1173V16.7777C17.4513 16.7103 17.4291 16.6452 17.3839 16.5831L18.3221 17.5214Z" fill="url(#paint31_linear)"/>
<path d="M12.1895 18.4386V16.7776C12.1895 16.6491 12.2645 16.5311 12.4145 16.424C12.5646 16.3169 12.7323 16.2633 12.9182 16.2633H16.7223C16.8866 16.2633 17.0492 16.3169 17.2099 16.424C17.3706 16.5312 17.451 16.6491 17.451 16.7776V18.1171C17.451 18.3673 17.3367 18.7065 17.1081 19.1351L14.6006 23.9358C14.5219 24.0858 14.3648 24.1609 14.1291 24.1609C13.8574 24.1609 13.6129 24.0788 13.395 23.9144C13.177 23.7501 13.0682 23.5501 13.0682 23.3143C13.0682 23.2215 13.0931 23.1286 13.1432 23.0357L15.7793 18.4707V17.7206H13.8611V18.4386C13.8611 18.5816 13.7753 18.703 13.6039 18.8029C13.4324 18.903 13.2358 18.9529 13.0145 18.9529C12.7858 18.9529 12.5913 18.903 12.4305 18.8029C12.2698 18.703 12.1895 18.5816 12.1895 18.4386Z" fill="url(#paint32_linear)"/>
<path d="M14.1291 23.9145C13.9104 23.9145 13.7189 23.8502 13.5435 23.7178C13.3383 23.5632 13.3146 23.4136 13.3146 23.3144C13.3146 23.2633 13.329 23.2113 13.3585 23.1554L16.0256 18.5368V17.4743H13.6148V18.4386C13.6148 18.487 13.5694 18.5379 13.4799 18.5901C13.3456 18.6685 13.1934 18.7066 13.0146 18.7066C12.831 18.7066 12.6827 18.6697 12.5608 18.5938C12.4359 18.5161 12.4359 18.4599 12.4359 18.4386V16.7776C12.4359 16.7201 12.5122 16.657 12.5577 16.6245C12.6659 16.5472 12.7839 16.5096 12.9182 16.5096H16.7224C16.838 16.5096 16.9528 16.5487 17.0732 16.629C17.1556 16.6839 17.2047 16.7394 17.2047 16.7776V18.1171C17.2047 18.26 17.1502 18.5325 16.8908 19.0192L14.3823 23.8218C14.3704 23.8445 14.3336 23.9145 14.1291 23.9145Z" fill="url(#paint33_linear)"/>
<path d="M27.4709 17.5215V24.6069C27.4709 24.8237 27.2856 25.0068 27.0375 25.0344C26.0173 25.1469 24.9925 25.245 23.9677 25.33C23.9669 25.33 23.9669 25.33 23.9661 25.33C23.9607 25.3292 23.9554 25.3292 23.95 25.3284L22.4994 23.8778C22.3117 23.7208 22.2167 23.5331 22.2167 23.3141C22.2167 23.2214 22.242 23.1287 22.2918 23.036L23.5739 20.8156L21.5259 18.7668C21.401 18.6741 21.3383 18.5645 21.3383 18.4382V16.7777C21.3383 16.649 21.4133 16.531 21.5634 16.4238C21.7136 16.3166 21.8813 16.2629 22.0674 16.2629H25.871C26.0357 16.2629 26.198 16.3166 26.3589 16.4238C26.4339 16.4744 26.4914 16.5272 26.5312 16.5816L27.4709 17.5215Z" fill="url(#paint34_linear)"/>
<path d="M27.471 17.5214V24.6069C27.471 24.8237 27.2856 25.0067 27.0375 25.0343C26.0165 25.1469 24.9917 25.2449 23.9662 25.3299C23.9608 25.3292 23.9555 25.3292 23.9501 25.3284L22.5078 23.8861C22.5193 23.8953 22.5316 23.9053 22.5438 23.9145C22.7621 24.0792 23.0065 24.1611 23.2784 24.1611C23.5135 24.1611 23.6705 24.0861 23.7494 23.936L26.2571 19.1352C26.4853 18.7063 26.6002 18.367 26.6002 18.1173V16.7777C26.6002 16.7103 26.578 16.6452 26.5328 16.5831L27.471 17.5214Z" fill="url(#paint35_linear)"/>
<path d="M21.3384 18.4386V16.7776C21.3384 16.6491 21.4134 16.5311 21.5634 16.424C21.7135 16.3169 21.8812 16.2633 22.0671 16.2633H25.8712C26.0355 16.2633 26.1981 16.3169 26.3588 16.424C26.5195 16.5312 26.5999 16.6491 26.5999 16.7776V18.1171C26.5999 18.3673 26.4856 18.7065 26.257 19.1351L23.7495 23.9358C23.6708 24.0858 23.5137 24.1609 23.278 24.1609C23.0063 24.1609 22.7618 24.0788 22.544 23.9144C22.3259 23.7501 22.2172 23.5501 22.2172 23.3143C22.2172 23.2215 22.2421 23.1286 22.2921 23.0357L24.9283 18.4707V17.7206H23.0101V18.4386C23.0101 18.5816 22.9243 18.703 22.7529 18.8029C22.5814 18.903 22.3848 18.9529 22.1635 18.9529C21.9348 18.9529 21.7403 18.903 21.5795 18.8029C21.4188 18.703 21.3384 18.5816 21.3384 18.4386Z" fill="url(#paint36_linear)"/>
<path d="M23.278 23.9145C23.0593 23.9145 22.8678 23.8502 22.6924 23.7178C22.4872 23.5632 22.4635 23.4136 22.4635 23.3144C22.4635 23.2633 22.4779 23.2113 22.5075 23.1554L25.1746 18.5368V17.4743H22.7637V18.4386C22.7637 18.487 22.7183 18.5379 22.6288 18.5901C22.4946 18.6685 22.3424 18.7066 22.1635 18.7066C21.98 18.7066 21.8316 18.6697 21.7098 18.5938C21.5848 18.5161 21.5848 18.4599 21.5848 18.4386V16.7776C21.5848 16.7201 21.6611 16.657 21.7067 16.6245C21.8149 16.5472 21.9328 16.5096 22.0672 16.5096H25.8713C25.9869 16.5096 26.1017 16.5487 26.2221 16.629C26.3044 16.6839 26.3536 16.7394 26.3536 16.7776V18.1171C26.3536 18.26 26.2991 18.5325 26.0397 19.0192L23.5312 23.8218C23.5192 23.8445 23.4825 23.9145 23.278 23.9145Z" fill="url(#paint37_linear)"/>
<path d="M9.17316 17.5214V25.1055C9.17316 25.3536 8.93111 25.5513 8.64466 25.5352C7.64669 25.4801 6.64871 25.4103 5.65221 25.3284L4.21002 23.8861C4.22153 23.8953 4.23374 23.9052 4.24602 23.9145C4.46428 24.0792 4.70866 24.1611 4.98056 24.1611C5.21569 24.1611 5.37275 24.0861 5.4516 23.9359L7.95925 19.1352C8.18746 18.7063 8.30238 18.367 8.30238 18.1173V16.7777C8.30238 16.7103 8.28015 16.6452 8.23497 16.5831L9.17316 17.5214Z" fill="url(#paint38_linear)"/>
<path d="M15.3719 2.14111V0.992503C15.3719 0.687845 15.125 0.440857 14.8203 0.440857C14.5156 0.440857 14.2686 0.687845 14.2686 0.992503V2.14111C14.2686 2.44584 14.5156 2.69276 14.8203 2.69276C15.125 2.69276 15.3719 2.44584 15.3719 2.14111Z" fill="url(#paint39_linear)"/>
<path d="M19.2644 6.37057H20.413C20.7177 6.37057 20.9647 6.12358 20.9647 5.81892C20.9647 5.51426 20.7177 5.26727 20.413 5.26727H19.2644C18.9598 5.26727 18.7128 5.51426 18.7128 5.81892C18.7127 6.12358 18.9598 6.37057 19.2644 6.37057Z" fill="url(#paint40_linear)"/>
<path d="M9.22752 6.37057H10.3762C10.6809 6.37057 10.9278 6.12358 10.9278 5.81892C10.9278 5.51426 10.6809 5.26727 10.3762 5.26727H9.22752C8.92286 5.26727 8.67587 5.51426 8.67587 5.81892C8.6758 6.12358 8.92279 6.37057 9.22752 6.37057Z" fill="url(#paint41_linear)"/>
<path d="M18.2619 3.61731L19.0741 2.80512C19.2896 2.58969 19.2896 2.24042 19.0741 2.02498C18.8587 1.80954 18.5094 1.80954 18.2939 2.02498L17.4817 2.83717C17.2663 3.0526 17.2663 3.40187 17.4817 3.61738C17.6972 3.83274 18.0465 3.83274 18.2619 3.61731Z" fill="url(#paint42_linear)"/>
<path d="M10.5664 2.80501L11.3786 3.6172C11.594 3.83263 11.9433 3.83263 12.1587 3.6172C12.3742 3.40176 12.3742 3.05242 12.1587 2.83698L11.3465 2.0248C11.1311 1.80936 10.7818 1.80936 10.5663 2.0248C10.351 2.2403 10.3509 2.58957 10.5664 2.80501Z" fill="url(#paint43_linear)"/>
<defs>
<linearGradient id="paint0_linear" x1="32.6604" y1="13.6245" x2="34.0493" y2="13.6245" gradientUnits="userSpaceOnUse">
<stop stop-color="#E4F2FF"/>
<stop offset="1" stop-color="#B2CBFF"/>
</linearGradient>
<linearGradient id="paint1_linear" x1="35.4605" y1="10.2264" x2="31.8634" y2="6.60522" gradientUnits="userSpaceOnUse">
<stop stop-color="#3F3CED" stop-opacity="0"/>
<stop offset="0.2796" stop-color="#3C3DE4" stop-opacity="0.28"/>
<stop offset="0.7305" stop-color="#3541CC" stop-opacity="0.731"/>
<stop offset="1" stop-color="#2F43BB"/>
</linearGradient>
<linearGradient id="paint2_linear" x1="32.25" y1="5.23748" x2="35.7844" y2="8.772" gradientUnits="userSpaceOnUse">
<stop stop-color="#91F27F"/>
<stop offset="1" stop-color="#00B302"/>
</linearGradient>
<linearGradient id="paint3_linear" x1="33.5429" y1="6.53039" x2="31.0733" y2="4.06078" gradientUnits="userSpaceOnUse">
<stop stop-color="#91F27F" stop-opacity="0"/>
<stop offset="1" stop-color="#FFED82"/>
</linearGradient>
<linearGradient id="paint4_linear" x1="33.1674" y1="7.37587" x2="40.4439" y2="1.46537" gradientUnits="userSpaceOnUse">
<stop stop-color="#005A01" stop-opacity="0"/>
<stop offset="1" stop-color="#005A01"/>
</linearGradient>
<linearGradient id="paint5_linear" x1="33.0411" y1="19.3722" x2="33.0411" y2="22.8072" gradientUnits="userSpaceOnUse">
<stop stop-color="#9B62CD"/>
<stop offset="0.3003" stop-color="#985DCB"/>
<stop offset="0.6716" stop-color="#8F4EC7"/>
<stop offset="1" stop-color="#833AC1"/>
</linearGradient>
<linearGradient id="paint6_linear" x1="33.6658" y1="21.1017" x2="30.5537" y2="19.4567" gradientUnits="userSpaceOnUse">
<stop stop-color="#833AC1" stop-opacity="0"/>
<stop offset="1" stop-color="#6E566E"/>
</linearGradient>
<linearGradient id="paint7_linear" x1="30.263" y1="18.94" x2="30.263" y2="24.1429" gradientUnits="userSpaceOnUse">
<stop stop-color="#FF7044"/>
<stop offset="1" stop-color="#F82814"/>
</linearGradient>
<linearGradient id="paint8_linear" x1="31.4798" y1="21.5334" x2="26.5418" y2="18.9234" gradientUnits="userSpaceOnUse">
<stop stop-color="#F82814" stop-opacity="0"/>
<stop offset="1" stop-color="#C0272D"/>
</linearGradient>
<linearGradient id="paint9_linear" x1="14.8203" y1="4.49991" x2="14.8203" y2="10.8739" gradientUnits="userSpaceOnUse">
<stop stop-color="#FF7044"/>
<stop offset="1" stop-color="#F82814"/>
</linearGradient>
<linearGradient id="paint10_linear" x1="14.9231" y1="7.05913" x2="12.5631" y2="3.78716" gradientUnits="userSpaceOnUse">
<stop stop-color="#FF7044" stop-opacity="0"/>
<stop offset="1" stop-color="#FFA325"/>
</linearGradient>
<linearGradient id="paint11_linear" x1="16.2416" y1="3.63478" x2="16.2416" y2="10.0088" gradientUnits="userSpaceOnUse">
<stop stop-color="#F82814" stop-opacity="0"/>
<stop offset="1" stop-color="#C0272D"/>
</linearGradient>
<linearGradient id="paint12_linear" x1="14.8203" y1="5.76303" x2="14.8203" y2="-0.069257" gradientUnits="userSpaceOnUse">
<stop stop-color="white" stop-opacity="0"/>
<stop offset="1" stop-color="white"/>
</linearGradient>
<linearGradient id="paint13_linear" x1="14.8203" y1="7.66876" x2="14.8203" y2="10.9125" gradientUnits="userSpaceOnUse">
<stop stop-color="#8A7889"/>
<stop offset="1" stop-color="#6E566E"/>
</linearGradient>
<linearGradient id="paint14_linear" x1="15.7701" y1="10.1243" x2="12.5818" y2="5.54475" gradientUnits="userSpaceOnUse">
<stop stop-color="#8A7889" stop-opacity="0"/>
<stop offset="1" stop-color="#9D8B91"/>
</linearGradient>
<linearGradient id="paint15_linear" x1="7.66092" y1="13.0056" x2="21.9466" y2="27.3853" gradientUnits="userSpaceOnUse">
<stop stop-color="#9B62CD"/>
<stop offset="0.3003" stop-color="#985DCB"/>
<stop offset="0.6716" stop-color="#8F4EC7"/>
<stop offset="1" stop-color="#833AC1"/>
</linearGradient>
<linearGradient id="paint16_linear" x1="14.8203" y1="11.6046" x2="14.8203" y2="9.67865" gradientUnits="userSpaceOnUse">
<stop stop-color="#9B62CD"/>
<stop offset="0.1454" stop-color="#965ACB"/>
<stop offset="0.672" stop-color="#8843C4"/>
<stop offset="1" stop-color="#833AC1"/>
</linearGradient>
<linearGradient id="paint17_linear" x1="21.4524" y1="24.885" x2="-6.03544" y2="6.02612" gradientUnits="userSpaceOnUse">
<stop stop-color="#9B62CD" stop-opacity="0"/>
<stop offset="1" stop-color="#FF75C8"/>
</linearGradient>
<linearGradient id="paint18_linear" x1="14.9586" y1="32.7689" x2="14.7836" y2="25.0743" gradientUnits="userSpaceOnUse">
<stop stop-color="#833AC1" stop-opacity="0"/>
<stop offset="1" stop-color="#6E566E"/>
</linearGradient>
<linearGradient id="paint19_linear" x1="14.3344" y1="16.8913" x2="16.1502" y2="29.3002" gradientUnits="userSpaceOnUse">
<stop stop-color="#FFD945"/>
<stop offset="0.3043" stop-color="#FFCD3E"/>
<stop offset="0.8558" stop-color="#FFAD2B"/>
<stop offset="1" stop-color="#FFA325"/>
</linearGradient>
<linearGradient id="paint20_linear" x1="17.0886" y1="23.8242" x2="7.81959" y2="7.92365" gradientUnits="userSpaceOnUse">
<stop stop-color="#FFD945" stop-opacity="0"/>
<stop offset="1" stop-color="#FBED21"/>
</linearGradient>
<linearGradient id="paint21_linear" x1="5.67143" y1="17.9927" x2="5.67143" y2="24.2383" gradientUnits="userSpaceOnUse">
<stop stop-color="white"/>
<stop offset="1" stop-color="#E4F2FF"/>
</linearGradient>
<linearGradient id="paint22_linear" x1="14.8203" y1="17.9928" x2="14.8203" y2="24.2383" gradientUnits="userSpaceOnUse">
<stop stop-color="white"/>
<stop offset="1" stop-color="#E4F2FF"/>
</linearGradient>
<linearGradient id="paint23_linear" x1="23.9691" y1="17.9928" x2="23.9691" y2="24.2384" gradientUnits="userSpaceOnUse">
<stop stop-color="white"/>
<stop offset="1" stop-color="#E4F2FF"/>
</linearGradient>
<linearGradient id="paint24_linear" x1="5.67143" y1="15.5891" x2="5.67143" y2="13.6208" gradientUnits="userSpaceOnUse">
<stop stop-color="#3F3CED" stop-opacity="0"/>
<stop offset="0.2796" stop-color="#3C3DE4" stop-opacity="0.28"/>
<stop offset="0.7305" stop-color="#3541CC" stop-opacity="0.731"/>
<stop offset="1" stop-color="#2F43BB"/>
</linearGradient>
<linearGradient id="paint25_linear" x1="14.8203" y1="15.5891" x2="14.8203" y2="13.6207" gradientUnits="userSpaceOnUse">
<stop stop-color="#3F3CED" stop-opacity="0"/>
<stop offset="0.2796" stop-color="#3C3DE4" stop-opacity="0.28"/>
<stop offset="0.7305" stop-color="#3541CC" stop-opacity="0.731"/>
<stop offset="1" stop-color="#2F43BB"/>
</linearGradient>
<linearGradient id="paint26_linear" x1="23.9691" y1="15.5891" x2="23.9691" y2="13.6208" gradientUnits="userSpaceOnUse">
<stop stop-color="#3F3CED" stop-opacity="0"/>
<stop offset="0.2796" stop-color="#3C3DE4" stop-opacity="0.28"/>
<stop offset="0.7305" stop-color="#3541CC" stop-opacity="0.731"/>
<stop offset="1" stop-color="#2F43BB"/>
</linearGradient>
<linearGradient id="paint27_linear" x1="5.96261" y1="19.9613" x2="2.37327" y2="16.2872" gradientUnits="userSpaceOnUse">
<stop stop-color="#3F3CED" stop-opacity="0"/>
<stop offset="0.2796" stop-color="#3C3DE4" stop-opacity="0.28"/>
<stop offset="0.7305" stop-color="#3541CC" stop-opacity="0.731"/>
<stop offset="1" stop-color="#2F43BB"/>
</linearGradient>
<linearGradient id="paint28_linear" x1="3.04068" y1="20.2122" x2="8.30219" y2="20.2122" gradientUnits="userSpaceOnUse">
<stop stop-color="#FFD945"/>
<stop offset="0.3043" stop-color="#FFCD3E"/>
<stop offset="0.8558" stop-color="#FFAD2B"/>
<stop offset="1" stop-color="#FFA325"/>
</linearGradient>
<linearGradient id="paint29_linear" x1="3.28702" y1="20.2121" x2="8.05582" y2="20.2121" gradientUnits="userSpaceOnUse">
<stop stop-color="#FF7044"/>
<stop offset="1" stop-color="#F82814"/>
</linearGradient>
<linearGradient id="paint30_linear" x1="15.1389" y1="19.9894" x2="11.5176" y2="16.2826" gradientUnits="userSpaceOnUse">
<stop stop-color="#3F3CED" stop-opacity="0"/>
<stop offset="0.2796" stop-color="#3C3DE4" stop-opacity="0.28"/>
<stop offset="0.7305" stop-color="#3541CC" stop-opacity="0.731"/>
<stop offset="1" stop-color="#2F43BB"/>
</linearGradient>
<linearGradient id="paint31_linear" x1="17.0878" y1="21.6499" x2="12.8889" y2="19.0201" gradientUnits="userSpaceOnUse">
<stop stop-color="#3F3CED" stop-opacity="0"/>
<stop offset="0.2796" stop-color="#3C3DE4" stop-opacity="0.28"/>
<stop offset="0.7305" stop-color="#3541CC" stop-opacity="0.731"/>
<stop offset="1" stop-color="#2F43BB"/>
</linearGradient>
<linearGradient id="paint32_linear" x1="12.1895" y1="20.2122" x2="17.451" y2="20.2122" gradientUnits="userSpaceOnUse">
<stop stop-color="#FFD945"/>
<stop offset="0.3043" stop-color="#FFCD3E"/>
<stop offset="0.8558" stop-color="#FFAD2B"/>
<stop offset="1" stop-color="#FFA325"/>
</linearGradient>
<linearGradient id="paint33_linear" x1="12.4359" y1="20.2121" x2="17.2047" y2="20.2121" gradientUnits="userSpaceOnUse">
<stop stop-color="#FF7044"/>
<stop offset="1" stop-color="#F82814"/>
</linearGradient>
<linearGradient id="paint34_linear" x1="24.1722" y1="19.7298" x2="20.5914" y2="15.402" gradientUnits="userSpaceOnUse">
<stop stop-color="#3F3CED" stop-opacity="0"/>
<stop offset="0.2796" stop-color="#3C3DE4" stop-opacity="0.28"/>
<stop offset="0.7305" stop-color="#3541CC" stop-opacity="0.731"/>
<stop offset="1" stop-color="#2F43BB"/>
</linearGradient>
<linearGradient id="paint35_linear" x1="26.142" y1="21.5198" x2="22.2003" y2="19.051" gradientUnits="userSpaceOnUse">
<stop stop-color="#3F3CED" stop-opacity="0"/>
<stop offset="0.2796" stop-color="#3C3DE4" stop-opacity="0.28"/>
<stop offset="0.7305" stop-color="#3541CC" stop-opacity="0.731"/>
<stop offset="1" stop-color="#2F43BB"/>
</linearGradient>
<linearGradient id="paint36_linear" x1="21.3384" y1="20.2122" x2="26.5999" y2="20.2122" gradientUnits="userSpaceOnUse">
<stop stop-color="#FFD945"/>
<stop offset="0.3043" stop-color="#FFCD3E"/>
<stop offset="0.8558" stop-color="#FFAD2B"/>
<stop offset="1" stop-color="#FFA325"/>
</linearGradient>
<linearGradient id="paint37_linear" x1="21.5848" y1="20.2121" x2="26.3536" y2="20.2121" gradientUnits="userSpaceOnUse">
<stop stop-color="#FF7044"/>
<stop offset="1" stop-color="#F82814"/>
</linearGradient>
<linearGradient id="paint38_linear" x1="7.94457" y1="21.5827" x2="3.79892" y2="18.9862" gradientUnits="userSpaceOnUse">
<stop stop-color="#3F3CED" stop-opacity="0"/>
<stop offset="0.2796" stop-color="#3C3DE4" stop-opacity="0.28"/>
<stop offset="0.7305" stop-color="#3541CC" stop-opacity="0.731"/>
<stop offset="1" stop-color="#2F43BB"/>
</linearGradient>
<linearGradient id="paint39_linear" x1="14.6918" y1="1.56681" x2="15.827" y2="1.56681" gradientUnits="userSpaceOnUse">
<stop stop-color="#FFD945"/>
<stop offset="0.3043" stop-color="#FFCD3E"/>
<stop offset="0.8558" stop-color="#FFAD2B"/>
<stop offset="1" stop-color="#FFA325"/>
</linearGradient>
<linearGradient id="paint40_linear" x1="19.8387" y1="5.69045" x2="19.8387" y2="6.82558" gradientUnits="userSpaceOnUse">
<stop stop-color="#FFD945"/>
<stop offset="0.3043" stop-color="#FFCD3E"/>
<stop offset="0.8558" stop-color="#FFAD2B"/>
<stop offset="1" stop-color="#FFA325"/>
</linearGradient>
<linearGradient id="paint41_linear" x1="9.80182" y1="5.69045" x2="9.80182" y2="6.82558" gradientUnits="userSpaceOnUse">
<stop stop-color="#FFD945"/>
<stop offset="0.3043" stop-color="#FFCD3E"/>
<stop offset="0.8558" stop-color="#FFAD2B"/>
<stop offset="1" stop-color="#FFA325"/>
</linearGradient>
<linearGradient id="paint42_linear" x1="18.1718" y1="2.7279" x2="18.9744" y2="3.53048" gradientUnits="userSpaceOnUse">
<stop stop-color="#FFD945"/>
<stop offset="0.3043" stop-color="#FFCD3E"/>
<stop offset="0.8558" stop-color="#FFAD2B"/>
<stop offset="1" stop-color="#FFA325"/>
</linearGradient>
<linearGradient id="paint43_linear" x1="11.4565" y1="2.71463" x2="10.6539" y2="3.51721" gradientUnits="userSpaceOnUse">
<stop stop-color="#FFD945"/>
<stop offset="0.3043" stop-color="#FFCD3E"/>
<stop offset="0.8558" stop-color="#FFAD2B"/>
<stop offset="1" stop-color="#FFA325"/>
</linearGradient>
</defs>
</svg>
