<svg width="24" height="36" viewBox="0 0 24 36" fill="none" xmlns="http://www.w3.org/2000/svg">
<path d="M12.4009 0.124414C14.6858 1.93496 20.3377 7.55117 19.0193 18.0217C19.0193 18.0217 20.492 17.1431 21.8013 15.5171C22.1037 15.1419 22.7107 15.2861 22.8132 15.7569C23.0409 16.8039 23.3166 18.4806 23.3622 20.6016C23.5004 27.0096 18.448 32.5091 12.0386 32.5203C5.82364 32.5313 0.750977 27.4502 0.750977 21.2113C0.750977 15.8052 3.36792 12.9834 4.37564 8.33285C4.45859 7.9497 4.89859 7.76623 5.2356 7.96673C6.00024 8.42129 7.20929 9.27273 8.00031 10.4826C8.00031 10.4826 11.2168 6.40804 11.4687 0.562219C11.489 0.0898071 12.0304 -0.16947 12.4009 0.124414Z" fill="#FFAA5F"/>
<path d="M18.165 21.1572C17.2625 22.5118 16.1185 22.8197 16.1185 22.8197C16.5816 17.2622 14.456 13.1841 13.5807 11.7666C13.4568 11.5658 13.1492 11.6189 13.0992 11.8496C12.2989 15.5624 10.1499 17.6242 10.1499 17.6242C9.45064 16.8088 8.78597 16.4748 8.44017 16.3457C8.30422 16.2952 8.15892 16.3699 8.10839 16.5058C7.22563 18.8731 5.55736 20.7007 5.17778 23.422C4.61912 27.4262 7.52858 31.2215 11.5619 31.5016C15.6302 31.7842 19.0181 28.5674 19.0181 24.5596C19.0181 22.9474 18.8039 21.84 18.6399 21.2291C18.5808 21.0086 18.2913 20.9674 18.165 21.1572Z" fill="#FFE17D"/>
<path d="M12.2263 20.54C12.1426 20.3294 11.8748 20.2714 11.722 20.439C10.8099 21.4406 8.35858 24.3723 8.35858 26.9538C8.35858 28.9973 10.0153 30.654 12.0591 30.654C14.1025 30.654 15.7593 28.9973 15.7593 26.9538C15.7593 25.0109 13.3703 23.4179 12.2263 20.54Z" fill="white"/>
<path d="M16.1185 36H7.99933C7.67908 36 7.41925 35.7405 7.41925 35.4202C7.41925 35.0997 7.67908 34.8401 7.99933 34.8401H16.1185C16.4387 34.8401 16.6983 35.0997 16.6983 35.4202C16.6983 35.7405 16.4387 36 16.1185 36Z" fill="#B67F5F"/>
<path d="M11.9412 32.5151C10.7352 32.4248 0.363281 30.4906 3.93961 17.4416C5.27417 12.5727 5.5079 8.13536 5.5079 8.13536C5.4126 8.07494 5.32004 8.01753 5.23462 7.96672C4.89761 7.76622 4.45761 7.94969 4.37466 8.33284C3.36694 12.9831 0.75 15.8052 0.75 21.2113C0.75 27.4175 5.75015 32.4517 11.9412 32.5151Z" fill="#FF8C5A"/>
</svg>
