<svg width="44" height="44" viewBox="0 0 44 44" fill="none" xmlns="http://www.w3.org/2000/svg">
<path d="M22 44C34.1503 44 44 34.1503 44 22C44 9.84974 34.1503 0 22 0C9.84974 0 0 9.84974 0 22C0 34.1503 9.84974 44 22 44Z" fill="#F8A749"/>
<path d="M22 40.3334C32.1252 40.3334 40.3333 32.1253 40.3333 22.0001C40.3333 11.8749 32.1252 3.66675 22 3.66675C11.8748 3.66675 3.66666 11.8749 3.66666 22.0001C3.66666 32.1253 11.8748 40.3334 22 40.3334Z" fill="#D6722B"/>
<path d="M28.8825 22.4924C28.4178 21.8916 27.7167 21.4789 26.7791 21.2546C27.9731 20.6456 28.4978 19.6119 28.3537 18.1534C28.3055 17.6245 28.1594 17.1662 27.9149 16.7776C27.6702 16.389 27.34 16.0766 26.9231 15.8403C26.5065 15.6036 26.0534 15.4235 25.5648 15.2993C25.0761 15.1751 24.5151 15.0849 23.8821 15.0289V12H22.0312V14.9447C21.7107 14.9447 21.222 14.9527 20.565 14.9688V12H18.7139V15.0289C18.4494 15.0369 18.0609 15.041 17.548 15.041L15 15.0289V17.0001H16.3341C16.9431 17.0001 17.2996 17.2726 17.4038 17.8174V21.267C17.484 21.267 17.548 21.2712 17.5962 21.2792H17.4038V26.1108C17.3397 26.5193 17.1074 26.7238 16.7067 26.7238H15.3727L15.0001 28.9234H17.404C17.5563 28.9234 17.7765 28.9254 18.0651 28.929C18.3535 28.9331 18.5697 28.9351 18.714 28.9351V32H20.5654V28.9711C20.9018 28.9794 21.3906 28.9833 22.0316 28.9833V32H23.8825V28.9351C24.5397 28.9031 25.1226 28.8433 25.6312 28.7549C26.14 28.6664 26.6269 28.5284 27.0916 28.34C27.5562 28.1518 27.9447 27.9173 28.2572 27.6368C28.5698 27.3566 28.828 26.9999 29.0327 26.5671C29.2367 26.1343 29.3671 25.6335 29.423 25.0645C29.5276 23.951 29.3472 23.0935 28.8825 22.4924ZM20.601 17.132C20.6571 17.132 20.8154 17.1299 21.0758 17.1259C21.3363 17.1218 21.5526 17.1178 21.7248 17.1138C21.8972 17.1098 22.1295 17.1198 22.4221 17.1439C22.7146 17.1679 22.9609 17.2 23.1612 17.24C23.3615 17.28 23.582 17.3462 23.8222 17.4383C24.0628 17.5304 24.255 17.6426 24.399 17.7748C24.5434 17.907 24.6655 18.0754 24.7655 18.2797C24.8658 18.484 24.9159 18.7184 24.9159 18.9827C24.9159 19.2071 24.8799 19.4115 24.8079 19.5959C24.736 19.7802 24.6275 19.9345 24.4835 20.0587C24.3394 20.1829 24.1908 20.2912 24.0386 20.3832C23.8865 20.4753 23.692 20.5495 23.4557 20.6055C23.2194 20.6616 23.0131 20.7057 22.8369 20.7377C22.6606 20.7698 22.4403 20.7919 22.1758 20.8038C21.9113 20.8158 21.711 20.824 21.5748 20.8279C21.4385 20.8319 21.2523 20.8319 21.0158 20.8279C20.7793 20.824 20.6413 20.8219 20.6011 20.8219V17.1319H20.601V17.132ZM25.6553 25.317C25.579 25.5014 25.481 25.6618 25.3609 25.7981C25.2406 25.9341 25.0822 26.0544 24.886 26.1584C24.6898 26.2627 24.4993 26.3467 24.3152 26.4108C24.1308 26.4752 23.9084 26.531 23.6482 26.5792C23.3874 26.6274 23.1592 26.6612 22.9627 26.6814C22.7665 26.7014 22.5322 26.7174 22.2597 26.7295C21.9873 26.7413 21.7749 26.7474 21.6227 26.7474C21.4704 26.7474 21.2781 26.7452 21.0457 26.7413C20.8132 26.7376 20.6651 26.7355 20.6009 26.7355V22.6728C20.6649 22.6728 20.8553 22.6689 21.1718 22.6608C21.4885 22.6527 21.7467 22.6489 21.9471 22.6489C22.1474 22.6489 22.4239 22.6608 22.7766 22.685C23.129 22.7088 23.4255 22.7447 23.6661 22.7928C23.9064 22.841 24.1686 22.915 24.4533 23.0153C24.7377 23.1154 24.9682 23.2375 25.1445 23.3818C25.3208 23.5263 25.469 23.7103 25.5891 23.9347C25.7095 24.159 25.7696 24.4155 25.7696 24.704C25.7696 24.9286 25.7316 25.1326 25.6553 25.317Z" fill="white"/>
</svg>
