<svg width="44" height="44" viewBox="0 0 44 44" fill="none" xmlns="http://www.w3.org/2000/svg">
<path d="M22 44C34.1503 44 44 34.1503 44 22C44 9.84974 34.1503 0 22 0C9.84974 0 0 9.84974 0 22C0 34.1503 9.84974 44 22 44Z" fill="#72D9AD"/>
<path d="M22.3333 40.6667C32.4586 40.6667 40.6667 32.4586 40.6667 22.3333C40.6667 12.2081 32.4586 4 22.3333 4C12.2081 4 4 12.2081 4 22.3333C4 32.4586 12.2081 40.6667 22.3333 40.6667Z" fill="#58BF93"/>
<path d="M26.734 21.616C27.514 20.808 28 19.712 28 18.5C28 16.19 26.244 14.302 24 14.05V13C24 12.448 23.552 12 23 12C22.448 12 22 12.448 22 13V14H20V13C20 12.448 19.552 12 19 12C18.448 12 18 12.448 18 13V14H17C16.448 14 16 14.448 16 15V29C16 29.552 16.448 30 17 30H18V31C18 31.552 18.448 32 19 32C19.552 32 20 31.552 20 31V30H22V31C22 31.552 22.448 32 23 32C23.552 32 24 31.552 24 31V30H24.5C26.982 30 29 27.982 29 25.5C29 23.834 28.08 22.396 26.734 21.616ZM18 16H23.5C24.878 16 26 17.122 26 18.5C26 19.878 24.878 21 23.5 21H18V16ZM24.5 28H18V23H23.5H24.5C25.878 23 27 24.122 27 25.5C27 26.878 25.878 28 24.5 28Z" fill="white"/>
</svg>
