<svg width="12" height="16" viewBox="0 0 12 16" fill="none" xmlns="http://www.w3.org/2000/svg">
    <path fill-rule="evenodd" clip-rule="evenodd" d="M5.82877 15.9994L7.72892 15.0782C10.0997 13.9289 11.6052 11.5258 11.6052 8.89115V2.40693C11.6052 2.23883 11.5002 2.0886 11.3424 2.03072L5.8026 0L0.262793 2.03077C0.10492 2.0886 0 2.23888 0 2.40697V8.87605C0 11.5186 1.51442 13.9273 3.89588 15.0725L5.82333 15.9994C5.82506 16.0002 5.82703 16.0002 5.82877 15.9994Z" fill="#6AD035"/>
    <path d="M5.13118 11C4.9343 11 4.7358 10.9382 4.56677 10.8104L3.1217 9.7177C2.98666 9.61558 2.95992 9.42332 3.06205 9.28821L3.82241 8.28263C3.92453 8.14758 4.11679 8.12085 4.2519 8.22297L4.71243 8.5712C4.84679 8.67277 5.03793 8.64697 5.14055 8.51336L7.74631 5.11989C7.84943 4.9856 8.04188 4.9603 8.17624 5.06343L9.17614 5.83122C9.31043 5.93434 9.33573 6.12679 9.23261 6.26115L5.87511 10.6337C5.6906 10.8738 5.41245 11 5.13118 11Z" fill="white"/>
</svg>
