<svg width="44" height="44" viewBox="0 0 44 44" fill="none" xmlns="http://www.w3.org/2000/svg">
<path d="M22 44C34.1503 44 44 34.1503 44 22C44 9.84974 34.1503 0 22 0C9.84974 0 0 9.84974 0 22C0 34.1503 9.84974 44 22 44Z" fill="#5BA9F9"/>
<path d="M22.3333 40.6667C32.4586 40.6667 40.6667 32.4586 40.6667 22.3333C40.6667 12.2081 32.4586 4 22.3333 4C12.2081 4 4 12.2081 4 22.3333C4 32.4586 12.2081 40.6667 22.3333 40.6667Z" fill="#3C8CDD"/>
<path d="M26.7872 31H14.0196C13.2615 31 12.6991 30.297 12.8653 29.5574L16.3796 13.9236C16.501 13.3837 16.9805 13 17.5339 13H28.6284C30.4953 13 32.2351 13.8361 33.4015 15.2937C34.568 16.7515 35.0021 18.6322 34.5926 20.4537L33.4139 25.6975C33.0769 27.1968 32.2304 28.5511 31.0307 29.5112C29.8309 30.4712 28.3238 31 26.7872 31ZM17.4816 26.8647C17.4561 26.9784 17.5426 27.0866 17.6592 27.0866H26.7872C28.1435 27.0866 29.2984 26.1624 29.5959 24.8392L30.7746 19.5954C30.9245 18.9287 30.7603 18.2399 30.3241 17.7116C29.8974 17.1949 29.249 16.9132 28.579 16.9132H19.8643C19.7791 16.9132 19.7054 16.9722 19.6867 17.0553L17.4816 26.8647Z" fill="white"/>
<path d="M23.247 24.0227H10.5786C10.2023 24.0227 9.92619 23.6691 10.0176 23.304L10.6617 20.7297C10.7529 20.3651 11.0804 20.1094 11.4562 20.1094H24.1247C24.501 20.1094 24.777 20.463 24.6857 20.8281L24.0416 23.4024C23.9505 23.767 23.6228 24.0227 23.247 24.0227Z" fill="white"/>
</svg>
