<svg width="44" height="44" viewBox="0 0 44 44" fill="none" xmlns="http://www.w3.org/2000/svg">
<path d="M22 44C34.1503 44 44 34.1503 44 22C44 9.84974 34.1503 0 22 0C9.84974 0 0 9.84974 0 22C0 34.1503 9.84974 44 22 44Z" fill="#D6C066"/>
<path d="M22 40.3334C32.1252 40.3334 40.3333 32.1253 40.3333 22.0001C40.3333 11.8749 32.1252 3.66675 22 3.66675C11.8748 3.66675 3.66665 11.8749 3.66665 22.0001C3.66665 32.1253 11.8748 40.3334 22 40.3334Z" fill="#BDA649"/>
<path d="M32.4982 21.6496C32.4249 19.4315 31.6386 17.3166 30.2248 15.5337C28.4618 13.3103 25.6385 11.9893 22.6726 12.0001L16.655 12.0219C15.8276 12.0249 15.1591 12.6982 15.1621 13.5257L15.1868 20.3339C15.1872 20.4356 15.105 20.5183 15.0033 20.5187L12.5353 20.5276C11.7285 20.5305 11.0365 21.1531 11.0015 21.9591C10.9641 22.8196 11.6522 23.5275 12.5038 23.5245L15.0141 23.5154C15.1158 23.515 15.1985 23.5971 15.1989 23.6989L15.2236 30.5071C15.2266 31.3346 15.8998 32.003 16.7273 32L22.7404 31.9782C25.7057 31.9674 28.5187 30.6268 30.265 28.3919C31.7847 26.4471 32.5778 24.0527 32.4982 21.6496ZM27.9038 26.5468C26.7183 28.0638 24.7841 28.9739 22.7298 28.9814L18.3992 28.997C18.2974 28.9974 18.2147 28.9153 18.2144 28.8135L18.1958 23.6878C18.1954 23.5861 18.2775 23.5034 18.3793 23.503L22.8526 23.4868C23.6594 23.4839 24.3513 22.8614 24.3864 22.0553C24.4238 21.1948 23.7356 20.4869 22.8841 20.4899L18.3684 20.5063C18.2667 20.5067 18.184 20.4246 18.1836 20.3228L18.165 15.1971C18.1646 15.0954 18.2468 15.0127 18.3485 15.0123L22.6835 14.9966C24.7385 14.9891 26.6799 15.8859 27.8769 17.3954C28.8889 18.6717 29.4513 20.1768 29.5033 21.7485C29.5594 23.4507 28.9914 25.1548 27.9038 26.5468Z" fill="white"/>
</svg>
