<svg width="24" height="24" viewBox="0 0 24 24" fill="none" xmlns="http://www.w3.org/2000/svg">
<path d="M23 0H13C12.7348 0 12.4804 0.105357 12.2929 0.292893C12.1054 0.48043 12 0.734784 12 1V9.1C12.3298 9.038 12.6644 9.00454 13 9C14.4782 8.99925 15.9039 9.54815 17 10.54V5H19V14.8C20 21.707 20 21.82 20 22C19.9959 22.7043 19.8039 23.3947 19.444 24H23C23.2652 24 23.5196 23.8946 23.7071 23.7071C23.8946 23.5196 24 23.2652 24 23V1C24 0.734784 23.8946 0.48043 23.7071 0.292893C23.5196 0.105357 23.2652 0 23 0V0Z" fill="#696E87"/>
<path d="M9 5C8.73478 5 8.48043 5.10536 8.29289 5.29289C8.10536 5.48043 8 5.73478 8 6V10H10V6C10 5.73478 9.89464 5.48043 9.70711 5.29289C9.51957 5.10536 9.26522 5 9 5Z" fill="#696E87"/>
<path d="M16.98 14.806C16.9425 13.945 16.6264 13.1194 16.0792 12.4535C15.532 11.7877 14.7834 11.3175 13.9459 11.1138C13.1085 10.9101 12.2275 10.9839 11.4357 11.3241C10.6438 11.6642 9.98378 12.2524 9.555 13H8.445C8.01622 12.2524 7.35623 11.6642 6.56435 11.3241C5.77246 10.9839 4.89151 10.9101 4.05407 11.1138C3.21662 11.3175 2.46798 11.7877 1.9208 12.4535C1.37362 13.1194 1.0575 13.945 1.02 14.806C1.02 14.806 0 21.858 0 22C0 22.5305 0.210714 23.0392 0.585786 23.4142C0.960859 23.7893 1.46957 24 2 24C2.35683 23.9998 2.7068 23.9019 3.012 23.717L6.952 21H11.052L14.992 23.717C15.296 23.9012 15.6445 23.9991 16 24C16.5304 24 17.0391 23.7893 17.4142 23.4142C17.7893 23.0392 18 22.5305 18 22C18 21.858 16.98 14.806 16.98 14.806ZM5 16.5C4.70333 16.5 4.41332 16.4121 4.16664 16.2472C3.91997 16.0824 3.72771 15.8482 3.61418 15.5741C3.50065 15.3 3.47094 14.9984 3.52882 14.7074C3.5867 14.4164 3.72956 14.1492 3.93934 13.9394C4.14912 13.7296 4.41639 13.5867 4.70736 13.5289C4.99834 13.471 5.29994 13.5007 5.57403 13.6142C5.84811 13.7277 6.08238 13.92 6.2472 14.1667C6.41203 14.4134 6.5 14.7034 6.5 15C6.5 15.3979 6.34196 15.7794 6.06066 16.0607C5.77936 16.342 5.39782 16.5 5 16.5ZM13 16.5C12.7033 16.5 12.4133 16.4121 12.1666 16.2472C11.92 16.0824 11.7277 15.8482 11.6142 15.5741C11.5006 15.3 11.4709 14.9984 11.5288 14.7074C11.5867 14.4164 11.7296 14.1492 11.9393 13.9394C12.1491 13.7296 12.4164 13.5867 12.7074 13.5289C12.9983 13.471 13.2999 13.5007 13.574 13.6142C13.8481 13.7277 14.0824 13.92 14.2472 14.1667C14.412 14.4134 14.5 14.7034 14.5 15C14.5 15.3979 14.342 15.7794 14.0607 16.0607C13.7794 16.342 13.3978 16.5 13 16.5Z" fill="#696E87"/>
</svg>
