<svg width="24" height="24" viewBox="0 0 24 24" fill="none" xmlns="http://www.w3.org/2000/svg">
<g clip-path="url(#clip0)">
<path d="M5.59149 18.1904C5.37812 18.0516 5.24987 17.8146 5.25024 17.5604V1.5H18.7496V17.5604C18.75 17.8147 18.6217 18.0517 18.4083 18.1904L11.9999 22.3527L5.59149 18.1904Z" fill="#E4F2FF"/>
<path d="M17.6246 5.43696C17.6246 5.12651 17.8765 4.87451 18.187 4.87451H18.7496V17.6238C18.7297 17.8551 18.6037 18.0644 18.4083 18.19L11.9999 22.3411C11.998 21.4985 12.421 20.7118 13.1248 20.2487C14.5254 19.3438 15.3721 17.791 15.3747 16.1239V14.4365V14.4327C15.377 14.1223 15.6304 13.8718 15.9409 13.874H15.9897H15.9934C16.2731 13.874 16.4996 13.6476 16.4996 13.3678V11.2492L16.5334 9.74926C16.6106 9.52351 16.8236 9.37276 17.0621 9.37426H17.1146H17.1184C17.3981 9.37426 17.6246 9.14781 17.6246 8.86806V5.43696Z" fill="#CEE0F1"/>
<path d="M5.25024 1.50005V12.3745H5.8127C6.12319 12.3745 6.37515 12.1225 6.37515 11.8121V8.006C6.38265 7.71837 6.62227 7.49117 6.91022 7.49905C6.91697 7.49905 6.92372 7.49942 6.9301 7.4998C7.2406 7.50392 7.49592 7.2553 7.50005 6.94485C7.50005 6.94222 7.50005 6.93997 7.50005 6.93735V4.1249C7.50005 3.29657 8.17162 2.62495 8.99995 2.62495H16.1246C16.7459 2.62495 17.2495 2.12137 17.2495 1.5H5.25024V1.50005Z" fill="#D4E7F9"/>
<path d="M18.7496 0H5.25031C4.42199 0 3.75037 0.671575 3.75037 1.49995V17.5604C3.75412 18.3178 4.13886 19.0225 4.77407 19.4353L11.5912 23.8788C11.8398 24.0405 12.16 24.0405 12.4087 23.8788L19.2258 19.4465C19.861 19.0337 20.2458 18.3291 20.2495 17.5716V1.49995C20.2495 0.671575 19.5779 0 18.7496 0ZM18.7496 3.20985C18.4275 2.91735 18.0278 2.7246 17.5984 2.6549C17.5283 2.22365 17.334 1.82245 17.0397 1.49995H18.7496V3.20985ZM6.96021 1.49995C6.66659 1.8217 6.47234 2.2214 6.40151 2.65115C5.97176 2.72202 5.57206 2.91627 5.25031 3.20985V1.49995H6.96021ZM12 22.3526L10.7588 21.5464C11.2766 21.3308 11.7116 20.9547 12 20.474C12.2883 20.9547 12.7233 21.3308 13.2412 21.5464L12 22.3526ZM18.7496 17.5603C18.75 17.8146 18.6217 18.0516 18.4084 18.1903L14.1073 20.9989C13.1279 20.9243 12.3719 20.1064 12.3749 19.124C12.3749 18.917 12.2069 18.749 11.9999 18.749C11.7929 18.749 11.6249 18.917 11.6249 19.124C11.6279 20.1064 10.872 20.9243 9.89251 20.9989L5.59147 18.1903C5.37809 18.0515 5.24984 17.8145 5.25022 17.5603V4.87475C5.25022 4.04642 5.92179 3.37485 6.75012 3.37485C6.95712 3.37485 7.12512 3.20685 7.12512 2.99985C7.12512 2.17152 7.79669 1.4999 8.62507 1.4999H15.3747C16.203 1.4999 16.8747 2.17148 16.8747 2.99985C16.8747 3.20685 17.0427 3.37485 17.2497 3.37485C18.078 3.37485 18.7496 4.04642 18.7496 4.87475V17.5603Z" fill="#2D4961"/>
<path d="M3.75037 1.4999V14.2492C4.16474 14.2492 4.50032 13.9136 4.50032 13.4993V1.4999C4.50032 1.08553 4.83594 0.74995 5.25027 0.74995H17.9996C18.414 0.74995 18.7496 0.414326 18.7496 2.45369e-09H5.25031C4.42161 -4.68724e-05 3.75037 0.671529 3.75037 1.4999Z" fill="#44637F"/>
<path d="M19.2259 19.4467C19.8611 19.0338 20.2458 18.3292 20.2496 17.5718V2.625C19.8352 2.625 19.4996 2.96062 19.4996 3.37495V17.6467C19.4996 18.0236 19.311 18.3757 18.9972 18.5842L12.6224 22.8327C12.2332 23.0934 11.9996 23.5306 12 23.9989C12.1451 23.9993 12.2869 23.9577 12.4087 23.8789L19.2259 19.4467Z" fill="#123247"/>
</g>
<defs>
<clipPath id="clip0">
<rect width="24" height="24" fill="white"/>
</clipPath>
</defs>
</svg>
