<svg width="24" height="24" viewBox="0 0 24 24" fill="none" xmlns="http://www.w3.org/2000/svg">
<path d="M17.907 5.95575C18.4381 5.52844 18.7469 4.88341 18.7466 4.20162V1.49927C18.7466 0.671286 18.0753 0 17.2473 0H6.75257C5.92463 0 5.2533 0.671286 5.2533 1.49927V4.20167C5.25292 4.88345 5.56178 5.52849 6.09286 5.9558L11.2503 10.1012V10.9708C11.2525 11.1578 11.1165 11.3175 10.9317 11.3456C7.46281 11.9367 5.1296 15.2279 5.7203 18.6972C6.31101 22.1664 9.60262 24.4993 13.0719 23.9085C16.5411 23.3178 18.874 20.0262 18.2833 16.557C17.829 13.8898 15.7394 11.8002 13.0719 11.3456C12.8871 11.3175 12.751 11.1578 12.7533 10.9708V10.1012L17.907 5.95575Z" fill="#2D4961"/>
<path d="M7.03367 4.78613C6.85601 4.64405 6.75256 4.42895 6.75256 4.20142V1.49902H17.2474V4.20142C17.2474 4.42895 17.1439 4.64405 16.9662 4.78613L12 8.77789L7.03367 4.78613Z" fill="#123247"/>
<path d="M12 22.4888C9.30888 22.4888 7.12744 20.3074 7.12744 17.6162C7.12744 14.925 9.30883 12.7437 12 12.7437C14.6912 12.7437 16.8726 14.925 16.8726 17.6162C16.8726 20.3074 14.6908 22.4888 12 22.4888Z" fill="#6AD035"/>
<path d="M7.50225 17.991C7.29535 17.991 7.12744 17.8231 7.12744 17.6162C7.12744 14.9251 9.30884 12.7437 12 12.7437C12.2069 12.7437 12.3748 12.9116 12.3748 13.1185C12.3748 13.3254 12.2069 13.4933 12 13.4933C9.72306 13.4933 7.8771 15.3392 7.8771 17.6162C7.8771 17.8231 7.70915 17.991 7.50225 17.991Z" fill="#8CED5A"/>
<path d="M11.9999 23.9883C11.793 23.9883 11.6251 23.8204 11.6251 23.6135C11.6251 23.4066 11.793 23.2387 11.9999 23.2387C15.1049 23.2387 17.6221 20.7215 17.6221 17.6165C17.6221 17.4096 17.79 17.2417 17.9969 17.2417C18.2038 17.2417 18.3717 17.4096 18.3717 17.6165C18.3717 21.1356 15.5187 23.9883 11.9999 23.9883Z" fill="#123247"/>
<path d="M11.2504 10.1201V10.9709C11.2526 11.158 11.1165 11.3176 10.9318 11.3457C7.87294 11.866 5.63342 14.5136 5.62817 17.6164C5.62817 17.8233 5.79608 17.9912 6.00298 17.9912C6.20988 17.9912 6.37779 17.8233 6.37779 17.6164C6.37704 14.7891 8.47635 12.4012 11.2803 12.0392C11.6863 11.9938 11.9951 11.6531 12 11.2445V10.8697C12 10.4556 11.6641 10.1201 11.2504 10.1201Z" fill="#44637F"/>
<path d="M17.9969 2.24864V4.40757C17.9961 4.749 17.8402 5.07173 17.5733 5.28464L13.4991 8.54924C13.0261 8.92555 12.7503 9.49676 12.7495 10.101L17.9069 5.95555C18.4381 5.52824 18.7469 4.88321 18.7465 4.20142V1.49902C18.3323 1.49902 17.9969 1.83446 17.9969 2.24864Z" fill="#123247"/>
<path d="M6.75257 0C5.92463 0 5.2533 0.671286 5.2533 1.49927V4.12297C5.66748 4.12297 6.00291 3.78749 6.00291 3.37335V1.49927C6.00291 1.08509 6.33839 0.74966 6.75252 0.74966H16.4976C16.9118 0.74966 17.2472 0.414181 17.2472 4.68743e-05H6.75257V0Z" fill="#44637F"/>
<path d="M15.3731 6.06834V2.24902H13.8739V7.27151L15.3731 6.06834Z" fill="#6AD035"/>
<path d="M10.1258 7.27151V2.24902H8.62659V6.06834L10.1258 7.27151Z" fill="#6AD035"/>
<path d="M11.2504 8.17482L12 8.77823L12.7496 8.17482V2.24902H11.2504V8.17482Z" fill="#6AD035"/>
<path d="M17.2488 1.49902H6.75403V2.24864H17.2488V1.49902Z" fill="#44637F"/>
<path d="M10.1274 1.49902H8.62817V2.24864H10.1274V1.49902Z" fill="#6AD035"/>
<path d="M12.7512 1.49902H11.252V2.24864H12.7512V1.49902Z" fill="#6AD035"/>
<path d="M15.3748 1.49902H13.8755V2.24864H15.3748V1.49902Z" fill="#6AD035"/>
<path fill-rule="evenodd" clip-rule="evenodd" d="M13.4731 15.2288L12.7235 13.3547C12.6474 13.162 12.4296 13.068 12.237 13.144C12.1407 13.1823 12.0642 13.2584 12.0263 13.3547L11.2767 15.2288C11.2411 15.318 11.2411 15.4169 11.2767 15.5061L12.0263 17.3802C12.1024 17.5729 12.3202 17.667 12.5128 17.5909C12.6092 17.5526 12.6856 17.4766 12.7235 17.3802L13.4731 15.5061C13.5083 15.4169 13.5083 15.318 13.4731 15.2288ZM12.0001 22.4888L12.0039 22.4888C14.6908 22.4867 16.8692 20.3095 16.8726 17.6225L16.8726 17.6163V17.5863L16.8714 17.5858C16.8559 17.3931 16.6944 17.2415 16.4978 17.2415C16.4021 17.2415 16.3148 17.2774 16.2485 17.3364L15.141 16.8929C15.0507 16.8566 14.9498 16.8566 14.8599 16.893L12.9858 17.6426C12.7932 17.7187 12.6991 17.9364 12.7752 18.1291C12.8134 18.2254 12.8895 18.3019 12.9858 18.3397L14.8599 19.0893C14.9491 19.125 15.048 19.125 15.1372 19.0893L15.9623 18.7597C15.571 20.1182 14.4998 21.1888 13.1409 21.5793L13.4694 20.7572C13.505 20.668 13.505 20.569 13.4694 20.4798L12.7235 18.602C12.6474 18.4094 12.4296 18.3153 12.237 18.3914C12.1407 18.4296 12.0642 18.5057 12.0263 18.602L11.2767 20.4761C11.2411 20.5653 11.2411 20.6642 11.2767 20.7534L11.7206 21.8643C11.6613 21.9306 11.6252 22.0181 11.6252 22.114C11.6252 22.3107 11.7769 22.4721 11.9696 22.4876L11.9701 22.4888H12.0001ZM11.764 18.3399L9.88992 19.0896C9.80072 19.1251 9.70139 19.1251 9.61257 19.0896L7.73849 18.3399C7.64216 18.3021 7.56609 18.2256 7.52784 18.1293C7.45176 17.9366 7.54584 17.7189 7.73849 17.6428L9.61257 16.8932C9.70177 16.8575 9.80072 16.8575 9.88992 16.8932L11.764 17.6428C11.8603 17.6807 11.9364 17.7571 11.9747 17.8534C12.0507 18.0461 11.9567 18.2639 11.764 18.3399Z" fill="#48A517"/>
<path d="M13.0981 14.8538L12.3485 12.9797C12.2724 12.787 12.0546 12.693 11.862 12.769C11.7657 12.8073 11.6892 12.8834 11.6513 12.9797L10.9017 14.8538C10.8661 14.943 10.8661 15.0419 10.9017 15.1311L11.6513 17.0052C11.7274 17.1979 11.9452 17.2919 12.1378 17.2159C12.2342 17.1776 12.3106 17.1015 12.3485 17.0052L13.0981 15.1311C13.1333 15.0419 13.1333 14.943 13.0981 14.8538Z" fill="white"/>
<path d="M13.0981 20.1008L12.3485 18.2268C12.2724 18.0341 12.0546 17.94 11.862 18.0161C11.7657 18.0544 11.6892 18.1304 11.6513 18.2268L10.9017 20.1008C10.8661 20.1901 10.8661 20.289 10.9017 20.3782L11.6513 22.2523C11.7274 22.4449 11.9452 22.539 12.1378 22.4629C12.2342 22.4247 12.3106 22.3486 12.3485 22.2523L13.0981 20.3782C13.1333 20.289 13.1333 20.1901 13.0981 20.1008Z" fill="white"/>
<path d="M14.7622 18.7143L16.6363 17.9647C16.829 17.8886 16.923 17.6708 16.847 17.4782C16.8087 17.3819 16.7326 17.3054 16.6363 17.2675L14.7622 16.5179C14.673 16.4823 14.5741 16.4823 14.4849 16.5179L12.6108 17.2675C12.4182 17.3436 12.3241 17.5614 12.4002 17.754C12.4384 17.8504 12.5145 17.9268 12.6108 17.9647L14.4849 18.7143C14.5737 18.7499 14.673 18.7499 14.7622 18.7143Z" fill="white"/>
<path d="M9.51492 18.7143L11.389 17.9647C11.5817 17.8886 11.6757 17.6708 11.5997 17.4782C11.5614 17.3819 11.4853 17.3054 11.389 17.2675L9.51492 16.5179C9.42572 16.4823 9.32677 16.4823 9.23757 16.5179L7.36349 17.2675C7.17084 17.3436 7.07676 17.5614 7.15284 17.754C7.19109 17.8504 7.26716 17.9268 7.36349 17.9647L9.23757 18.7143C9.32639 18.7499 9.42572 18.7499 9.51492 18.7143Z" fill="white"/>
<path d="M12.3486 22.253L13.0982 20.3789C13.1338 20.2897 13.1338 20.1907 13.0982 20.1015L12.3486 18.2274C12.2924 18.085 12 18.2274 12 18.7409V22.4891C12.1533 22.4891 12.2916 22.3958 12.3486 22.253Z" fill="#DDDFE1"/>
<path d="M12.3486 17.0054L13.0982 15.1313C13.1338 15.0421 13.1338 14.9432 13.0982 14.854L12.3486 12.9799C12.2924 12.8374 12 12.9799 12 13.4934V17.2415C12.1533 17.2415 12.2916 17.1482 12.3486 17.0054Z" fill="#DDDFE1"/>
<path d="M12.6109 17.9648L14.485 18.7144C14.5742 18.75 14.6731 18.75 14.7623 18.7144L16.6364 17.9648C16.7792 17.9078 16.8726 17.7699 16.8726 17.6162H12.3748C12.3744 17.7699 12.4681 17.9078 12.6109 17.9648Z" fill="#DDDFE1"/>
<path d="M7.36355 17.9648L9.23763 18.7144C9.32683 18.75 9.42578 18.75 9.51498 18.7144L11.3891 17.9648C11.5319 17.9078 11.6252 17.7699 11.6252 17.6162H7.12744C7.12702 17.7699 7.22072 17.9078 7.36355 17.9648Z" fill="#DDDFE1"/>
</svg>
