<svg width="24" height="24" viewBox="0 0 24 24" fill="none" xmlns="http://www.w3.org/2000/svg">
<path d="M18.1875 4.875C17.8875 4.875 17.625 5.1375 17.625 5.4375V8.85C17.625 9.1125 17.4 9.375 17.1375 9.375H17.1C16.8 9.375 16.5375 9.6375 16.5375 9.9375V13.3875C16.5375 13.65 16.3875 13.8375 16.125 13.875C16.1625 13.8 16.1625 13.7625 16.1625 13.6875C16.1625 13.3875 15.9 13.125 15.6 13.125H15.375V10.0875C15.375 9.9375 15.45 9.7875 15.6 9.7125C15.975 9.6 16.2 9.15 16.0875 8.775C15.975 8.4 15.525 8.175 15.15 8.2875C14.8125 8.3625 14.625 8.6625 14.625 9C14.625 9.15 14.6625 9.2625 14.7375 9.4125C14.8125 9.5625 14.8125 9.7125 14.7 9.825L14.175 10.5C14.0625 10.65 13.8 10.6875 13.65 10.575C13.6125 10.575 13.6125 10.5375 13.575 10.5L13.0125 9.825C12.9 9.7125 12.9 9.525 12.975 9.4125C13.05 9.3 13.0875 9.15 13.0875 9C13.0875 8.5875 12.75 8.25 12.3375 8.25C11.925 8.25 11.5875 8.5875 11.5875 9C11.5875 9.15 11.625 9.2625 11.7 9.4125C11.775 9.5625 11.775 9.7125 11.6625 9.825L11.175 10.5C11.0625 10.65 10.8 10.6875 10.65 10.575C10.6125 10.575 10.6125 10.5375 10.575 10.5L10.0125 9.825C9.90003 9.7125 9.90003 9.525 9.97503 9.4125C10.05 9.3 10.0875 9.15 10.0875 9C10.0875 8.5875 9.75003 8.25 9.33753 8.25C8.92502 8.25 8.58752 8.5875 8.58752 9C8.58752 9.3375 8.81252 9.6 9.11252 9.7125C9.26253 9.7875 9.37503 9.9375 9.33753 10.0875V13.125H9.15003C8.85002 13.125 8.58752 13.3875 8.58752 13.6875C8.58752 13.9875 8.85002 14.25 9.15003 14.25H15.375C15.375 14.325 15.375 14.3625 15.375 14.4375V16.125C15.375 17.775 14.5125 19.35 13.125 20.25C12.4125 20.7 12 21.4875 12 22.35L18.4125 18.1875C18.6 18.075 18.75 17.85 18.75 17.625V4.875H18.1875Z" fill="#D1D9E1"/>
<path d="M5.5875 18.1875C5.3625 18.0375 5.25 17.8125 5.25 17.55V1.5H18.75V17.55C18.75 17.8125 18.6375 18.0375 18.4125 18.1875L12 22.35L5.5875 18.1875Z" fill="#E2E5E7"/>
<path d="M5.25 1.5V12.375H5.8125C6.1125 12.375 6.375 12.1125 6.375 11.8125V8.025C6.375 7.725 6.6375 7.5 6.9 7.5C6.9 7.5 6.9 7.5 6.9375 7.5C7.2375 7.5 7.5 7.2375 7.5 6.9375V4.125C7.5 3.3 8.175 2.625 9 2.625H16.125C16.7625 2.625 17.25 2.1375 17.25 1.5H5.25Z" fill="#F1F2F2"/>
<path d="M18.75 0H5.25C4.425 0 3.75 0.675 3.75 1.5V17.55C3.75 18.3 4.125 19.0125 4.7625 19.425L11.5875 23.85C11.85 24 12.15 24 12.4125 23.85L19.2375 19.425C19.875 19.0125 20.25 18.3 20.25 17.55V1.5C20.25 0.675 19.575 0 18.75 0ZM18.75 3.225C18.4125 2.925 18.0375 2.7375 17.5875 2.6625C17.5125 2.25 17.325 1.8375 17.025 1.5H18.75V3.225ZM6.975 1.5C6.675 1.8375 6.4875 2.2125 6.4125 2.6625C5.9625 2.7375 5.5875 2.925 5.25 3.225V1.5H6.975ZM12 22.35L10.7625 21.525C11.2875 21.3 11.7 20.925 12 20.4375C12.3 20.925 12.7125 21.3 13.2375 21.525L12 22.35ZM18.75 17.55C18.75 17.8125 18.6375 18.0375 18.4125 18.1875L14.1 21C13.125 20.925 12.375 20.1 12.375 19.125C12.375 18.9 12.225 18.75 12 18.75C11.775 18.75 11.625 18.9 11.625 19.125C11.625 20.1 10.875 20.925 9.9 21L5.5875 18.1875C5.3625 18.0375 5.25 17.8125 5.25 17.55V4.875C5.25 4.05 5.925 3.375 6.75 3.375C6.975 3.375 7.125 3.225 7.125 3C7.125 2.175 7.8 1.5 8.625 1.5H15.375C16.2 1.5 16.875 2.175 16.875 3C16.875 3.225 17.025 3.375 17.25 3.375C18.075 3.375 18.75 4.05 18.75 4.875V17.55Z" fill="#2D4961"/>
<path d="M19.2375 19.4625C19.875 19.05 20.25 18.3375 20.25 17.5875V2.625C19.8375 2.625 19.5 2.9625 19.5 3.375V17.6625C19.5 18.0375 19.3125 18.375 19.0125 18.6L12.6375 22.8375C12.2625 23.1 12 23.55 12 24C12.15 24 12.3 23.9625 12.4125 23.8875L19.2375 19.4625Z" fill="#123247"/>
<path d="M3.75 1.5V14.25C4.1625 14.25 4.5 13.9125 4.5 13.5V1.5C4.5 1.0875 4.8375 0.75 5.25 0.75H18C18.4125 0.75 18.75 0.4125 18.75 0H5.25C4.425 0 3.75 0.675 3.75 1.5Z" fill="#44637F"/>
<path d="M15 7.875C14.5875 7.875 14.25 8.2125 14.25 8.625C14.25 8.775 14.2875 8.8875 14.3625 9.0375C14.4375 9.1875 14.4375 9.3375 14.325 9.45L13.8 10.125C13.6875 10.275 13.425 10.3125 13.275 10.2C13.2375 10.2 13.2375 10.1625 13.2 10.125L12.6375 9.45C12.525 9.3375 12.525 9.15 12.6 9.0375C12.675 8.925 12.7125 8.775 12.7125 8.625C12.7125 8.2125 12.375 7.875 11.9625 7.875C11.55 7.875 11.2125 8.2125 11.2125 8.625C11.2125 8.775 11.25 8.8875 11.325 9.0375C11.4 9.1875 11.4 9.3375 11.2875 9.45L10.8 10.125C10.6875 10.275 10.425 10.3125 10.275 10.2C10.2375 10.2 10.2375 10.1625 10.2 10.125L9.63753 9.45C9.52503 9.3375 9.52503 9.15 9.60003 9.0375C9.67503 8.925 9.71253 8.775 9.71253 8.625C9.71253 8.2125 9.37503 7.875 8.96253 7.875C8.55003 7.875 8.21252 8.2125 8.21252 8.625C8.21252 8.9625 8.43752 9.225 8.73753 9.3375C8.88753 9.4125 9.00003 9.5625 8.96253 9.7125V12.375C8.96253 12.6 9.11253 12.75 9.33753 12.75H14.5875C14.8125 12.75 14.9625 12.6 14.9625 12.375V9.7125C14.9625 9.5625 15.0375 9.4125 15.1875 9.3375C15.5625 9.1875 15.75 8.7375 15.6 8.3625C15.525 8.0625 15.3 7.875 15 7.875Z" fill="#2E485D"/>
<path d="M13.875 12H9.375C9.15 12 9 12.15 9 12.375V12.75H15V10.125C14.5875 10.125 14.25 10.4625 14.25 10.875V11.625C14.25 11.85 14.1 12 13.875 12Z" fill="#123247"/>
<path d="M8.8125 12.75H15.1875C15.4875 12.75 15.75 13.0125 15.75 13.3125C15.75 13.6125 15.4875 13.875 15.1875 13.875H8.8125C8.5125 13.875 8.25 13.6125 8.25 13.3125C8.25 13.0125 8.5125 12.75 8.8125 12.75Z" fill="#FFA325"/>
<path d="M8.8125 13.875H15.1875C15.4875 13.875 15.75 13.6125 15.75 13.3125H9.375C9.075 13.3125 8.8125 13.575 8.8125 13.875Z" fill="#DF8A16"/>
</svg>
