<svg width="133" height="30" viewBox="0 0 133 30" fill="none" xmlns="http://www.w3.org/2000/svg">
<g clip-path="url(#clip0)">
<path d="M11.9853 12.7162C11.9853 12.7162 15.4201 11.145 17.7953 10.0122C20.1704 8.87942 22.7283 6.9793 22.8745 4.42144C22.9841 2.66748 20.9378 1.16931 18.0511 0.475036C15.0547 -0.25578 10.9987 -0.0730756 9.93901 0.986608C8.73317 2.19245 8.66008 3.65409 9.64669 6.35811C10.6333 9.06213 11.9853 12.7162 11.9853 12.7162Z" fill="#6DD338"/>
<path d="M12.6431 14.5433C12.6431 14.5433 14.9086 20.609 15.7125 22.8746C16.5164 25.1401 17.8319 29.0865 21.6321 27.296C25.4323 25.5055 29.2326 13.5201 27.2959 10.7065C25.1766 7.6005 15.1278 13.5932 12.6431 14.5433Z" fill="#6DD338"/>
<path d="M10.8891 15.3837C10.8891 15.3837 12.168 18.8185 13.045 21.2667C13.922 23.715 14.5797 27.7345 13.2277 29.3788C12.3142 30.5116 9.42746 29.9269 7.81967 28.9403C5.883 27.771 2.66741 25.7613 2.22892 23.2765C1.71735 20.4994 3.7271 18.7089 6.32149 17.503C8.95243 16.2606 10.8891 15.3837 10.8891 15.3837Z" fill="#6DD338"/>
<path d="M10.1948 13.5201C10.1948 13.5201 8.87938 9.9391 7.92932 7.3447C7.0158 4.78684 5.48108 3.06943 2.99631 5.15225C0.767319 7.05237 0.109585 10.9988 -3.72203e-05 13.0085C-0.1462 15.7856 1.31543 17.6492 4.31178 16.2241C7.34466 14.8721 10.1948 13.5201 10.1948 13.5201Z" fill="#6DD338"/>
<path d="M45.6394 15.676C46.3337 15.3837 46.9183 14.9818 47.3568 14.3971C47.8684 13.7394 48.1242 12.9355 48.1242 11.9854C48.1242 11.1815 47.9049 10.4507 47.503 9.79296C47.101 9.13522 46.4799 8.66019 45.676 8.29479C44.8721 7.92938 43.922 7.74667 42.8258 7.74667H35.8099V24.0073H43.1181C44.2143 24.0073 45.1644 23.8246 46.0048 23.4592C46.8087 23.0938 47.4299 22.5457 47.8684 21.888C48.3069 21.2302 48.5261 20.4263 48.5261 19.5859C48.5261 18.5993 48.2338 17.7589 47.6492 16.9915C47.101 16.3338 46.4433 15.8587 45.6394 15.676ZM39.2082 10.5603H42.3507C43.0816 10.5603 43.6662 10.743 44.0682 11.0719C44.4701 11.4008 44.6528 11.8758 44.6528 12.497C44.6528 13.1182 44.4701 13.5932 44.0682 13.9221C43.6662 14.2509 43.0816 14.4336 42.3507 14.4336H39.2082V10.5603ZM44.4336 20.6821C44.0316 21.0475 43.4104 21.2302 42.6431 21.2302H39.2082V17.0646H42.57C43.3373 17.0646 43.922 17.2473 44.3605 17.6127C44.799 17.9781 45.0182 18.4897 45.0182 19.1839C45.0548 19.8417 44.8355 20.3167 44.4336 20.6821Z" fill="white"/>
<path d="M69.7929 7.92935H66.3581V11.0719H64.8234V13.8855H66.3581V19.9513C66.3581 22.6553 67.7466 24.0073 70.5237 24.0073H72.6431V20.8283H71.0718C70.5968 20.8283 70.2679 20.7552 70.0852 20.5725C69.9025 20.3898 69.7929 20.0974 69.7929 19.6955V13.922H72.6431V11.1084H69.7929V7.92935Z" fill="white"/>
<path d="M81.9609 10.8892C81.157 10.8892 80.3896 11.0353 79.7319 11.3642C79.1473 11.6565 78.6357 12.0219 78.2337 12.497V11.0719H74.8354V24.0073H78.2337V16.8819C78.2337 15.8953 78.4895 15.1279 78.9646 14.6163C79.4761 14.1048 80.1339 13.8124 81.0108 13.8124C81.8513 13.8124 82.5455 14.0682 83.0206 14.6163C83.4956 15.1279 83.7514 15.8953 83.7514 16.8819V24.0073H87.1497V16.4434C87.1497 14.6894 86.6747 13.3374 85.7246 12.3508C84.738 11.4007 83.4956 10.8892 81.9609 10.8892Z" fill="white"/>
<path d="M95.7003 10.8526C92.0096 10.8526 89.0133 13.849 89.0133 17.5396C89.0133 21.2302 92.0096 24.2266 95.7003 24.2266C99.3909 24.2266 102.387 21.2302 102.387 17.5396C102.351 13.849 99.3543 10.8526 95.7003 10.8526ZM95.7003 20.9379C93.8367 20.9379 92.3385 19.4397 92.3385 17.5761C92.3385 15.7126 93.8367 14.2144 95.7003 14.2144C97.5638 14.2144 99.062 15.7126 99.062 17.5761C99.062 19.4397 97.5638 20.9379 95.7003 20.9379Z" fill="white"/>
<path d="M120.658 10.8892C119.708 10.8892 118.831 11.1084 118.027 11.5834C117.259 12.0219 116.675 12.57 116.273 13.2643C115.834 12.5335 115.25 11.9488 114.482 11.5469C113.678 11.1084 112.765 10.8892 111.778 10.8892C110.974 10.8892 110.244 11.0353 109.586 11.3642C109.001 11.62 108.526 12.0219 108.124 12.4604V11.0719H104.726V24.0073H108.124V16.8819C108.124 15.8953 108.38 15.1644 108.855 14.6529C109.367 14.1413 110.024 13.8855 110.901 13.8855C111.742 13.8855 112.436 14.1413 112.911 14.6529C113.386 15.1644 113.642 15.8953 113.642 16.8819V24.0073H117.04V16.8819C117.04 15.8953 117.296 15.1644 117.771 14.6529C118.283 14.1413 118.94 13.8855 119.781 13.8855C120.621 13.8855 121.315 14.1413 121.791 14.6529C122.266 15.1644 122.521 15.8953 122.521 16.8819V24.0073H125.92V16.4434C125.92 14.6894 125.445 13.3374 124.458 12.3508C123.471 11.3642 122.229 10.8892 120.658 10.8892Z" fill="white"/>
<path d="M132.241 11.0719H128.843V24.0073H132.241V11.0719Z" fill="white"/>
<path d="M130.56 9.71987C131.145 9.71987 131.656 9.53716 132.022 9.13521C132.424 8.76981 132.606 8.29478 132.606 7.71012C132.606 7.12547 132.424 6.68698 132.022 6.28503C131.62 5.91962 131.145 5.70038 130.56 5.70038C129.976 5.70038 129.464 5.88308 129.099 6.28503C128.697 6.65044 128.514 7.12547 128.514 7.71012C128.514 8.29478 128.697 8.73327 129.099 9.13521C129.501 9.53716 129.976 9.71987 130.56 9.71987Z" fill="white"/>
<path d="M59.3423 19.8782C58.8307 20.8648 58.0268 21.3764 56.8575 21.3764C56.0536 21.3764 55.3594 21.1206 54.8112 20.609C54.2997 20.134 53.9708 19.4397 53.8977 18.5993C53.8612 18.4166 53.8612 18.2339 53.8612 18.2339H63.2522C63.2887 17.9415 63.3252 17.6127 63.3252 17.2838C63.3252 16.0414 63.0695 14.9087 62.5214 13.9221C61.9732 12.9355 61.2059 12.2046 60.2558 11.6565C59.2692 11.145 58.173 10.8526 56.9671 10.8526C55.6882 10.8526 54.5555 11.145 53.5689 11.6565C52.5823 12.2046 51.8149 12.972 51.2668 13.9951C50.7187 15.0183 50.4629 16.1876 50.4629 17.5031C50.4629 18.8185 50.7552 19.9878 51.3033 21.011C51.8514 22.0341 52.6188 22.8015 53.6054 23.3496C54.592 23.8977 55.7248 24.19 56.9671 24.19C58.5019 24.19 59.8173 23.7881 60.877 22.9842C61.9367 22.1803 62.6675 21.1571 63.0329 19.9148L63.0695 19.8051H59.4154L59.3423 19.8782ZM54.8843 14.3971C55.3959 13.9221 56.0536 13.7028 56.821 13.7028C57.6249 13.7028 58.3557 13.9586 58.9038 14.4336C59.4519 14.9087 59.7443 15.4933 59.7808 16.2607H53.9343C54.0804 15.4568 54.3728 14.8356 54.8843 14.3971Z" fill="white"/>
</g>
<defs>
<clipPath id="clip0">
<rect width="132.643" height="30" fill="white"/>
</clipPath>
</defs>
</svg>
