<svg width="36" height="36" viewBox="0 0 36 36" fill="none" xmlns="http://www.w3.org/2000/svg">
<path d="M9 0C7.7625 0 6.75 1.0125 6.75 2.25V33.75C6.75 34.9875 7.7625 36 9 36H31.5C32.7375 36 33.75 34.9875 33.75 33.75V9L24.75 0H9Z" fill="#E2E5E7"/>
<path d="M27 9H33.75L24.75 0V6.75C24.75 7.9875 25.7625 9 27 9Z" fill="#B0B7BD"/>
<path d="M29.25 29.25C29.25 29.8687 28.7437 30.375 28.125 30.375H3.375C2.75625 30.375 2.25 29.8687 2.25 29.25V18C2.25 17.3812 2.75625 16.875 3.375 16.875H28.125C28.7437 16.875 29.25 17.3812 29.25 18V29.25Z" fill="#898EA9"/>
<path d="M6.52637 21.3154C6.52637 21.0184 6.75924 20.6932 7.13724 20.6932H9.21625C10.3851 20.6932 11.4381 21.4762 11.4381 22.9781C11.4381 24.4001 10.3851 25.191 9.21625 25.191H7.71212V26.379C7.71212 26.7761 7.46237 27 7.13724 27C6.84024 27 6.52637 26.7761 6.52637 26.379V21.3154ZM7.71212 21.8272V24.0671H9.21512C9.817 24.0671 10.294 23.5361 10.294 22.9781C10.294 22.3481 9.817 21.8272 9.21512 21.8272H7.71212Z" fill="white"/>
<path d="M12.5851 21.4054C12.5851 21.0802 12.6571 20.7664 13.1251 20.7664C13.448 20.7664 13.5211 20.8474 13.763 21.0802L16.7397 24.8051V21.3154C16.7397 21.0184 16.9996 20.6932 17.3067 20.6932C17.6307 20.6932 17.9446 21.0184 17.9446 21.3154V26.379C17.9446 26.7761 17.7016 26.9269 17.4676 27C17.1537 27 16.9996 26.928 16.7397 26.6861L13.763 22.9072V26.3801C13.763 26.7772 13.52 27.0011 13.196 27.0011C12.872 27.0011 12.584 26.7772 12.584 26.3801V21.4054H12.5851Z" fill="white"/>
<path d="M24.7113 26.3081C24.0723 26.838 23.2893 27.0641 22.4984 27.0641C20.6084 27.0641 19.2686 25.9841 19.2686 23.8433C19.2686 22.0264 20.6816 20.6145 22.5783 20.6145C23.2893 20.6145 24.0712 20.8575 24.6292 21.4065C25.1782 21.9454 24.3862 22.7464 23.8473 22.2705C23.5143 21.9454 23.0463 21.7035 22.5783 21.7035C21.4904 21.7035 20.4386 22.5754 20.4386 23.8433C20.4386 25.1753 21.3194 25.9841 22.4984 25.9841C23.0463 25.9841 23.5143 25.8221 23.8473 25.5791V24.4744H22.4984C21.6974 24.4744 21.7784 23.3753 22.4984 23.3753H24.2973C24.6303 23.3753 24.9352 23.6284 24.9352 23.9074V25.8233C24.9352 25.9841 24.8643 26.136 24.7113 26.3081Z" fill="white"/>
</svg>
