<svg width="24" height="24" viewBox="0 0 24 24" fill="none" xmlns="http://www.w3.org/2000/svg">
<path d="M19.3775 15.6155C19.2699 14.5047 18.9502 13.3444 18.4529 12.2606C18.0018 11.2735 17.4098 10.3293 16.6947 9.45655C16.4939 9.21002 16.2897 8.97391 16.1843 8.86503L15.9415 8.59965C15.8822 8.5317 15.8324 8.47713 15.783 8.42877L15.7104 8.35511C15.631 8.27525 15.5492 8.19241 15.4812 8.10957C15.476 8.10288 15.4703 8.09643 15.4643 8.08998C15.4314 8.05377 15.3959 8.01756 15.3562 7.97713C15.3046 7.9248 15.2461 7.86652 15.194 7.80104C15.1873 7.79286 15.1804 7.78492 15.1734 7.77674C14.8034 7.36999 14.4921 7.0002 14.2223 6.64703C13.9063 6.2311 13.6831 5.8871 13.4976 5.52847C13.2828 5.11999 13.1221 4.66538 13.0204 4.17381C12.9239 3.72862 12.8676 3.21771 12.8525 2.65347C12.8376 2.15248 12.8681 1.67108 12.8996 1.26954C12.9224 1.00218 12.9482 0.765576 12.9735 0.556499C12.9931 0.393552 12.9309 0.23135 12.8071 0.123463C12.6831 0.0153282 12.5139 -0.0246024 12.3555 0.0173123C12.1189 0.0790682 11.8763 0.160913 11.6362 0.26012C11.132 0.465725 10.636 0.751687 10.1613 1.11106C9.55586 1.57064 9.02535 2.13834 8.58488 2.79732C8.0442 3.60263 7.66151 4.5498 7.47873 5.53319C7.27014 6.61528 7.29321 7.83626 7.54321 8.9692C7.78056 10.0659 8.24013 11.186 8.87406 12.2115C9.20913 12.7455 9.53031 13.1919 9.84827 13.5667C9.94301 13.6845 10.2039 13.989 10.2067 13.9925L10.3108 14.1118C10.3837 14.1944 10.4358 14.2566 10.4889 14.3201C10.538 14.3784 10.5784 14.4268 10.6236 14.4749L10.6313 14.4828C11.1273 15.0761 11.477 15.5116 11.7657 15.897C12.0846 16.3211 12.3651 16.7323 12.6228 17.1535C12.8974 17.6034 13.0936 17.9967 13.2399 18.3898C13.4051 18.837 13.5137 19.3216 13.564 19.8323C13.6104 20.2817 13.6107 20.7857 13.5653 21.37C13.5196 21.9 13.4371 22.3831 13.3721 22.7371C13.3235 22.9791 13.2758 23.2026 13.2324 23.3955C13.1957 23.559 13.2436 23.7301 13.3604 23.8502C13.4549 23.9476 13.5834 24.0004 13.7166 24.0004C13.7481 24.0004 13.7798 23.9975 13.8113 23.9915C14.0442 23.9459 14.2684 23.8864 14.4904 23.811C15.0087 23.6423 15.5201 23.397 16.0087 23.0838C16.6427 22.683 17.2146 22.1691 17.7089 21.5577C18.3081 20.8167 18.7761 19.927 19.0621 18.9858C19.3827 17.9387 19.4921 16.7725 19.3775 15.6155Z" fill="white"/>
<path d="M9.65292 18.6535C9.44632 18.2016 9.17599 17.77 8.85084 17.3734C8.76899 17.273 8.67003 17.1577 8.62167 17.1076L8.50733 16.9826C8.47757 16.9491 8.456 16.9258 8.43318 16.9027L8.40193 16.8712C8.36572 16.835 8.32951 16.798 8.29875 16.7613C8.2933 16.7549 8.28759 16.7482 8.28164 16.742L8.23873 16.6974C8.21368 16.6716 8.18913 16.6465 8.16805 16.6202C8.16259 16.6135 8.15689 16.6068 8.15094 16.6004C7.98749 16.4211 7.84687 16.2541 7.72311 16.0927C7.61845 15.954 7.49717 15.7851 7.39002 15.5788C7.29206 15.3923 7.21914 15.1854 7.17227 14.96C7.12861 14.7574 7.10307 14.5242 7.09612 14.267C7.08992 14.0535 7.10183 13.8516 7.1115 13.7184C7.12415 13.5426 7.04231 13.3729 6.89647 13.2735C6.75064 13.174 6.56314 13.1597 6.40366 13.2353C6.22013 13.3228 6.03983 13.433 5.86721 13.5634C5.59092 13.7735 5.34885 14.0324 5.14846 14.3325C4.97633 14.5887 4.7489 15.0138 4.6435 15.58C4.54801 16.0751 4.55818 16.6331 4.67227 17.1495C4.78065 17.6507 4.99047 18.1624 5.2809 18.6324C5.43392 18.8757 5.58025 19.0793 5.72113 19.2455C5.76254 19.2968 5.85233 19.4007 5.89226 19.4471L5.89151 19.4478L5.93566 19.4979C5.97063 19.5374 5.99518 19.5666 6.01924 19.5959C6.04007 19.6215 6.05793 19.6425 6.07455 19.6599L6.08224 19.6681C6.23526 19.8509 6.43243 20.0897 6.60084 20.3147C6.74717 20.5089 6.87489 20.6964 6.99171 20.8881C7.11646 21.0919 7.206 21.2713 7.27271 21.4508C7.34811 21.6552 7.39796 21.8772 7.42103 22.1118C7.44211 22.3164 7.44211 22.5466 7.42177 22.8099C7.40838 22.9664 7.3863 23.1316 7.35505 23.3149C7.32455 23.4922 7.39275 23.6723 7.53288 23.7851C7.62241 23.8568 7.73253 23.8943 7.84389 23.8943C7.90664 23.8943 7.97013 23.8824 8.03015 23.8581C8.20277 23.7879 8.37365 23.6986 8.53486 23.5952C8.8243 23.4129 9.08596 23.1778 9.31289 22.8975C9.5862 22.5597 9.79975 22.1535 9.93045 21.7239C10.075 21.2519 10.1261 20.705 10.075 20.1847C10.0254 19.6775 9.87961 19.148 9.65292 18.6535Z" fill="white"/>
</svg>
