<svg width="68" height="24" viewBox="0 0 68 24" fill="none" xmlns="http://www.w3.org/2000/svg">
<path d="M7.16764 20.9452C6.78446 21.2908 6.33542 21.5553 5.84748 21.7229C5.35954 21.8906 4.84276 21.958 4.32814 21.921C2.23489 21.7507 0.766391 20.295 0.470141 18.1057C0.206891 16.1085 0.672641 14.3512 2.38114 13.1265C2.86058 12.7865 3.40772 12.5538 3.98524 12.4445C4.56275 12.3351 5.15707 12.3516 5.72764 12.4927C6.29871 12.6343 6.83262 12.8971 7.29307 13.2633C7.75353 13.6296 8.12974 14.0907 8.39614 14.6152C8.57089 14.9692 8.55889 15.1605 8.16139 15.258C8.10439 15.258 8.05564 15.2992 8.00314 15.315C7.68664 15.429 7.38214 15.6937 7.05814 15.6322C6.73339 15.5715 6.72514 15.1282 6.54664 14.8762C6.33598 14.5751 6.0535 14.3312 5.72479 14.1668C5.39609 14.0024 5.03155 13.9226 4.66422 13.9347C4.29689 13.9468 3.93837 14.0503 3.62117 14.2359C3.30396 14.4216 3.03808 14.6834 2.84764 14.9977C2.45831 15.6147 2.24363 16.3257 2.22646 17.055C2.20929 17.7843 2.39028 18.5047 2.75014 19.1392C3.24514 20.0377 4.17814 20.4202 5.27314 20.262C5.68367 20.1973 6.06485 20.0093 6.3662 19.7231C6.66755 19.4369 6.87484 19.0659 6.96064 18.6592C7.05814 18.2887 6.96064 18.1995 6.59914 18.2197C6.17314 18.2437 5.73964 18.2197 5.30914 18.2197C4.87939 18.2197 4.78189 18.0975 4.77814 17.703C4.77814 16.7265 4.75789 16.7265 5.69914 16.7265H8.22964C8.52589 16.7265 8.63539 16.8202 8.61139 17.1337V21.201C8.61139 21.6082 8.43664 21.7507 8.05939 21.7222C7.9852 21.7182 7.91083 21.7182 7.83664 21.7222C7.39039 21.7177 6.89539 21.8032 7.16764 20.9452ZM0.478391 4.93425V0.866248C0.478391 0.650998 0.425891 0.406498 0.811391 0.406498C2.14189 0.451498 3.47614 0.320998 4.80214 0.488248C5.37592 0.550072 5.91394 0.797112 6.3348 1.19198C6.75565 1.58686 7.03643 2.10807 7.13464 2.67675C7.37839 4.011 6.91189 5.0565 5.75539 5.65425C5.47189 5.8005 5.47564 5.91075 5.60989 6.15075C6.14914 7.11825 6.66814 8.09475 7.23214 9.05925C7.41439 9.38475 7.40689 9.50625 6.98089 9.50175C5.19214 9.4695 5.61814 9.6735 4.83064 8.2575C4.49014 7.6515 4.18189 7.03725 3.84889 6.41925C3.70714 6.159 2.44189 5.97975 2.27164 6.20325C2.21836 6.32058 2.19864 6.45038 2.21464 6.57825V8.892C2.21464 9.3315 2.03614 9.486 1.61014 9.498C0.515141 9.531 0.515141 9.53925 0.515141 8.42025L0.478391 4.935V4.93425ZM2.17339 3.30675V4.37325C2.17339 4.56 2.17339 4.71075 2.43364 4.7025C3.06814 4.73175 3.70489 4.71 4.33564 4.63725C4.49959 4.61798 4.65808 4.56635 4.80193 4.48537C4.94578 4.40438 5.07212 4.29565 5.17363 4.16547C5.27514 4.03529 5.34979 3.88625 5.39327 3.727C5.43674 3.56775 5.44817 3.40145 5.42689 3.23775C5.42405 2.91661 5.30012 2.60837 5.07988 2.37464C4.85963 2.14091 4.55929 1.9989 4.23889 1.977C4.01548 1.94919 3.79052 1.93567 3.56539 1.9365C2.17414 1.9035 2.17414 1.9035 2.17414 3.29925V3.30675H2.17339ZM18.5286 15.8152C20.1029 14.7577 21.1124 14.8027 22.2764 15.9742C22.6075 15.6008 23.036 15.327 23.5139 15.1832C23.9918 15.0395 24.5003 15.0316 24.9824 15.1605C25.4043 15.238 25.7852 15.4623 26.0577 15.7936C26.3301 16.125 26.4766 16.542 26.4711 16.971C26.4996 18.378 26.4711 19.7895 26.4951 21.201C26.4951 21.5467 26.3691 21.7057 26.0001 21.7185C24.9336 21.7665 24.9336 21.7785 24.9336 20.7135V17.7225C24.9336 17.0025 24.7064 16.7055 24.1671 16.5795C23.8983 16.5265 23.6195 16.5606 23.3713 16.6769C23.1231 16.7931 22.9185 16.9855 22.7871 17.226C22.5783 17.63 22.4805 18.0821 22.5036 18.5362V21.2415C22.5036 21.6112 22.3986 21.7252 22.0251 21.7215C20.9504 21.7215 20.9504 21.7215 20.9504 20.6715V17.91C20.9504 17.0962 20.6339 16.6402 20.0376 16.5592C19.716 16.5463 19.3998 16.645 19.1425 16.8386C18.8853 17.0321 18.7029 17.3086 18.6261 17.6213C18.4774 18.3021 18.4294 19.001 18.4836 19.6957V21.1597C18.4836 21.567 18.3141 21.7297 17.9039 21.717C16.6874 21.6847 16.9349 21.8595 16.9229 20.7532V16.014C16.9229 15.7455 16.9019 15.4327 17.1944 15.3307C17.5907 15.2087 18.0146 15.2087 18.4109 15.3307C18.5654 15.3555 18.4439 15.6232 18.5286 15.8145V15.8152ZM51.4169 20.7457C50.8459 21.1546 50.1552 21.362 49.4534 21.3352C49.0593 21.3225 48.6717 21.2312 48.3134 21.0667C46.9911 20.4487 46.3994 18.5737 47.0076 16.9305C47.2533 16.2733 47.7337 15.7304 48.3562 15.4065C48.9786 15.0827 49.6989 15.0009 50.3781 15.177C50.7504 15.3031 51.0938 15.5019 51.3884 15.762C51.5459 15.3562 52.6536 15.063 52.9619 15.3232C53.0796 15.4207 53.0309 15.5677 53.0309 15.6892C53.0309 17.5687 53.0556 19.452 53.0309 21.3315C53.0031 22.845 52.3416 23.544 50.8529 23.772C50.0756 23.9114 49.2767 23.8724 48.5166 23.658C48.1712 23.5614 47.8576 23.375 47.6075 23.1179C47.3575 22.8608 47.18 22.542 47.0931 22.194C46.9956 21.8887 47.0931 21.7867 47.3886 21.7867H48.4026C48.479 21.7769 48.5566 21.7871 48.6278 21.8164C48.6989 21.8458 48.7612 21.8932 48.8084 21.954C49.0332 22.2526 49.3544 22.4642 49.7174 22.5531C50.0805 22.6419 50.4631 22.6025 50.8004 22.4415C51.3441 22.194 51.5429 21.6937 51.4169 20.7457ZM48.4109 18.2437C48.4109 19.2772 49.0109 19.92 49.9604 19.9162C50.9099 19.9117 51.5144 19.2772 51.5144 18.2197C51.5144 17.1622 50.9339 16.4872 49.9694 16.4872C49.0034 16.4872 48.4026 17.1457 48.4109 18.2235V18.2437ZM29.3474 15.6975C29.6537 15.4508 30.008 15.2706 30.3878 15.1684C30.7675 15.0661 31.1644 15.044 31.5531 15.1035C33.1514 15.4005 34.1819 16.9785 33.9869 18.8295C33.9494 19.1475 33.8834 19.4602 33.7881 19.7655C33.2331 21.6082 31.2126 22.6132 29.4561 21.2955C29.2011 22.0267 28.5884 21.6652 28.1421 21.678C27.6959 21.6892 27.8054 21.213 27.8054 20.9287V13.2532C27.8054 12.7935 27.9149 12.6345 28.3896 12.6592C29.5094 12.7117 29.3669 12.4882 29.3796 13.6477C29.3511 14.2942 29.3466 14.9452 29.3466 15.6975H29.3474ZM32.4051 18.3742C32.3733 18.122 32.3257 17.872 32.2626 17.6257C32.1874 17.3223 32.0153 17.0516 31.7723 16.8548C31.5294 16.658 31.2289 16.5458 30.9164 16.5352C30.5942 16.5284 30.2785 16.6262 30.0167 16.814C29.7549 17.0019 29.5611 17.2696 29.4644 17.577C29.2353 18.2024 29.2601 18.8926 29.5334 19.5C29.6307 19.7575 29.8046 19.979 30.0316 20.1347C30.2586 20.2903 30.5279 20.3727 30.8031 20.3707C31.086 20.3827 31.3661 20.3121 31.6096 20.1676C31.853 20.0231 32.0491 19.811 32.1741 19.557C32.3346 19.1835 32.4134 18.78 32.4051 18.3735V18.3742ZM53.6436 9.051C53.4689 9.42525 52.4834 9.70575 52.1226 9.486C51.9801 9.4005 52.0131 9.258 52.0131 9.132V0.907498C52.0131 0.569998 52.1346 0.448498 52.4714 0.427498C53.5424 0.367498 53.5424 0.357748 53.5424 1.47225V2.994C53.5424 3.279 53.5791 3.43725 53.9151 3.2505C55.9439 2.13975 57.8376 3.57525 58.1301 5.577C58.2108 6.1347 58.1915 6.70231 58.0731 7.25325C57.7244 8.949 55.7369 10.629 53.6436 9.051ZM56.5724 6.2025C56.5672 5.99688 56.5496 5.79177 56.5199 5.58825C56.4658 5.24131 56.2939 4.92359 56.0329 4.68863C55.772 4.45366 55.4381 4.31579 55.0874 4.29825C54.7551 4.27394 54.4252 4.36998 54.158 4.56882C53.8907 4.76767 53.7039 5.05604 53.6316 5.38125C53.4233 6.05474 53.4812 6.7825 53.7936 7.4145C53.9136 7.6617 54.1059 7.86656 54.345 8.00186C54.5841 8.13716 54.8587 8.1965 55.1324 8.172C55.3872 8.16906 55.6353 8.09002 55.8449 7.94501C56.0544 7.80001 56.2158 7.59567 56.3084 7.35825C56.4824 7.002 56.5724 6.61125 56.5724 6.2145V6.2025ZM23.3189 3.543C23.6519 3.25436 24.0508 3.05192 24.4804 2.95345C24.9099 2.85498 25.3571 2.86349 25.7826 2.97825C26.2084 3.09344 26.5994 3.31116 26.9216 3.61239C27.2437 3.91363 27.4872 4.28919 27.6306 4.70625C28.0098 5.6571 28.043 6.71092 27.7244 7.68375C27.2256 9.246 25.3229 10.4212 23.3069 9.06675C23.3069 9.7305 23.2784 10.3365 23.3069 10.938C23.3354 11.4225 23.1891 11.601 22.6821 11.5852C21.7371 11.5485 21.7334 11.5852 21.7334 10.629V4.1415C21.7334 2.9205 21.5789 3.099 22.8854 3.07125C23.2139 3.06375 23.3474 3.17325 23.3189 3.54375V3.543ZM23.2911 6.21975C23.2581 7.33425 23.7816 8.09925 24.6374 8.18475C25.6679 8.286 26.3451 7.54575 26.3534 6.30075C26.3534 5.17425 25.7406 4.389 24.8234 4.35675C23.9076 4.32375 23.3189 5.08875 23.2911 6.21975ZM15.8189 21.702H14.3511C14.2776 21.702 14.1561 21.702 14.1359 21.6735C13.8396 21.0997 13.4984 21.5265 13.1909 21.6405C12.5424 21.8923 11.8279 21.9182 11.1629 21.714C10.7682 21.6041 10.4179 21.3729 10.1617 21.0531C9.90548 20.7334 9.75617 20.3412 9.73489 19.932C9.722 19.526 9.83098 19.1254 10.0478 18.7818C10.2646 18.4383 10.5793 18.1676 10.9514 18.0045C11.5118 17.7937 12.0923 17.6409 12.6839 17.5485C12.9554 17.4795 13.2351 17.439 13.4946 17.3572C13.6776 17.3047 13.9536 17.325 13.9574 17.04C13.9609 16.9171 13.9306 16.7956 13.8698 16.6887C13.8089 16.5818 13.7199 16.4937 13.6124 16.434C13.447 16.3427 13.2651 16.2848 13.0773 16.2638C12.8895 16.2428 12.6994 16.259 12.5179 16.3116C12.3364 16.3641 12.167 16.4519 12.0194 16.5699C11.8719 16.688 11.749 16.8339 11.6579 16.9995C11.6335 17.0786 11.5804 17.1457 11.5091 17.1878C11.4378 17.2298 11.3534 17.2437 11.2724 17.2267L10.7121 17.1945C9.99064 17.1457 9.90139 17.0317 10.2014 16.3807C10.3116 16.1203 10.4777 15.8873 10.6879 15.6983C10.8981 15.5092 11.1473 15.3686 11.4179 15.2865C12.294 14.9935 13.2378 14.9695 14.1276 15.2175C15.1251 15.474 15.5309 15.9945 15.5519 17.0362C15.5721 18.1987 15.5519 19.3665 15.5519 20.5305C15.5071 20.9399 15.6011 21.3525 15.8189 21.702ZM12.4484 20.481C13.5561 20.481 14.0954 19.8997 13.9896 18.8542C13.9896 18.6997 13.9896 18.5617 13.7466 18.6262C13.1744 18.7807 12.5826 18.879 12.0104 19.0335C11.8933 19.0508 11.7824 19.097 11.6876 19.1678C11.5928 19.2386 11.5171 19.3318 11.4673 19.4391C11.4175 19.5464 11.3951 19.6645 11.4022 19.7826C11.4093 19.9007 11.4456 20.0152 11.5079 20.1157C11.7254 20.3992 12.0794 20.5417 12.4326 20.4855L12.4484 20.481ZM11.8769 6.59775C11.2559 6.59775 10.6394 6.62625 10.0191 6.59775C9.56014 6.57375 9.57664 6.75675 9.71089 7.0905C9.83436 7.35931 10.0198 7.595 10.2521 7.77822C10.4843 7.96145 10.7567 8.08698 11.0468 8.14451C11.337 8.20205 11.6367 8.18994 11.9212 8.10919C12.2058 8.02845 12.4672 7.88135 12.6839 7.68C12.8219 7.554 12.9029 7.2525 13.1586 7.37475C13.5411 7.56675 13.9109 7.78725 14.2611 8.034C14.3384 8.08275 14.2289 8.19675 14.1764 8.2695C13.5111 9.29475 11.8364 9.897 10.4564 9.62025C9.07789 9.3435 8.22139 8.4 7.95889 6.915C7.69489 5.43 8.27089 4.01475 9.32914 3.33525C9.77729 3.03546 10.2952 2.85628 10.8328 2.81503C11.3704 2.77378 11.9095 2.87184 12.3981 3.09975C12.8874 3.32829 13.3097 3.67867 13.6246 4.11731C13.9395 4.55594 14.1365 5.06813 14.1966 5.60475C14.3631 6.7935 14.4156 6.582 13.3326 6.59775C12.8504 6.606 12.3636 6.59775 11.8769 6.59775ZM11.0654 5.45475H12.1806C12.5496 5.45475 12.5864 5.3085 12.4731 5.0115C12.3745 4.72726 12.1824 4.48486 11.9282 4.32386C11.674 4.16286 11.3728 4.09275 11.0736 4.125C10.7638 4.13748 10.4653 4.24481 10.2185 4.43247C9.97172 4.62013 9.7885 4.87906 9.69364 5.17425C9.62914 5.43075 9.73864 5.45925 9.94114 5.45475C10.3146 5.44725 10.6881 5.45475 11.0609 5.45475H11.0654ZM65.0864 6.59775H63.1716C62.8026 6.59775 62.7666 6.73275 62.8679 7.03725C62.9817 7.31553 63.162 7.56164 63.3931 7.754C63.6241 7.94636 63.8988 8.07908 64.1931 8.14054C64.4874 8.20199 64.7923 8.19029 65.081 8.10646C65.3698 8.02264 65.6335 7.86925 65.8491 7.65975C65.8974 7.58985 65.9604 7.53134 66.0337 7.48831C66.1069 7.44528 66.1887 7.41877 66.2733 7.41063C66.3578 7.40249 66.4432 7.41291 66.5233 7.44117C66.6034 7.46943 66.6764 7.51485 66.7371 7.57425C67.6176 8.1195 67.6296 8.1195 66.8301 8.7945C64.8509 10.4992 61.8089 9.6735 61.2089 7.2735C60.8031 5.57325 61.4279 3.876 62.7464 3.2055C65.0376 2.0505 67.4999 3.63675 67.4639 6.23175C67.4639 6.50475 67.3739 6.594 67.1106 6.5895C66.4326 6.5895 65.7599 6.59775 65.0856 6.59775H65.0864ZM64.2749 5.45475H65.3946C65.6909 5.45475 65.7471 5.36925 65.6579 5.09325C65.5749 4.80214 65.3959 4.54764 65.15 4.37106C64.9041 4.19448 64.6058 4.10618 64.3034 4.1205C63.9854 4.12115 63.6758 4.22223 63.4187 4.40931C63.1615 4.59638 62.9701 4.8599 62.8716 5.16225C62.8026 5.406 62.9001 5.45925 63.1146 5.45475C63.5084 5.44725 63.9021 5.451 64.2951 5.45475H64.2749ZM31.9146 9.67725C31.4616 9.68229 31.0125 9.59225 30.5964 9.41294C30.1803 9.23363 29.8064 8.96904 29.4989 8.63625C29.1909 8.30289 28.9559 7.90889 28.8089 7.47947C28.6619 7.05005 28.6062 6.59468 28.6454 6.1425C28.7144 4.12875 30.1259 2.81475 32.1576 2.8875C33.9831 2.94525 35.3136 4.4625 35.2566 6.41475C35.1996 8.36775 33.7964 9.72975 31.9146 9.67725ZM33.5939 6.24825C33.6037 5.9175 33.5369 5.58897 33.3989 5.28825C33.2775 4.98026 33.06 4.71967 32.7787 4.54522C32.4973 4.37077 32.1672 4.29178 31.8374 4.32C31.5182 4.32185 31.208 4.42651 30.953 4.61848C30.6979 4.81045 30.5115 5.0795 30.4214 5.38575C30.2112 5.97704 30.23 6.62557 30.4739 7.20375C30.6203 7.58494 30.9051 7.89686 31.2715 8.07719C31.6379 8.25752 32.0588 8.29298 32.4501 8.1765C33.1596 7.989 33.5939 7.27725 33.5939 6.24825ZM37.6094 3.62475C38.1763 3.11145 38.922 2.84108 39.6861 2.87175C40.1635 2.87181 40.6224 3.05575 40.9677 3.38537C41.313 3.71498 41.518 4.16493 41.5401 4.64175C41.6046 6.12225 41.5761 7.611 41.5964 9.11625C41.5964 9.39225 41.4914 9.52275 41.1914 9.52275C40.0146 9.6165 40.0184 9.62475 40.0184 8.457V5.634C40.0184 4.91775 39.6899 4.5195 39.1469 4.4415C38.8475 4.38951 38.5394 4.44629 38.2782 4.60157C38.017 4.75685 37.82 5.0004 37.7226 5.28825C37.6086 5.62725 37.5576 5.98425 37.5726 6.342V8.937C37.5726 9.3435 37.4796 9.5145 37.0371 9.51075C35.9624 9.51075 35.9624 9.531 35.9624 8.45325V3.83175C35.9624 3.07125 35.9624 3.07125 36.7004 3.06675C36.7956 3.0735 36.8901 3.0735 36.9854 3.06675C37.3536 3.02175 37.6454 3.0795 37.6094 3.62475ZM45.2999 9.67725C44.3359 9.67736 43.398 9.3647 42.6269 8.78625C42.3794 8.59875 42.3471 8.46525 42.6269 8.286C42.7521 8.2035 42.8684 8.106 42.9719 7.99725C43.2756 7.67175 43.5231 7.566 43.9371 7.932C44.5049 8.397 45.2736 8.532 45.9651 8.286C46.2854 8.196 46.5734 8.02575 46.5734 7.6395C46.5734 7.25325 46.2411 7.188 45.9449 7.1145C45.2189 6.9315 44.4599 6.8865 43.7706 6.56925C42.4731 5.9715 42.2496 4.53525 43.2921 3.5715C43.4664 3.39753 43.673 3.25942 43.9004 3.165C44.5285 2.89243 45.2185 2.7946 45.8976 2.88187C46.5767 2.96913 47.2196 3.23824 47.7584 3.66075C48.0659 3.89325 48.2009 4.1205 47.7989 4.389C47.7379 4.43292 47.6832 4.48489 47.6361 4.5435C47.3121 4.8975 47.0684 5.16225 46.6221 4.5885C46.2171 4.092 45.5759 4.0395 44.9549 4.149C44.6264 4.206 44.3099 4.3365 44.2821 4.719C44.2536 5.1015 44.5941 5.2515 44.9069 5.325C45.4904 5.45925 46.0829 5.55675 46.6671 5.68275C47.6159 5.886 48.1634 6.40275 48.2894 7.17975C48.3368 7.59349 48.258 8.0119 48.0632 8.38C47.8684 8.74811 47.5669 9.04869 47.1981 9.24225C46.6169 9.55695 45.9609 9.70734 45.3006 9.67725H45.2999ZM17.7944 9.669C16.9316 9.63044 16.1011 9.32954 15.4139 8.8065C15.1536 8.61525 15.0854 8.4615 15.4139 8.274C15.4776 8.23425 15.5369 8.187 15.5879 8.1315C15.9614 7.74525 16.2651 7.509 16.8051 8.0055C17.0826 8.22002 17.4119 8.35713 17.7596 8.40285C18.1073 8.44857 18.4609 8.40126 18.7844 8.26575C18.9353 8.23945 19.072 8.16039 19.1701 8.04267C19.2682 7.92494 19.3213 7.77622 19.3199 7.623C19.3199 7.26075 19.0116 7.188 18.7319 7.1265C18.1319 6.9885 17.5146 6.8865 16.9266 6.72C15.9329 6.43125 15.4056 5.82075 15.3771 5.01525C15.3828 4.58059 15.5277 4.1592 15.7905 3.81296C16.0534 3.46671 16.4203 3.21385 16.8374 3.0915C17.437 2.86713 18.084 2.79945 18.7171 2.89486C19.3502 2.99027 19.9485 3.24562 20.4554 3.63675C20.8206 3.90525 20.9429 4.14525 20.5079 4.4505C20.4781 4.47142 20.4509 4.49584 20.4269 4.52325C20.0819 4.9305 19.8149 5.13825 19.3319 4.58025C18.8489 4.023 18.1679 4.023 17.4981 4.22625C17.3694 4.25165 17.2533 4.32048 17.1692 4.42123C17.0851 4.52198 17.0381 4.64853 17.0361 4.77975C17.0361 5.03625 17.2244 5.25375 17.4786 5.28825C18.1154 5.44275 18.7596 5.5605 19.3971 5.69475C20.3909 5.91075 20.9384 6.4395 21.0516 7.28475C21.0773 7.69927 20.9792 8.11208 20.7699 8.47076C20.5605 8.82943 20.2492 9.1178 19.8756 9.29925C19.2291 9.61152 18.5089 9.73946 17.7944 9.669ZM41.8926 15.9255C42.3143 15.4984 42.859 15.2139 43.4504 15.1117C43.7387 15.0396 44.0396 15.0336 44.3306 15.094C44.6217 15.1543 44.8953 15.2796 45.1311 15.4605C45.3673 15.6418 45.5597 15.8737 45.6942 16.1393C45.8287 16.4049 45.9018 16.6974 45.9081 16.995C45.9734 18.4192 45.9329 19.8427 45.9486 21.279C45.9486 21.588 45.8316 21.6855 45.5151 21.7177C44.3826 21.783 44.3826 21.7912 44.3826 20.6767V17.8575C44.3826 17.1742 44.0504 16.731 43.5231 16.6372C43.2241 16.5862 42.9166 16.6423 42.6548 16.7955C42.3929 16.9487 42.1934 17.1893 42.0914 17.475C41.9671 17.8306 41.9067 18.2054 41.9129 18.582V21.2295C41.9129 21.6 41.7831 21.7177 41.4179 21.7222C40.3304 21.7222 40.3304 21.7507 40.3304 20.6932V15.897C40.3304 15.3847 40.5096 15.2137 40.9844 15.267C41.0961 15.279 41.2094 15.279 41.3211 15.267C41.7224 15.189 42.0021 15.291 41.8926 15.9255ZM60.4049 4.9995V8.949C60.4049 9.405 60.2924 9.57525 59.8131 9.56775C58.7991 9.54675 58.7991 9.56775 58.7991 8.5665V1.22025C58.7991 0.406498 58.7991 0.406498 59.6106 0.406498C59.7231 0.414748 59.8356 0.414748 59.9474 0.406498C60.2999 0.361498 60.3899 0.524998 60.3854 0.862498V4.97475L60.4056 4.9995H60.4049ZM36.4124 17.1495V21.1485C36.4124 21.555 36.3314 21.7185 35.8851 21.714C34.8471 21.714 34.8471 21.714 34.8471 20.6722V13.3507C34.8471 13.1025 34.7294 12.7402 35.0256 12.6427C35.4422 12.5268 35.8826 12.5268 36.2991 12.6427C36.4739 12.6877 36.3966 12.9397 36.3966 13.1025C36.4101 14.4472 36.4154 15.7965 36.4124 17.1495ZM37.5891 18.4275V15.669C37.5891 15.3517 37.6701 15.2625 37.9941 15.2625C39.1671 15.2625 39.1671 15.2257 39.1671 16.389V21.12C39.1671 21.588 39.0209 21.738 38.5544 21.726C37.5846 21.726 37.5846 21.726 37.5846 20.7495L37.5891 18.4267V18.4275ZM49.1901 6.2685V3.44925C49.1901 3.1605 49.2629 3.07125 49.5629 3.04275C50.7554 3.006 50.7554 2.994 50.7554 4.20225V8.823C50.7554 9.32325 50.6376 9.5265 50.0946 9.5025C49.1901 9.4575 49.1856 9.5025 49.1856 8.5665L49.1901 6.2685Z" fill="#696E87"/>
<path d="M38.4689 12.8542H38.1524C37.9039 12.8542 37.7024 13.0557 37.7024 13.3042V13.6245C37.7024 13.873 37.9039 14.0745 38.1524 14.0745H38.4689C38.7174 14.0745 38.9189 13.873 38.9189 13.6245V13.3042C38.9189 13.0557 38.7174 12.8542 38.4689 12.8542Z" fill="#696E87"/>
<path d="M50.1308 0.651123H49.8143C49.5657 0.651123 49.3643 0.852595 49.3643 1.10112V1.42137C49.3643 1.6699 49.5657 1.87137 49.8143 1.87137H50.1308C50.3793 1.87137 50.5808 1.6699 50.5808 1.42137V1.10112C50.5808 0.852595 50.3793 0.651123 50.1308 0.651123Z" fill="#696E87"/>
</svg>
