<svg width="44" height="44" viewBox="0 0 44 44" fill="none" xmlns="http://www.w3.org/2000/svg">
<path d="M22 44C34.1503 44 44 34.1503 44 22C44 9.84974 34.1503 0 22 0C9.84974 0 0 9.84974 0 22C0 34.1503 9.84974 44 22 44Z" fill="#49C196"/>
<path d="M22 40.3334C32.1252 40.3334 40.3333 32.1253 40.3333 22.0001C40.3333 11.8749 32.1252 3.66675 22 3.66675C11.8748 3.66675 3.66666 11.8749 3.66666 22.0001C3.66666 32.1253 11.8748 40.3334 22 40.3334Z" fill="#2D9B78"/>
<path d="M35.75 23.8334C35.75 21.1622 28.8163 20.4353 24.75 20.2392V17.4167H33V11.9167H11V17.4167H19.25V20.2392C15.1837 20.4353 8.25 21.1622 8.25 23.8334C8.25 26.5046 15.1837 27.2315 19.25 27.4277V35.7501H24.75V27.4277C28.8163 27.2315 35.75 26.5046 35.75 23.8334ZM22 25.6667C15.2167 25.6667 10.9569 24.5466 10.1603 23.8334C10.8432 23.222 14.0754 22.3145 19.25 22.067V23.8334H24.75V22.067C29.9246 22.3145 33.1568 23.222 33.8397 23.8334C33.0431 24.5466 28.7833 25.6667 22 25.6667Z" fill="white"/>
</svg>
