<svg width="44" height="44" viewBox="0 0 44 44" fill="none" xmlns="http://www.w3.org/2000/svg">
<path d="M22 44C34.1503 44 44 34.1503 44 22C44 9.84974 34.1503 0 22 0C9.84974 0 0 9.84974 0 22C0 34.1503 9.84974 44 22 44Z" fill="#EF524B"/>
<path d="M22 40.3334C32.1252 40.3334 40.3333 32.1253 40.3333 22.0001C40.3333 11.8749 32.1252 3.66675 22 3.66675C11.8748 3.66675 3.66667 11.8749 3.66667 22.0001C3.66667 32.1253 11.8748 40.3334 22 40.3334Z" fill="#D33028"/>
<path d="M14.0297 12.563L21.6411 31.7404C21.7543 32.0258 22.1292 32.0907 22.3318 31.8601L33.408 19.2593C33.5533 19.0939 33.5426 18.8435 33.3837 18.6912L29.0474 14.5337C28.9879 14.4766 28.9125 14.4388 28.8312 14.4251L14.4801 12.006C14.1643 11.9527 13.9116 12.2652 14.0297 12.563Z" fill="#FFC6C4"/>
<path d="M33.4084 19.2597L33.0935 19.6172L24.2143 20.1713L22.6293 31.5224L22.3318 31.8603C22.1295 32.0913 21.7547 32.0263 21.6412 31.741L21.4283 31.2042L23.0132 19.8556L14.2089 13.0152L14.0297 12.563C13.9113 12.2655 14.1645 11.953 14.4801 12.0065L15.0441 12.1019L23.6281 18.7714L28.2021 14.3199L28.831 14.4259C28.9124 14.4391 28.988 14.4769 29.0471 14.5344L29.4014 14.874L25.296 18.8685L33.063 18.3843L33.3836 18.6917C33.5424 18.8437 33.5531 19.0944 33.4084 19.2597Z" fill="white"/>
<path d="M23.1045 28.1194L22.6294 31.5219L22.3319 31.8598C22.1288 32.0908 21.754 32.0259 21.6413 31.7406L21.4284 31.2038L21.6306 29.752L23.1045 28.1194Z" fill="white"/>
<path d="M29.4016 14.8734L28.0723 16.1665L27.1697 15.3247L28.203 14.3193L28.8311 14.4254C28.9125 14.4386 28.9882 14.4764 29.0473 14.5339L29.4016 14.8734Z" fill="white"/>
<path d="M33.4078 19.2598L33.0935 19.6167L30.6404 19.7696L30.9603 19.4154C31.1108 19.2489 31.0998 18.9923 30.9356 18.8393L30.6108 18.5364L33.063 18.3835L33.3837 18.691C33.5428 18.8436 33.5534 19.0944 33.4078 19.2598Z" fill="white"/>
</svg>
