<svg width="448" height="392" viewBox="0 0 448 392" fill="none" xmlns="http://www.w3.org/2000/svg">
<path d="M369.237 244.597C372.862 245.204 376.488 245.504 380.091 245.504C393.475 245.504 406.502 241.361 417.617 233.434C431.726 223.374 441.073 208.421 443.935 191.33L448 167.058L423.728 162.993C408.046 160.368 392.723 163.641 380.01 171.173C380.007 169.494 380 167.819 379.987 166.147C412.149 161.995 435.177 132.653 431.432 100.345L428.736 77.0921L405.483 79.788C391.513 81.4078 379.235 87.7827 370.055 97.0951C369.703 96.1846 369.338 95.2766 368.961 94.373C393.279 77.6227 400.363 44.4259 384.568 19.1336L372.62 0L353.49 11.9488C340.888 19.8174 332.105 32.1216 328.759 46.5955C325.413 61.0694 327.903 75.981 335.772 88.5812L341.754 98.1616C351.826 117.32 353.746 139.359 353.746 173.215C353.746 211.513 343.843 241.213 323.47 264.012C305.308 284.337 281.432 296.915 258.342 309.08C246.551 315.292 234.627 321.575 224 328.888C213.372 321.576 201.448 315.292 189.658 309.08C166.567 296.915 142.692 284.337 124.529 264.012C104.157 241.213 94.2531 211.513 94.2531 173.215C94.2531 139.364 96.1723 117.324 106.241 98.1695L112.227 88.5821C120.096 75.9801 122.587 61.0694 119.24 46.5955C115.893 32.1216 107.111 19.8174 94.5105 11.9496L75.3778 0.000875078L63.4308 19.1345C47.6409 44.4215 54.7154 77.6078 79.0175 94.3625C78.6454 95.2468 78.2811 96.1373 77.9309 97.0365C68.4617 87.4298 56.1076 81.3657 42.5163 79.7897L19.2632 77.0939L16.5673 100.347C12.8217 132.657 35.8515 161.999 68.0178 166.15C68.0038 167.836 67.9959 169.51 67.9924 171.179C55.2784 163.645 39.9526 160.371 24.2705 162.995L0 167.059L4.06435 191.331C6.92655 208.422 16.2723 223.374 30.381 233.435C41.4989 241.364 54.5228 245.505 67.9084 245.505C71.5087 245.505 75.1387 245.205 78.7609 244.598L81.1354 244.2C81.5198 245.095 81.9086 245.987 82.3104 246.871C68.291 246.324 54.5333 250.297 42.7956 258.427L22.5098 272.478L36.5607 292.764C46.4738 307.076 61.3671 316.671 78.4956 319.78C82.4269 320.493 86.3652 320.847 90.2772 320.847C103.411 320.847 116.224 316.869 127.251 309.231L132.3 305.734C133.137 306.333 133.975 306.926 134.817 307.51C119.307 313.561 106.764 324.988 99.27 339.988L88.0524 362.44L110.504 373.658C120.102 378.454 130.311 380.725 140.376 380.725C164.627 380.725 188.018 367.527 199.933 344.697C201.133 345.408 202.302 346.116 203.443 346.823C193.562 358.346 187.261 372.508 187.261 391.127H213.528C213.528 379.667 217.144 370.87 224.001 363.105C230.858 370.87 234.475 379.667 234.475 391.127H260.742C260.742 372.508 254.44 358.346 244.559 346.823C245.7 346.117 246.87 345.409 248.07 344.698C259.985 367.531 283.373 380.726 307.627 380.726C317.688 380.726 327.901 378.453 337.497 373.659L359.949 362.441L348.731 339.989C341.013 324.54 328.095 313.372 313.15 307.534C314.003 306.942 314.854 306.342 315.702 305.735L320.751 309.232C331.778 316.87 344.589 320.848 357.725 320.848C361.636 320.848 365.577 320.495 369.506 319.781C386.635 316.671 401.528 307.076 411.442 292.764L425.491 272.479L405.207 258.428C393.469 250.299 379.713 246.324 365.692 246.871C366.093 245.987 366.482 245.096 366.866 244.201L369.237 244.597ZM405.551 106.359C405.964 122.337 394.797 136.435 379.149 139.688C378.735 123.71 389.903 109.612 405.551 106.359ZM417.714 188.657C415.706 198.132 410.303 206.39 402.368 212.048C394.433 217.707 384.863 220.123 375.253 218.935C379.401 199.409 397.897 186.222 417.714 188.657ZM354.351 52.5134C355.815 46.1831 359.25 40.6382 364.17 36.5607C366.802 42.3832 367.454 48.8728 365.99 55.204C364.526 61.5343 361.09 67.0801 356.171 71.1576C353.539 65.3342 352.887 58.8446 354.351 52.5134ZM83.8322 36.5625C88.7511 40.6382 92.185 46.1822 93.6481 52.5134C95.112 58.8437 94.4597 65.3334 91.8295 71.155C81.7317 62.7627 78.4422 48.5349 83.8322 36.5625ZM42.4471 106.358C50.0531 107.931 56.8028 112.08 61.684 118.242C66.5653 124.403 69.0597 131.923 68.8513 139.688C53.2007 136.435 42.0321 122.338 42.4471 106.358ZM45.6315 212.048C37.6963 206.39 32.2933 198.131 30.2856 188.657C50.096 186.219 68.5983 199.409 72.7467 218.935C63.1348 220.127 53.5658 217.706 45.6315 212.048ZM59.1046 279.122C67.3743 273.88 77.1648 271.963 86.8572 273.722C96.5488 275.482 105.042 280.718 110.94 288.534C93.8897 299.335 71.2723 295.229 59.1046 279.122ZM123.311 350.676C128.25 341.455 136.391 334.582 146.357 331.257C156.321 327.933 166.957 328.54 176.444 332.948C166.254 351.957 142.876 359.758 123.311 350.676ZM324.687 350.676C305.121 359.759 281.745 351.958 271.554 332.948C291.119 323.866 314.496 331.664 324.687 350.676ZM388.895 279.123C382.996 286.939 374.503 292.176 364.811 293.936C355.117 295.695 345.328 293.777 337.059 288.535C349.225 272.429 371.843 268.324 388.895 279.123Z" fill="#1D2031"/>
</svg>
