<svg width="44" height="44" viewBox="0 0 44 44" fill="none" xmlns="http://www.w3.org/2000/svg">
<path d="M22 44C34.1503 44 44 34.1503 44 22C44 9.84974 34.1503 0 22 0C9.84974 0 0 9.84974 0 22C0 34.1503 9.84974 44 22 44Z" fill="#4B5064"/>
<path d="M22 40.3334C32.1252 40.3334 40.3333 32.1253 40.3333 22.0001C40.3333 11.8749 32.1252 3.66675 22 3.66675C11.8748 3.66675 3.66667 11.8749 3.66667 22.0001C3.66667 32.1253 11.8748 40.3334 22 40.3334Z" fill="white"/>
<path d="M26.4475 27.1659C26.4472 27.1659 26.4466 27.1659 26.4463 27.1659L22.1427 27.1699C22.1403 27.1699 22.138 27.1696 22.1357 27.1696C22.1332 27.1696 22.1309 27.1699 22.1284 27.1699L20.9706 27.171C20.834 27.1711 20.7572 27.0139 20.8413 26.9062L27.4101 18.4924C27.734 18.0775 27.7925 17.515 27.5606 17.0429C27.3289 16.5707 26.8474 16.2714 26.3198 16.2714H23.6809C23.5904 16.2714 23.517 16.198 23.517 16.1075V14.3422C23.517 13.5822 22.8986 12.9661 22.1357 12.9661C21.3728 12.9661 20.7544 13.5822 20.7544 14.3422V16.1076C20.7544 16.1981 20.681 16.2714 20.5905 16.2714H17.808C17.0451 16.2714 16.4267 16.8876 16.4267 17.6476C16.4267 18.4076 17.0451 19.0238 17.808 19.0238H22.1339C22.1345 19.0238 22.135 19.0239 22.1357 19.0239C22.1363 19.0239 22.1369 19.0238 22.1375 19.0238H23.1596C23.2961 19.0238 23.3728 19.1809 23.2887 19.2885L16.7176 27.7053C16.3936 28.1203 16.3353 28.683 16.5674 29.1553C16.7993 29.6272 17.2806 29.9263 17.8079 29.9263H17.8091L20.5902 29.9237C20.6808 29.9236 20.7543 29.9971 20.7543 30.0876V31.5899C20.7543 32.3499 21.3727 32.9661 22.1356 32.9661C22.8985 32.9661 23.517 32.3499 23.517 31.5899V30.0847C23.517 29.9943 23.5902 29.9209 23.6807 29.9209L26.4487 29.9183C27.2116 29.9176 27.8295 29.301 27.8288 28.5409C27.8282 27.7812 27.2099 27.1659 26.4475 27.1659Z" fill="#272B38"/>
</svg>
