<svg width="24" height="24" viewBox="0 0 24 24" fill="none" xmlns="http://www.w3.org/2000/svg">
<path d="M12.1952 8.23919C12.7006 7.73147 13.3335 7.36945 14.0274 7.19124V2.00421C14.0274 1.47266 13.8162 0.962883 13.4404 0.58702C13.0645 0.211158 12.5547 0 12.0232 0L3.00421 0C2.47266 0 1.96288 0.211158 1.58702 0.58702C1.21116 0.962883 1 1.47266 1 2.00421V11.0232C1 11.5547 1.21116 12.0645 1.58702 12.4404C1.96288 12.8162 2.47266 13.0274 3.00421 13.0274H7.40697L12.1952 8.23919ZM10.019 3.00632C10.2172 3.00632 10.4109 3.06509 10.5757 3.1752C10.7405 3.28532 10.8689 3.44183 10.9448 3.62494C11.0206 3.80805 11.0405 4.00954 11.0018 4.20393C10.9631 4.39832 10.8677 4.57687 10.7276 4.71702C10.5874 4.85717 10.4088 4.95261 10.2145 4.99128C10.0201 5.02994 9.81858 5.0101 9.63547 4.93425C9.45236 4.8584 9.29585 4.72996 9.18574 4.56517C9.07562 4.40037 9.01685 4.20662 9.01685 4.00843C9.01685 3.74265 9.12243 3.48776 9.31036 3.29983C9.49829 3.1119 9.75318 3.00632 10.019 3.00632ZM10.019 7.01474C10.2172 7.01474 10.4109 7.07352 10.5757 7.18363C10.7405 7.29374 10.8689 7.45025 10.9448 7.63336C11.0206 7.81647 11.0405 8.01796 11.0018 8.21235C10.9631 8.40674 10.8677 8.5853 10.7276 8.72545C10.5874 8.86559 10.4088 8.96104 10.2145 8.9997C10.0201 9.03837 9.81858 9.01852 9.63547 8.94268C9.45236 8.86683 9.29585 8.73839 9.18574 8.57359C9.07562 8.4088 9.01685 8.21505 9.01685 8.01685C9.01685 7.75108 9.12243 7.49619 9.31036 7.30826C9.49829 7.12032 9.75318 7.01474 10.019 7.01474ZM5.00843 3.00632C5.20662 3.00632 5.40037 3.06509 5.56517 3.1752C5.72996 3.28532 5.8584 3.44183 5.93425 3.62494C6.0101 3.80805 6.02994 4.00954 5.99128 4.20393C5.95261 4.39832 5.85717 4.57687 5.71702 4.71702C5.57687 4.85717 5.39832 4.95261 5.20393 4.99128C5.00954 5.02994 4.80805 5.0101 4.62494 4.93425C4.44183 4.8584 4.28532 4.72996 4.1752 4.56517C4.06509 4.40037 4.00632 4.20662 4.00632 4.00843C4.00632 3.74265 4.1119 3.48776 4.29983 3.29983C4.48776 3.1119 4.74265 3.00632 5.00843 3.00632ZM5.00843 10.0211C4.81023 10.0211 4.61648 9.96229 4.45169 9.85218C4.28689 9.74207 4.15845 9.58556 4.0826 9.40245C4.00675 9.21934 3.98691 9.01785 4.02557 8.82346C4.06424 8.62907 4.15968 8.45051 4.29983 8.31036C4.43998 8.17021 4.61853 8.07477 4.81292 8.03611C5.00731 7.99744 5.2088 8.01729 5.39192 8.09313C5.57503 8.16898 5.73153 8.29742 5.84165 8.46222C5.95176 8.62701 6.01053 8.82076 6.01053 9.01896C6.01053 9.28473 5.90495 9.53962 5.71702 9.72755C5.52909 9.91549 5.2742 10.0211 5.00843 10.0211Z" fill="#696E87"/>
<path d="M22.1154 13.9076L16.9876 8.77965C16.8181 8.60954 16.6193 8.47134 16.4007 8.37167C15.1317 7.79633 13.7898 8.06114 12.9038 8.94788L7.77587 14.0752C7.60575 14.2447 7.46756 14.4435 7.36788 14.662C6.79255 15.9311 7.05736 17.273 7.9441 18.159L13.0719 23.2869C13.2414 23.457 13.4402 23.5952 13.6587 23.6949C14.9278 24.2702 16.2697 24.0054 17.1557 23.1187L22.2836 17.9909C22.4537 17.8213 22.5919 17.6225 22.6916 17.404C23.2664 16.1355 23.0016 14.7932 22.1154 13.9076ZM15.0295 17.0354C14.8313 17.0354 14.6375 16.9766 14.4727 16.8665C14.308 16.7564 14.1795 16.5999 14.1037 16.4168C14.0278 16.2337 14.008 16.0322 14.0466 15.8378C14.0853 15.6434 14.1807 15.4648 14.3209 15.3247C14.461 15.1845 14.6396 15.0891 14.834 15.0504C15.0284 15.0118 15.2299 15.0316 15.413 15.1074C15.5961 15.1833 15.7526 15.3117 15.8627 15.4765C15.9728 15.6413 16.0316 15.8351 16.0316 16.0333C16.0316 16.299 15.926 16.5539 15.7381 16.7419C15.5502 16.9298 15.2953 17.0354 15.0295 17.0354Z" fill="#696E87"/>
</svg>
