<svg width="24" height="24" viewBox="0 0 24 24" fill="none" xmlns="http://www.w3.org/2000/svg">
<path d="M6 1V11H18V1C18 0.734784 17.8946 0.48043 17.7071 0.292893C17.5196 0.105357 17.2652 0 17 0L7 0C6.73478 0 6.48043 0.105357 6.29289 0.292893C6.10536 0.48043 6 0.734784 6 1ZM13.169 8H11.8V5.352C11.8 5.03 11.807 4.736 11.821 4.47C11.7241 4.58468 11.6188 4.69197 11.506 4.791L10.939 5.259L10.239 4.398L11.952 3H13.169V8Z" fill="#696E87"/>
<path d="M0 14V23C0 23.2652 0.105357 23.5196 0.292893 23.7071C0.48043 23.8946 0.734784 24 1 24H11V13H1C0.734784 13 0.48043 13.1054 0.292893 13.2929C0.105357 13.4804 0 13.7348 0 14H0ZM7.284 21H3.658V20.111L4.878 18.877C5.22733 18.513 5.45533 18.2643 5.562 18.131C5.65012 18.0259 5.72501 17.9104 5.785 17.787C5.82743 17.6927 5.84925 17.5904 5.849 17.487C5.85188 17.4296 5.84198 17.3723 5.82002 17.3192C5.79806 17.2661 5.76458 17.2186 5.722 17.18C5.62191 17.0994 5.49529 17.059 5.367 17.067C5.19898 17.0699 5.0346 17.1164 4.89 17.202C4.69547 17.3169 4.5129 17.4509 4.345 17.602L3.6 16.731C3.79894 16.5447 4.0164 16.3791 4.249 16.237C4.42907 16.1362 4.62177 16.0599 4.822 16.01C5.05116 15.9548 5.2863 15.9283 5.522 15.931C5.81952 15.926 6.11471 15.9843 6.388 16.102C6.62789 16.2043 6.83336 16.3733 6.98 16.589C7.11898 16.7991 7.19178 17.0461 7.189 17.298C7.19563 17.665 7.09105 18.0255 6.889 18.332C6.76922 18.514 6.63226 18.6841 6.48 18.84C6.31067 19.018 5.949 19.3553 5.395 19.852V19.886H7.285L7.284 21Z" fill="#696E87"/>
<path d="M13 13V24H23C23.2652 24 23.5196 23.8946 23.7071 23.7071C23.8946 23.5196 24 23.2652 24 23V14C24 13.7348 23.8946 13.4804 23.7071 13.2929C23.5196 13.1054 23.2652 13 23 13H13ZM19.712 20.668C19.2559 20.9595 18.7194 21.0995 18.179 21.068C17.9288 21.0697 17.6789 21.0503 17.432 21.01C17.1775 20.9646 16.9282 20.8936 16.688 20.798V19.677C16.8998 19.7864 17.1241 19.8697 17.356 19.925C17.5615 19.976 17.7723 20.0029 17.984 20.005C18.2071 20.0206 18.4304 19.9778 18.632 19.881C18.6977 19.8399 18.751 19.7817 18.7862 19.7127C18.8215 19.6436 18.8373 19.5663 18.832 19.489C18.8396 19.3738 18.8015 19.2603 18.726 19.173C18.6301 19.0861 18.5115 19.0282 18.384 19.006C18.1819 18.9635 17.9755 18.9444 17.769 18.949H17.461V17.934H17.776C18.462 17.934 18.805 17.7587 18.805 17.408C18.8085 17.3497 18.7962 17.2916 18.7692 17.2398C18.7423 17.188 18.7018 17.1445 18.652 17.114C18.5282 17.0428 18.3867 17.0081 18.244 17.014C17.8899 17.025 17.5463 17.1363 17.253 17.335L16.692 16.435C16.9393 16.2611 17.2137 16.1293 17.504 16.045C17.8147 15.9636 18.1349 15.9246 18.456 15.929C18.8836 15.9052 19.3082 16.0126 19.673 16.237C19.8128 16.3287 19.9267 16.4547 20.0039 16.603C20.0811 16.7513 20.119 16.9169 20.114 17.084C20.12 17.3764 20.019 17.6608 19.83 17.884C19.6113 18.1236 19.3256 18.2918 19.01 18.367V18.388C19.844 18.4933 20.261 18.8873 20.261 19.57C20.2688 19.7844 20.2226 19.9973 20.1267 20.1891C20.0308 20.381 19.8882 20.5456 19.712 20.668Z" fill="#696E87"/>
</svg>
