<svg width="24" height="24" viewBox="0 0 24 24" fill="none" xmlns="http://www.w3.org/2000/svg">
<path d="M23 21H1C0.447715 21 0 21.4477 0 22C0 22.5523 0.447716 23 1 23H23C23.5523 23 24 22.5523 24 22C24 21.4477 23.5523 21 23 21Z" fill="#696E87"/>
<path d="M4 18H6C6.552 18 7 17.552 7 17V9C7 8.448 6.552 8 6 8H4C3.448 8 3 8.448 3 9V17C3 17.552 3.448 18 4 18Z" fill="#696E87"/>
<path d="M11 18H13C13.552 18 14 17.552 14 17V2C14 1.448 13.552 1 13 1H11C10.448 1 10 1.448 10 2V17C10 17.552 10.448 18 11 18Z" fill="#696E87"/>
<path d="M17 12V17C17 17.552 17.448 18 18 18H20C20.552 18 21 17.552 21 17V12C21 11.448 20.552 11 20 11H18C17.448 11 17 11.448 17 12Z" fill="#696E87"/>
</svg>
