<svg width="24" height="24" viewBox="0 0 24 24" fill="none" xmlns="http://www.w3.org/2000/svg">
<g clip-path="url(#clip0)">
<path d="M5.59174 18.1904C5.37836 18.0516 5.25011 17.8146 5.25049 17.5604V1.5H18.7498V17.5604C18.7502 17.8147 18.622 18.0517 18.4086 18.1904L12.0001 22.3527L5.59174 18.1904Z" fill="#9E75F5"/>
<path d="M13.474 12.9851L12.7241 11.1102C12.6479 10.9174 12.4301 10.8233 12.2373 10.8994C12.1409 10.9377 12.0644 11.0138 12.0266 11.1102L11.2766 12.9851C11.241 13.0743 11.241 13.1733 11.2766 13.2626L12.0266 15.1375C12.1027 15.3302 12.3206 15.4244 12.5133 15.3482C12.6097 15.31 12.6862 15.2339 12.7241 15.1375L13.474 13.2626C13.5093 13.1733 13.5093 13.0743 13.474 12.9851Z" fill="#936BE9"/>
<path d="M18.1871 4.87451C17.8766 4.87451 17.6246 5.12651 17.6246 5.43696V8.86806C17.6246 9.14781 17.3981 9.37426 17.1184 9.37426H17.1147H17.0622C16.7535 9.37201 16.5021 10.2311 16.4999 10.5397V10.5435L15.1387 9.99976C15.0494 9.96413 14.9504 9.96413 14.8612 9.99976L12.9862 10.7498C12.7935 10.8259 12.6994 11.0438 12.7755 11.2365C12.8137 11.3329 12.8899 11.4094 12.9862 11.4473L14.8611 12.1972C14.9504 12.2328 15.0494 12.2328 15.1386 12.1972L16.4998 11.6647L16.4997 13.3717C16.4974 13.6514 16.2694 13.8764 15.9897 13.8742H15.9409C15.6304 13.8719 15.377 14.1224 15.3747 14.4329V14.4366V16.124C15.3721 17.7911 14.5254 19.344 13.1248 20.2488C12.421 20.7119 11.998 21.4986 11.9999 22.3412L18.4083 18.1901C18.6037 18.0645 18.7297 17.8553 18.7496 17.6239V4.87451H18.1871Z" fill="#936BE9"/>
<path d="M13.6624 7.80533L12.8164 5.69036C12.7305 5.47293 12.4847 5.36675 12.2673 5.45262C12.1586 5.49577 12.0723 5.58164 12.0296 5.69036L11.1836 7.80533C11.1434 7.90601 11.1434 8.01769 11.1836 8.11836L12.0296 10.2333C12.1154 10.4508 12.3612 10.5569 12.5786 10.4711C12.6874 10.4279 12.7737 10.3421 12.8164 10.2333L13.6624 8.11836C13.7021 8.01769 13.7021 7.90601 13.6624 7.80533Z" fill="#936BE9"/>
<path d="M9.61887 12.1627L11.7339 11.3167C11.9513 11.2309 12.0575 10.9851 11.9716 10.7677C11.9284 10.6589 11.8426 10.5727 11.7339 10.5299L9.61887 9.68395C9.51819 9.64376 9.40651 9.64376 9.30583 9.68395L7.19085 10.5299C6.97342 10.6158 6.86724 10.8616 6.95311 11.079C6.99626 11.1877 7.08213 11.274 7.19085 11.3167L9.30583 12.1627C9.40609 12.2029 9.51819 12.2029 9.61887 12.1627Z" fill="#936BE9"/>
<path d="M13.2394 7.38248L12.3934 5.26751C12.3075 5.05008 12.0618 4.9439 11.8443 5.02977C11.7356 5.07292 11.6493 5.15879 11.6066 5.26751L10.7606 7.38248C10.7204 7.48316 10.7204 7.59484 10.7606 7.69552L11.6066 9.81049C11.6925 10.0279 11.9382 10.1341 12.1556 10.0482C12.2643 10.0051 12.3506 9.91921 12.3934 9.81049L13.2393 7.69552C13.2792 7.59479 13.2792 7.48316 13.2394 7.38248Z" fill="white"/>
<path d="M13.2394 13.3044L12.3934 11.1894C12.3075 10.972 12.0618 10.8658 11.8443 10.9516C11.7356 10.9948 11.6493 11.0807 11.6066 11.1894L10.7606 13.3044C10.7204 13.405 10.7204 13.5167 10.7606 13.6174L11.6066 15.7324C11.6925 15.9498 11.9382 16.056 12.1556 15.9701C12.2643 15.927 12.3506 15.8411 12.3934 15.7324L13.2393 13.6174C13.2792 13.5167 13.2792 13.405 13.2394 13.3044Z" fill="white"/>
<path d="M15.117 11.7394L17.232 10.8934C17.4494 10.8075 17.5556 10.5618 17.4697 10.3443C17.4266 10.2356 17.3407 10.1493 17.232 10.1066L15.117 9.26061C15.0163 9.22042 14.9047 9.22042 14.804 9.26061L12.689 10.1066C12.4716 10.1925 12.3654 10.4382 12.4513 10.6557C12.4944 10.7644 12.5803 10.8507 12.689 10.8934L14.804 11.7394C14.9042 11.7796 15.0163 11.7796 15.117 11.7394Z" fill="white"/>
<path d="M9.19539 11.7394L11.3104 10.8934C11.5278 10.8075 11.634 10.5618 11.5481 10.3443C11.505 10.2356 11.4191 10.1493 11.3104 10.1066L9.19539 9.26061C9.09472 9.22042 8.98304 9.22042 8.88236 9.26061L6.76738 10.1066C6.54995 10.1925 6.44378 10.4382 6.52965 10.6557C6.5728 10.7644 6.65867 10.8507 6.76738 10.8934L8.88236 11.7394C8.98262 11.7796 9.09472 11.7796 9.19539 11.7394Z" fill="white"/>
<path d="M12.3933 15.7327L13.2393 13.6177C13.2794 13.517 13.2794 13.4054 13.2393 13.3047L12.3933 11.1897C12.3298 11.029 11.9999 11.1897 11.9999 11.7692V15.9991C12.1729 15.9992 12.329 15.8939 12.3933 15.7327Z" fill="#DDDFE1"/>
<path d="M12.3933 9.81032L13.2393 7.69534C13.2794 7.59467 13.2794 7.48299 13.2393 7.38231L12.3933 5.26734C12.3298 5.10659 11.9999 5.26734 11.9999 5.84682V10.0768C12.1729 10.0768 12.329 9.97143 12.3933 9.81032Z" fill="#DDDFE1"/>
<path d="M12.6888 10.8934L14.8038 11.7394C14.9045 11.7796 15.0162 11.7796 15.1168 11.7394L17.2318 10.8934C17.393 10.8291 17.4983 10.6734 17.4983 10.5H12.4224C12.4219 10.6734 12.5277 10.8291 12.6888 10.8934Z" fill="#DDDFE1"/>
<path d="M6.76723 10.8934L8.88221 11.7394C8.98289 11.7796 9.09456 11.7796 9.19524 11.7394L11.3102 10.8934C11.4714 10.8291 11.5767 10.6734 11.5767 10.5H6.50073C6.50031 10.6734 6.60607 10.8291 6.76723 10.8934Z" fill="#DDDFE1"/>
<path d="M18.7498 0H5.25056C4.42223 0 3.75061 0.671575 3.75061 1.49995V17.5604C3.75436 18.3178 4.13911 19.0225 4.77431 19.4353L11.5915 23.8788C11.8401 24.0405 12.1603 24.0405 12.4089 23.8788L19.226 19.4465C19.8612 19.0337 20.246 18.3291 20.2497 17.5716V1.49995C20.2498 0.671575 19.5782 0 18.7498 0ZM18.7498 3.20985C18.4277 2.91735 18.028 2.7246 17.5986 2.6549C17.5285 2.22365 17.3343 1.82245 17.0399 1.49995H18.7498V3.20985ZM6.96046 1.49995C6.66683 1.8217 6.47258 2.2214 6.40176 2.65115C5.97201 2.72202 5.57231 2.91627 5.25056 3.20985V1.49995H6.96046ZM12.0002 22.3526L10.759 21.5464C11.2768 21.3308 11.7118 20.9547 12.0002 20.474C12.2886 20.9547 12.7235 21.3308 13.2414 21.5464L12.0002 22.3526ZM18.7498 17.5603C18.7502 17.8146 18.622 18.0516 18.4086 18.1903L14.1076 20.9989C13.1281 20.9243 12.3722 20.1064 12.3752 19.124C12.3752 18.917 12.2072 18.749 12.0002 18.749C11.7932 18.749 11.6252 18.917 11.6252 19.124C11.6282 20.1064 10.8722 20.9243 9.89276 20.9989L5.59171 18.1903C5.37834 18.0515 5.25009 17.8145 5.25046 17.5603V4.87475C5.25046 4.04642 5.92204 3.37485 6.75036 3.37485C6.95736 3.37485 7.12536 3.20685 7.12536 2.99985C7.12536 2.17152 7.79694 1.4999 8.62531 1.4999H15.375C16.2033 1.4999 16.8749 2.17148 16.8749 2.99985C16.8749 3.20685 17.0429 3.37485 17.2499 3.37485C18.0782 3.37485 18.7498 4.04642 18.7498 4.87475V17.5603Z" fill="#222638"/>
<path d="M3.75061 1.4999V14.2492C4.16498 14.2492 4.50056 13.9136 4.50056 13.4993V1.4999C4.50056 1.08553 4.83618 0.74995 5.25051 0.74995H17.9999C18.4142 0.74995 18.7498 0.414326 18.7498 2.45369e-09H5.25056C4.42186 -4.68724e-05 3.75061 0.671529 3.75061 1.4999Z" fill="#2F344B"/>
<path d="M19.2259 19.4467C19.8611 19.0338 20.2458 18.3292 20.2496 17.5718V2.625C19.8352 2.625 19.4996 2.96062 19.4996 3.37495V17.6467C19.4996 18.0236 19.311 18.3757 18.9972 18.5842L12.6224 22.8327C12.2332 23.0934 11.9996 23.5306 12 23.9989C12.1451 23.9993 12.2869 23.9577 12.4087 23.8789L19.2259 19.4467Z" fill="#191C2A"/>
</g>
<defs>
<clipPath id="clip0">
<rect width="24" height="24" fill="white"/>
</clipPath>
</defs>
</svg>
