<svg width="24" height="24" viewBox="0 0 24 24" fill="none" xmlns="http://www.w3.org/2000/svg">
<g clip-path="url(#clip0)">
<path d="M5.59174 18.1904C5.37836 18.0516 5.25011 17.8146 5.25049 17.5604V1.5H18.7498V17.5604C18.7502 17.8147 18.622 18.0517 18.4086 18.1904L12.0001 22.3527L5.59174 18.1904Z" fill="#9E75F5"/>
<path d="M18.1871 4.87451C17.8766 4.87451 17.6246 5.12651 17.6246 5.43696V8.86806C17.6246 9.14781 17.3981 9.37426 17.1184 9.37426C17.1173 9.37426 17.1158 9.37426 17.1147 9.37426H17.0622C16.7536 9.37201 16.502 9.62063 16.4997 9.92921C16.4997 9.93034 16.4997 9.93184 16.4997 9.93296V13.3678C16.4997 13.6476 16.2732 13.874 15.9935 13.874C15.9924 13.874 15.9909 13.874 15.9898 13.874H15.941C15.6305 13.8718 15.3771 14.1223 15.3748 14.4327C15.3748 14.4338 15.3748 14.4353 15.3748 14.4365V16.1239C15.3722 17.791 14.5255 19.3438 13.125 20.2487C12.4211 20.7118 11.9981 21.4985 12 22.3411L18.4084 18.19C18.6038 18.0644 18.7298 17.8551 18.7497 17.6238V4.87451H18.1871Z" fill="#936BE9"/>
<path d="M18.7498 0H5.25056C4.42223 0 3.75061 0.671575 3.75061 1.49995V17.5604C3.75436 18.3178 4.13911 19.0225 4.77431 19.4353L11.5915 23.8788C11.8401 24.0405 12.1603 24.0405 12.4089 23.8788L19.226 19.4465C19.8612 19.0337 20.246 18.3291 20.2497 17.5716V1.49995C20.2498 0.671575 19.5782 0 18.7498 0ZM18.7498 3.20985C18.4277 2.91735 18.028 2.7246 17.5986 2.6549C17.5285 2.22365 17.3343 1.82245 17.0399 1.49995H18.7498V3.20985ZM6.96046 1.49995C6.66683 1.8217 6.47258 2.2214 6.40176 2.65115C5.97201 2.72202 5.57231 2.91627 5.25056 3.20985V1.49995H6.96046ZM12.0002 22.3526L10.759 21.5464C11.2768 21.3308 11.7118 20.9547 12.0002 20.474C12.2886 20.9547 12.7235 21.3308 13.2414 21.5464L12.0002 22.3526ZM18.7498 17.5603C18.7502 17.8146 18.622 18.0516 18.4086 18.1903L14.1076 20.9989C13.1281 20.9243 12.3722 20.1064 12.3752 19.124C12.3752 18.917 12.2072 18.749 12.0002 18.749C11.7932 18.749 11.6252 18.917 11.6252 19.124C11.6282 20.1064 10.8722 20.9243 9.89276 20.9989L5.59171 18.1903C5.37834 18.0515 5.25009 17.8145 5.25046 17.5603V4.87475C5.25046 4.04642 5.92204 3.37485 6.75036 3.37485C6.95736 3.37485 7.12536 3.20685 7.12536 2.99985C7.12536 2.17152 7.79694 1.4999 8.62531 1.4999H15.375C16.2033 1.4999 16.8749 2.17148 16.8749 2.99985C16.8749 3.20685 17.0429 3.37485 17.2499 3.37485C18.0782 3.37485 18.7498 4.04642 18.7498 4.87475V17.5603Z" fill="#222638"/>
<path d="M14.0934 6.93852L13.0565 4.34641C12.9513 4.07993 12.6501 3.9498 12.3836 4.05504C12.2503 4.10792 12.1446 4.21317 12.0922 4.34641L11.0554 6.93852C11.0061 7.06191 11.0061 7.19878 11.0554 7.32217L12.0922 9.91428C12.1975 10.1808 12.4987 10.3109 12.7652 10.2056C12.8984 10.1528 13.0042 10.0475 13.0565 9.91428L14.0934 7.32217C14.1421 7.19878 14.1421 7.06191 14.0934 6.93852Z" fill="#936BE9"/>
<path d="M14.0932 14.1963L13.0564 11.6042C12.9512 11.3377 12.6499 11.2076 12.3835 11.3129C12.2502 11.3657 12.1445 11.471 12.0921 11.6042L11.0553 14.1963C11.006 14.3197 11.006 14.4566 11.0553 14.58L12.0921 17.1721C12.1973 17.4386 12.4986 17.5687 12.765 17.4635C12.8983 17.4106 13.004 17.3054 13.0564 17.1721L14.0932 14.58C14.142 14.4566 14.142 14.3197 14.0932 14.1963Z" fill="#936BE9"/>
<path d="M13.5749 6.41997L12.5381 3.82786C12.4328 3.56137 12.1316 3.43124 11.8651 3.53649C11.7319 3.58937 11.6261 3.69461 11.5738 3.82786L10.5369 6.41997C10.4877 6.54336 10.4877 6.68023 10.5369 6.80362L11.5738 9.39574C11.679 9.66222 11.9802 9.79235 12.2467 9.6871C12.3799 9.63422 12.4857 9.52898 12.538 9.39574L13.5749 6.80362C13.6237 6.68017 13.6237 6.54336 13.5749 6.41997Z" fill="white"/>
<path d="M13.5749 13.6778L12.5381 11.0857C12.4328 10.8192 12.1316 10.6891 11.8651 10.7943C11.7319 10.8472 11.6261 10.9524 11.5738 11.0857L10.5369 13.6778C10.4877 13.8012 10.4877 13.9381 10.5369 14.0614L11.5738 16.6536C11.679 16.9201 11.9802 17.0502 12.2467 16.9449C12.3799 16.8921 12.4857 16.7868 12.538 16.6536L13.5749 14.0614C13.6237 13.9381 13.6237 13.8012 13.5749 13.6778Z" fill="white"/>
<path d="M12.5381 16.6537L13.5749 14.0616C13.6241 13.9382 13.6241 13.8013 13.5749 13.6779L12.5381 11.0858C12.4603 10.8888 12.0559 11.0858 12.0559 11.796V16.9802C12.268 16.9803 12.4593 16.8512 12.5381 16.6537Z" fill="#DDDFE1"/>
<path d="M12.5382 9.39584L13.575 6.80374C13.6243 6.68034 13.6243 6.54347 13.575 6.42008L12.5382 3.82797C12.4604 3.63096 12.056 3.82797 12.056 4.53818V9.7224C12.2681 9.7224 12.4594 9.59331 12.5382 9.39584Z" fill="#DDDFE1"/>
<path d="M3.75061 1.4999V14.2492C4.16498 14.2492 4.50056 13.9136 4.50056 13.4993V1.4999C4.50056 1.08553 4.83618 0.74995 5.25051 0.74995H17.9999C18.4142 0.74995 18.7498 0.414326 18.7498 2.45369e-09H5.25056C4.42186 -4.68724e-05 3.75061 0.671529 3.75061 1.4999Z" fill="#2F344B"/>
<path d="M19.2259 19.4467C19.8611 19.0338 20.2458 18.3292 20.2496 17.5718V2.625C19.8352 2.625 19.4996 2.96062 19.4996 3.37495V17.6467C19.4996 18.0236 19.311 18.3757 18.9972 18.5842L12.6224 22.8327C12.2332 23.0934 11.9996 23.5306 12 23.9989C12.1451 23.9993 12.2869 23.9577 12.4087 23.8789L19.2259 19.4467Z" fill="#191C2A"/>
</g>
<defs>
<clipPath id="clip0">
<rect width="24" height="24" fill="white"/>
</clipPath>
</defs>
</svg>
