<svg width="24" height="24" viewBox="0 0 24 24" fill="none" xmlns="http://www.w3.org/2000/svg">
<g clip-path="url(#clip0)">
<path d="M5.59137 18.1904C5.378 18.0516 5.24975 17.8146 5.25012 17.5604V1.5H18.7495V17.5604C18.7498 17.8147 18.6216 18.0517 18.4082 18.1904L11.9998 22.3527L5.59137 18.1904Z" fill="#0ACEFA"/>
<path d="M18.1871 4.87451C17.8766 4.87451 17.6246 5.12651 17.6246 5.43696V8.86806C17.6246 9.14781 17.3981 9.37426 17.1184 9.37426C17.1173 9.37426 17.1158 9.37426 17.1147 9.37426H17.0622C16.7536 9.37201 16.502 9.62063 16.4997 9.92921C16.4997 9.93034 16.4997 9.93184 16.4997 9.93296V13.3678C16.4997 13.6476 16.2732 13.874 15.9935 13.874C15.9924 13.874 15.9909 13.874 15.9898 13.874H15.941C15.6305 13.8718 15.3771 14.1223 15.3748 14.4327C15.3748 14.4338 15.3748 14.4353 15.3748 14.4365V16.1239C15.3722 17.791 14.5255 19.3438 13.125 20.2487C12.4211 20.7118 11.9981 21.4985 12 22.3411L18.4084 18.19C18.6038 18.0644 18.7298 17.8551 18.7497 17.6238V4.87451H18.1871Z" fill="#05B5DD"/>
<path d="M5.25037 1.50005V12.3745H5.81282C6.12332 12.3745 6.37527 12.1225 6.37527 11.8121V8.00601C6.38277 7.71838 6.62239 7.49118 6.91034 7.49905C6.91709 7.49905 6.92384 7.49943 6.93022 7.4998C7.24072 7.50393 7.49604 7.2553 7.50017 6.94485C7.50017 6.94223 7.50017 6.93998 7.50017 6.93735V4.1249C7.50017 3.29658 8.17174 2.62495 9.00007 2.62495H16.1247C16.746 2.62495 17.2497 2.12137 17.2497 1.5H5.25037V1.50005Z" fill="#65E3FF"/>
<path d="M15.3561 10.1059C15.3111 9.97239 15.1952 9.87526 15.0561 9.85464L13.44 9.60714L12.7125 8.05848C12.6243 7.87098 12.4008 7.79035 12.2137 7.87848C12.1346 7.9156 12.0712 7.97935 12.0337 8.05848L11.3063 9.60714L9.69011 9.85464C9.48462 9.88051 9.33912 10.0684 9.36537 10.2739C9.37624 10.3601 9.41674 10.44 9.48011 10.4996L10.6613 11.7108L10.3838 13.4245C10.3587 13.63 10.5049 13.8171 10.7104 13.8422C10.7881 13.8516 10.8664 13.8366 10.9351 13.7995L12.375 13.0008L13.815 13.7957C13.9968 13.8947 14.2245 13.8272 14.3234 13.6454C14.3605 13.5767 14.3755 13.4984 14.3662 13.4207L14.0887 11.7071L15.2699 10.4996C15.3726 10.3961 15.4064 10.2428 15.3561 10.1059Z" fill="#05B5DD"/>
<path d="M14.9812 9.44573C14.9362 9.31223 14.8203 9.2151 14.6812 9.19448L13.065 8.94698L12.3375 7.39832C12.2494 7.21082 12.0259 7.1302 11.8388 7.21832C11.7597 7.25545 11.6963 7.3192 11.6588 7.39832L10.9314 8.94698L9.31523 9.19448C9.11048 9.22598 8.97023 9.4176 9.00173 9.62235C9.01373 9.69998 9.05011 9.77235 9.10523 9.82822L10.2864 11.0394L10.0089 12.7493C9.98381 12.9548 10.1301 13.142 10.3356 13.1671C10.4132 13.1765 10.4916 13.1615 10.5602 13.1243L12.0001 12.3406L13.4401 13.1243C13.622 13.2233 13.8496 13.1558 13.9485 12.974C13.9857 12.9053 14.0007 12.827 13.9913 12.7493L13.7138 11.0357L14.895 9.82447C14.9917 9.72393 15.025 9.57805 14.9812 9.44573Z" fill="white"/>
<path d="M14.9811 9.44584C14.9361 9.31234 14.8202 9.21521 14.6811 9.19459L14.3398 9.14209C14.3245 9.16946 14.3053 9.19459 14.2836 9.21709L13.4099 10.1245C13.2164 10.3225 13.1302 10.6015 13.1774 10.8745L13.3874 12.157C13.4125 12.3625 13.2663 12.5496 13.0608 12.5747C12.9832 12.5841 12.9048 12.5691 12.8362 12.532L11.7112 11.917C11.5046 11.803 11.2541 11.803 11.0475 11.917L10.0388 12.472L10.0088 12.7495C9.98366 12.955 10.1299 13.1421 10.3354 13.1672C10.413 13.1766 10.4914 13.1616 10.56 13.1245L12 12.3408L13.44 13.1245C13.6218 13.2235 13.8495 13.156 13.9484 12.9741C13.9855 12.9055 14.0005 12.8271 13.9912 12.7495L13.7137 11.0358L14.8949 9.82459C14.9916 9.72404 15.025 9.57817 14.9811 9.44584Z" fill="#DDDFE1"/>
<path d="M18.7496 0H5.25031C4.42199 0 3.75037 0.671575 3.75037 1.49995V17.5604C3.75412 18.3178 4.13886 19.0225 4.77407 19.4353L11.5912 23.8788C11.8398 24.0405 12.16 24.0405 12.4087 23.8788L19.2258 19.4465C19.861 19.0337 20.2458 18.3291 20.2495 17.5716V1.49995C20.2495 0.671575 19.5779 0 18.7496 0ZM18.7496 3.20985C18.4275 2.91735 18.0278 2.7246 17.5984 2.6549C17.5283 2.22365 17.334 1.82245 17.0397 1.49995H18.7496V3.20985ZM6.96021 1.49995C6.66659 1.8217 6.47234 2.2214 6.40151 2.65115C5.97176 2.72202 5.57206 2.91627 5.25031 3.20985V1.49995H6.96021ZM12 22.3526L10.7588 21.5464C11.2766 21.3308 11.7116 20.9547 12 20.474C12.2883 20.9547 12.7233 21.3308 13.2412 21.5464L12 22.3526ZM18.7496 17.5603C18.75 17.8146 18.6217 18.0516 18.4084 18.1903L14.1073 20.9989C13.1279 20.9243 12.3719 20.1064 12.3749 19.124C12.3749 18.917 12.2069 18.749 11.9999 18.749C11.7929 18.749 11.6249 18.917 11.6249 19.124C11.6279 20.1064 10.872 20.9243 9.89251 20.9989L5.59147 18.1903C5.37809 18.0515 5.24984 17.8145 5.25022 17.5603V4.87475C5.25022 4.04642 5.92179 3.37485 6.75012 3.37485C6.95712 3.37485 7.12512 3.20685 7.12512 2.99985C7.12512 2.17152 7.79669 1.4999 8.62507 1.4999H15.3747C16.203 1.4999 16.8747 2.17148 16.8747 2.99985C16.8747 3.20685 17.0427 3.37485 17.2497 3.37485C18.078 3.37485 18.7496 4.04642 18.7496 4.87475V17.5603Z" fill="#2D4961"/>
<path d="M3.75037 1.4999V14.2492C4.16474 14.2492 4.50032 13.9136 4.50032 13.4993V1.4999C4.50032 1.08553 4.83594 0.74995 5.25027 0.74995H17.9996C18.414 0.74995 18.7496 0.414326 18.7496 2.45369e-09H5.25031C4.42161 -4.68724e-05 3.75037 0.671529 3.75037 1.4999Z" fill="#44637F"/>
<path d="M19.2259 19.4462C19.8611 19.0333 20.2458 18.3287 20.2496 17.5713V2.62451C19.8352 2.62451 19.4996 2.96014 19.4996 3.37446V17.6462C19.4996 18.0231 19.311 18.3752 18.9972 18.5837L12.6224 22.8322C12.2332 23.0929 11.9996 23.5301 12 23.9984C12.1451 23.9988 12.2869 23.9572 12.4087 23.8784L19.2259 19.4462Z" fill="#123247"/>
</g>
<defs>
<clipPath id="clip0">
<rect width="24" height="24" fill="white"/>
</clipPath>
</defs>
</svg>
