<svg width="24" height="24" viewBox="0 0 24 24" fill="none" xmlns="http://www.w3.org/2000/svg">
<g clip-path="url(#clip0)">
<path d="M5.59149 18.1904C5.37812 18.0516 5.24987 17.8146 5.25024 17.5604V1.5H18.7496V17.5604C18.75 17.8147 18.6217 18.0517 18.4083 18.1904L11.9999 22.3527L5.59149 18.1904Z" fill="#9E75F5"/>
<path d="M18.1871 4.87451C17.8766 4.87451 17.6246 5.12651 17.6246 5.43696V8.86806C17.6246 9.14781 17.3981 9.37426 17.1184 9.37426C17.1173 9.37426 17.1158 9.37426 17.1147 9.37426H17.0622C16.7536 9.37201 16.502 9.62063 16.4997 9.92921C16.4997 9.93034 16.4997 9.93184 16.4997 9.93296V13.3678C16.4997 13.6476 16.2732 13.874 15.9935 13.874C15.9924 13.874 15.9909 13.874 15.9898 13.874H15.941C15.6305 13.8718 15.3771 14.1223 15.3748 14.4327C15.3748 14.4338 15.3748 14.4353 15.3748 14.4365V16.1239C15.3722 17.791 14.5255 19.3438 13.125 20.2487C12.4211 20.7118 11.9981 21.4985 12 22.3411L18.4084 18.19C18.6038 18.0644 18.7298 17.8551 18.7497 17.6238V4.87451H18.1871Z" fill="#936BE9"/>
<path d="M18.7496 0H5.25031C4.42199 0 3.75037 0.671575 3.75037 1.49995V17.5604C3.75412 18.3178 4.13886 19.0225 4.77407 19.4353L11.5912 23.8788C11.8398 24.0405 12.16 24.0405 12.4087 23.8788L19.2258 19.4465C19.861 19.0337 20.2458 18.3291 20.2495 17.5716V1.49995C20.2496 0.671575 19.5779 0 18.7496 0ZM18.7496 3.20985C18.4275 2.91735 18.0278 2.7246 17.5984 2.6549C17.5283 2.22365 17.334 1.82245 17.0397 1.49995H18.7496V3.20985ZM6.96021 1.49995C6.66659 1.8217 6.47234 2.2214 6.40151 2.65115C5.97176 2.72202 5.57206 2.91627 5.25031 3.20985V1.49995H6.96021ZM12 22.3526L10.7588 21.5464C11.2766 21.3308 11.7116 20.9547 12 20.474C12.2883 20.9547 12.7233 21.3308 13.2412 21.5464L12 22.3526ZM18.7496 17.5603C18.75 17.8146 18.6217 18.0516 18.4084 18.1903L14.1073 20.9989C13.1279 20.9243 12.3719 20.1064 12.3749 19.124C12.3749 18.917 12.2069 18.749 11.9999 18.749C11.7929 18.749 11.6249 18.917 11.6249 19.124C11.6279 20.1064 10.872 20.9243 9.89251 20.9989L5.59147 18.1903C5.37809 18.0515 5.24984 17.8145 5.25022 17.5603V4.87475C5.25022 4.04642 5.9218 3.37485 6.75012 3.37485C6.95712 3.37485 7.12512 3.20685 7.12512 2.99985C7.12512 2.17152 7.79669 1.4999 8.62507 1.4999H15.3747C16.203 1.4999 16.8747 2.17148 16.8747 2.99985C16.8747 3.20685 17.0427 3.37485 17.2497 3.37485C18.078 3.37485 18.7496 4.04642 18.7496 4.87475V17.5603Z" fill="#222638"/>
<path d="M14.7639 10.08L13.5336 7.00426C13.4087 6.68806 13.0513 6.53365 12.7351 6.65853C12.577 6.72128 12.4515 6.84616 12.3894 7.00426L11.1591 10.08C11.1006 10.2264 11.1006 10.3888 11.1591 10.5353L12.3894 13.611C12.5142 13.9272 12.8717 14.0816 13.1879 13.9568C13.346 13.894 13.4715 13.7691 13.5336 13.611L14.7639 10.5353C14.8217 10.3888 14.8217 10.2264 14.7639 10.08Z" fill="#936BE9"/>
<path d="M14.1487 9.46479L12.9184 6.38903C12.7935 6.07282 12.4361 5.91841 12.1199 6.04329C11.9618 6.10604 11.8363 6.23093 11.7741 6.38903L10.5438 9.46479C10.4854 9.6112 10.4854 9.77361 10.5438 9.92003L11.7741 12.9958C11.899 13.312 12.2564 13.4664 12.5726 13.3415C12.7307 13.2788 12.8562 13.1539 12.9183 12.9958L14.1486 9.92003C14.2065 9.77361 14.2065 9.6112 14.1487 9.46479Z" fill="white"/>
<path d="M12.9182 12.996L14.1485 9.92028C14.2069 9.77386 14.2069 9.61145 14.1485 9.46504L12.9182 6.38928C12.8259 6.15551 12.3461 6.38928 12.3461 7.232V13.3835C12.5977 13.3836 12.8247 13.2304 12.9182 12.996Z" fill="#DDDFE1"/>
<path d="M3.75037 1.4999V14.2492C4.16474 14.2492 4.50032 13.9136 4.50032 13.4993V1.4999C4.50032 1.08553 4.83594 0.74995 5.25027 0.74995H17.9996C18.414 0.74995 18.7496 0.414326 18.7496 2.45369e-09H5.25031C4.42161 -4.68724e-05 3.75037 0.671529 3.75037 1.4999Z" fill="#2F344B"/>
<path d="M19.2259 19.4462C19.8611 19.0333 20.2458 18.3287 20.2496 17.5713V2.62451C19.8352 2.62451 19.4996 2.96014 19.4996 3.37446V17.6462C19.4996 18.0231 19.311 18.3752 18.9972 18.5837L12.6224 22.8322C12.2332 23.0929 11.9996 23.5301 12 23.9984C12.1451 23.9988 12.2869 23.9572 12.4087 23.8784L19.2259 19.4462Z" fill="#191C2B"/>
</g>
<defs>
<clipPath id="clip0">
<rect width="24" height="24" fill="white"/>
</clipPath>
</defs>
</svg>
