<svg width="24" height="24" viewBox="0 0 24 24" fill="none" xmlns="http://www.w3.org/2000/svg">
<path d="M5.5875 18.1875C5.3625 18.0375 5.25 17.8125 5.25 17.55V1.5H18.75V17.55C18.75 17.8125 18.6375 18.0375 18.4125 18.1875L12 22.35L5.5875 18.1875Z" fill="#9E75F5"/>
<path d="M18.1875 4.875C17.8875 4.875 17.625 5.1375 17.625 5.4375V8.85C17.625 9.1125 17.4 9.375 17.1375 9.375H17.1C16.8 9.375 16.5375 9.6375 16.5375 9.9375V13.3875C16.5375 13.6125 16.3875 14.8375 16.1625 14.875C16.1625 14.8375 16.1625 14.8 16.125 14.7625L15.3375 12.925C15.3 12.85 15.225 12.775 15.15 12.7375L13.3125 11.95C13.125 11.875 12.9 11.95 12.825 12.175C12.7875 12.25 12.7875 12.3625 12.825 12.4375L13.6125 14.275C13.65 14.35 13.725 14.425 13.8 14.4625L15.4875 15.175C15.4125 15.25 15.375 14.3625 15.375 14.4375V16.125C15.375 17.775 14.5125 19.35 13.125 20.25C12.4125 20.7 12 21.4875 12 22.35L18.4125 18.1875C18.6 18.075 18.75 17.85 18.75 17.625V4.875H18.1875Z" fill="#936BE9"/>
<path d="M13.9277 6.82589L12.9293 4.32983C12.8295 4.08022 12.5299 3.93045 12.2803 4.0303C12.1306 4.08022 12.0307 4.18006 11.9808 4.32983L10.9824 6.82589C10.9325 6.92574 10.9325 7.0755 10.9824 7.17534L11.9808 9.67141C12.0806 9.92101 12.3802 10.0708 12.6298 9.97094C12.7795 9.92101 12.8794 9.82117 12.9293 9.67141L13.9277 7.17534C13.9776 7.0755 13.9776 6.97566 13.9277 6.82589Z" fill="#936BE9"/>
<path d="M13.4284 6.32687L12.43 3.8308C12.3302 3.5812 12.0307 3.43143 11.7811 3.53127C11.6313 3.5812 11.5315 3.68104 11.4815 3.8308L10.4831 6.32687C10.4332 6.42671 10.4332 6.57648 10.4831 6.67632L11.4815 9.17238C11.5814 9.42199 11.8809 9.57176 12.1305 9.47191C12.2803 9.42199 12.3801 9.32215 12.43 9.17238L13.4284 6.67632C13.4784 6.57648 13.4784 6.47663 13.4284 6.32687Z" fill="white"/>
<path d="M10.8814 14.1648L11.9298 11.7186C12.0296 11.469 11.9298 11.1695 11.6302 11.0697C11.5304 11.0197 11.3806 11.0197 11.2808 11.0697L8.83466 12.118C8.73482 12.1679 8.63497 12.2678 8.58505 12.3676L7.53671 14.8138C7.43687 15.0634 7.53671 15.3629 7.83624 15.4627C7.93608 15.5127 8.08584 15.5127 8.18568 15.4627L10.6318 14.4144C10.7317 14.3645 10.8315 14.2646 10.8814 14.1648Z" fill="#936BE9"/>
<path d="M10.3822 13.6653L11.4305 11.2191C11.5303 10.9695 11.4305 10.67 11.131 10.5702C11.0311 10.5202 10.8814 10.5202 10.7815 10.5702L8.33539 11.6185C8.23555 11.6684 8.13571 11.7683 8.08579 11.8681L7.03744 14.3142C6.9376 14.5638 7.03744 14.8634 7.33697 14.9632C7.43681 15.0131 7.58657 15.0131 7.68642 14.9632L10.1326 13.9149C10.2324 13.865 10.3322 13.7651 10.3822 13.6653Z" fill="white"/>
<path d="M7.68756 14.9637L10.1337 13.9154C10.2336 13.8655 10.3334 13.7656 10.3833 13.6658L11.4317 11.2196C11.5315 11.0199 11.1321 10.9201 10.6329 11.3694L7.13843 14.8639C7.28819 15.0137 7.48788 15.0636 7.68756 14.9637Z" fill="#DDDFE1"/>
<path d="M13.5771 13.6653L12.5288 11.2191C12.4289 10.9695 12.5288 10.67 12.8283 10.5702C12.9281 10.5202 13.0779 10.5202 13.1777 10.5702L15.6239 11.6185C15.7237 11.6684 15.8235 11.7683 15.8735 11.8681L16.9218 14.3142C17.0216 14.5638 16.9218 14.8634 16.6223 14.9632C16.5224 15.0131 16.3727 15.0131 16.2728 14.9632L13.8267 13.9149C13.7269 13.865 13.627 13.7651 13.5771 13.6653Z" fill="white"/>
<path d="M16.2735 14.9632L13.8274 13.9149C13.7275 13.865 13.6277 13.7651 13.5778 13.6653L12.5294 11.2191C12.4296 11.0195 12.829 10.9196 13.3282 11.3689L16.8226 14.8634C16.6729 15.0132 16.4732 15.0631 16.2735 14.9632Z" fill="#DDDFE1"/>
<path d="M12.4298 9.22259L13.4282 6.72652C13.4781 6.62668 13.4781 6.47692 13.4282 6.37708L12.4298 3.88101C12.3798 3.68132 11.9805 3.88101 11.9805 4.57991V9.57204C12.1802 9.52212 12.3798 9.42228 12.4298 9.22259Z" fill="#DDDFE1"/>
<path d="M18.75 0H5.25C4.425 0 3.75 0.675 3.75 1.5V17.55C3.75 18.3 4.125 19.0125 4.7625 19.425L11.5875 23.85C11.85 24 12.15 24 12.4125 23.85L19.2375 19.425C19.875 19.0125 20.25 18.3 20.25 17.55V1.5C20.25 0.675 19.575 0 18.75 0ZM18.75 3.225C18.4125 2.925 18.0375 2.7375 17.5875 2.6625C17.5125 2.25 17.325 1.8375 17.025 1.5H18.75V3.225ZM6.975 1.5C6.675 1.8375 6.4875 2.2125 6.4125 2.6625C5.9625 2.7375 5.5875 2.925 5.25 3.225V1.5H6.975ZM12 22.35L10.7625 21.525C11.2875 21.3 11.7 20.925 12 20.4375C12.3 20.925 12.7125 21.3 13.2375 21.525L12 22.35ZM18.75 17.55C18.75 17.8125 18.6375 18.0375 18.4125 18.1875L14.1 21C13.125 20.925 12.375 20.1 12.375 19.125C12.375 18.9 12.225 18.75 12 18.75C11.775 18.75 11.625 18.9 11.625 19.125C11.625 20.1 10.875 20.925 9.9 21L5.5875 18.1875C5.3625 18.0375 5.25 17.8125 5.25 17.55V4.875C5.25 4.05 5.925 3.375 6.75 3.375C6.975 3.375 7.125 3.225 7.125 3C7.125 2.175 7.8 1.5 8.625 1.5H15.375C16.2 1.5 16.875 2.175 16.875 3C16.875 3.225 17.025 3.375 17.25 3.375C18.075 3.375 18.75 4.05 18.75 4.875V17.55Z" fill="#222638"/>
<path d="M3.75 1.5V14.25C4.1625 14.25 4.5 13.9125 4.5 13.5V1.5C4.5 1.0875 4.8375 0.75 5.25 0.75H18C18.4125 0.75 18.75 0.4125 18.75 0H5.25C4.425 0 3.75 0.675 3.75 1.5Z" fill="#2F344B"/>
<path d="M19.2375 19.4625C19.875 19.05 20.25 18.3375 20.25 17.5875V2.625C19.8375 2.625 19.5 2.9625 19.5 3.375V17.6625C19.5 18.0375 19.3125 18.375 19.0125 18.6L12.6375 22.8375C12.2625 23.1 12 23.55 12 24C12.15 24 12.3 23.9625 12.4125 23.8875L19.2375 19.4625Z" fill="#191C2A"/>
</svg>
