<svg width="44" height="44" viewBox="0 0 44 44" fill="none" xmlns="http://www.w3.org/2000/svg">
<path d="M22 44C34.1503 44 44 34.1503 44 22C44 9.84974 34.1503 0 22 0C9.84974 0 0 9.84974 0 22C0 34.1503 9.84974 44 22 44Z" fill="#F6C95D"/>
<path d="M22 40.3334C32.1252 40.3334 40.3333 32.1253 40.3333 22.0001C40.3333 11.8749 32.1252 3.66675 22 3.66675C11.8748 3.66675 3.66667 11.8749 3.66667 22.0001C3.66667 32.1253 11.8748 40.3334 22 40.3334Z" fill="#C8892F"/>
<path d="M30.25 15.5834L26.5833 19.2501L21.0833 13.7501L15.5833 19.2501L11.9167 15.5834L21.0833 6.41675L30.25 15.5834Z" fill="#CCCCCC"/>
<path d="M30.25 28.4167L26.5833 24.75L21.0833 30.25L15.5833 24.75L11.9167 28.4167L21.0833 37.5833L30.25 28.4167Z" fill="#CCCCCC"/>
<path d="M17.4104 22L21.0772 18.3333L24.744 22L21.0772 25.6667L17.4104 22Z" fill="#CCCCCC"/>
<path d="M5.49469 21.999L9.16145 18.3323L12.8282 21.999L9.16145 25.6658L5.49469 21.999Z" fill="#CCCCCC"/>
<path d="M29.3262 22.001L32.993 18.3342L36.6597 22.001L32.993 25.6677L29.3262 22.001Z" fill="#CCCCCC"/>
<path d="M31.1667 15.5834L27.5 19.2501L22 13.7501L16.5 19.2501L12.8333 15.5834L22 6.41675L31.1667 15.5834Z" fill="white"/>
<path d="M31.1667 28.4167L27.5 24.75L22 30.25L16.5 24.75L12.8333 28.4167L22 37.5833L31.1667 28.4167Z" fill="white"/>
<path d="M18.3271 22L21.9939 18.3333L25.6606 22L21.9939 25.6667L18.3271 22Z" fill="white"/>
<path d="M6.41136 21.999L10.0781 18.3323L13.7449 21.999L10.0781 25.6658L6.41136 21.999Z" fill="white"/>
<path d="M30.2419 22.001L33.9087 18.3342L37.5755 22.001L33.9087 25.6677L30.2419 22.001Z" fill="white"/>
</svg>
