<svg width="44" height="44" viewBox="0 0 44 44" fill="none" xmlns="http://www.w3.org/2000/svg">
<path d="M22 44C34.1503 44 44 34.1503 44 22C44 9.84974 34.1503 0 22 0C9.84974 0 0 9.84974 0 22C0 34.1503 9.84974 44 22 44Z" fill="#8CA0F9"/>
<path d="M22 40.3334C32.1252 40.3334 40.3333 32.1253 40.3333 22.0001C40.3333 11.8749 32.1252 3.66675 22 3.66675C11.8748 3.66675 3.66666 11.8749 3.66666 22.0001C3.66666 32.1253 11.8748 40.3334 22 40.3334Z" fill="#687FE3"/>
<path d="M21.6492 28.2969L14.9886 25.0449L21.6432 33.9999L22.6429 32.6544V27.8102L21.6492 28.2969Z" fill="#C7DAF2"/>
<path d="M21.6432 10L14 23.7144H29.2866L21.6432 10Z" fill="#C7DAF2"/>
<path d="M29.2866 23.7347L21.6432 10V23.7347H29.2866Z" fill="#D7E8FF"/>
<path d="M21.6432 19.9899L21.6132 19.9756L14.0007 23.7256H14.0075L21.6199 27.4756L21.65 27.4613L22.6429 26.9753V20.4795L21.6432 19.9899Z" fill="#B4C7DE"/>
<path d="M21.6492 28.2968L21.6432 33.9998L28.3026 25.0388L21.6492 28.2968Z" fill="#D7E8FF"/>
<path d="M29.2723 23.7256L21.6432 19.9899L21.6132 19.9756L21.6199 27.4756L21.65 27.4613L29.2791 23.7256H29.2723Z" fill="#C4D4EB"/>
</svg>
