<svg width="44" height="44" viewBox="0 0 44 44" fill="none" xmlns="http://www.w3.org/2000/svg">
<path d="M22 44C34.1503 44 44 34.1503 44 22C44 9.84974 34.1503 0 22 0C9.84974 0 0 9.84974 0 22C0 34.1503 9.84974 44 22 44Z" fill="#5B7BBA"/>
<path d="M22 40.3334C32.1252 40.3334 40.3333 32.1253 40.3333 22.0001C40.3333 11.8749 32.1252 3.66675 22 3.66675C11.8748 3.66675 3.66667 11.8749 3.66667 22.0001C3.66667 32.1253 11.8748 40.3334 22 40.3334Z" fill="#3E5D98"/>
<path d="M21.6116 27.5L22.5858 22.8216L27.542 19.6914L29.4677 12.9518L23.9532 16.2607L25.0491 11H18.8272L16.9325 20.4731L13.9439 22.2661L13 28.8764L15.5781 27.2477L14.4273 33H30.2858L31.2029 27.5H21.6116Z" fill="#999999"/>
<path d="M20.766 28.1873L21.9725 22.3958L26.9535 19.2498L28.3285 14.4373L22.9591 17.6582L24.2035 11.6873H19.391L17.5471 20.9059L14.5778 22.6873L13.891 27.4998L16.5667 25.8099L15.266 32.3123H29.7035L30.391 28.1873H20.766Z" fill="#CCCCCC"/>
<path d="M21.9725 22.3958L26.9535 19.2498L28.2955 14.5528L24.3341 16.9294L24.3575 16.8201L22.9591 17.6582L24.2035 11.6873H20.6202L18.9221 20.1765L15.9528 21.9578L15.288 26.6177L16.5667 25.8099L16.5344 25.9694L17.9417 25.0804L16.641 31.5828H29.8252L30.391 28.1873H20.766L21.9725 22.3958Z" fill="#F2F2F2"/>
</svg>
